<svg xmlns="http://www.w3.org/2000/svg" width="23" height="20.126" viewBox="0 0 23 20.126">
  <path id="icon" d="M2611.833,321.968a1.636,1.636,0,0,1-.585-.1.648.648,0,0,1-.461-.633c0-.166,0-.332,0-.5a1.269,1.269,0,0,0-.016-.224.678.678,0,0,0-.288-.442l-.02-.014a.672.672,0,0,0-.4-.01.565.565,0,0,0-.235.149c-.156.15-.309.3-.469.452a.7.7,0,0,1-.608.183.573.573,0,0,1-.253-.117,3.016,3.016,0,0,1-.563-.541.636.636,0,0,1-.095-.63.808.808,0,0,1,.2-.314c.133-.141.262-.286.394-.428a.633.633,0,0,0,.046-.741.606.606,0,0,0-.5-.306c-.216-.016-.433-.021-.65-.03a.75.75,0,0,1-.42-.129.645.645,0,0,1-.274-.445c0-.01,0-.021,0-.03a.833.833,0,0,1-.038-.183c-.009-.1-.013-.194-.019-.292v-.056c.006-.076.012-.151.021-.227a.762.762,0,0,1,.216-.481.714.714,0,0,1,.5-.21c.207,0,.413,0,.619-.006a.648.648,0,0,0,.583-.4.7.7,0,0,0,.017-.129.6.6,0,0,0-.195-.463c-.142-.142-.288-.281-.424-.428a.7.7,0,0,1-.123-.807,1.354,1.354,0,0,1,.113-.184l0,0a1.862,1.862,0,0,1,.452-.464.988.988,0,0,1,.331-.177.668.668,0,0,1,.638.128c.089.072.167.158.249.239.1.1.192.2.3.289a.567.567,0,0,0,.6.076.589.589,0,0,0,.3-.379,1.478,1.478,0,0,0,.018-.268c0-.163,0-.327.01-.49a.719.719,0,0,1,.411-.655,1.578,1.578,0,0,1,.252-.076l.029-.009.181,0,.071,0h.174l.072,0,.18,0,.03.009a1.623,1.623,0,0,1,.253.076.719.719,0,0,1,.41.655c.009.163,0,.327.01.49a1.436,1.436,0,0,0,.019.268.586.586,0,0,0,.3.379.565.565,0,0,0,.6-.076c.108-.086.2-.193.3-.289.082-.08.16-.167.249-.239a.668.668,0,0,1,.638-.128,1,1,0,0,1,.332.177,1.879,1.879,0,0,1,.451.464v0a1.245,1.245,0,0,1,.114.184.7.7,0,0,1-.122.807c-.137.147-.282.287-.424.428a.6.6,0,0,0-.2.463.829.829,0,0,0,.017.129.649.649,0,0,0,.583.4c.206,0,.413,0,.619.006a.717.717,0,0,1,.5.21.764.764,0,0,1,.215.481c.009.076.013.151.02.227v.056c-.006.1-.01.2-.02.292a.819.819,0,0,1-.038.183c0,.01,0,.02,0,.03a.647.647,0,0,1-.276.445.747.747,0,0,1-.419.129c-.217.009-.434.015-.65.03a.6.6,0,0,0-.452.24l-.591-.554a2.948,2.948,0,0,0,.1-.736,2.914,2.914,0,1,0-2.028,2.775l.6.558a.659.659,0,0,0-.114.021l-.019.014a.674.674,0,0,0-.289.442,1.343,1.343,0,0,0-.016.224c0,.166,0,.332,0,.5a.647.647,0,0,1-.461.633,1.648,1.648,0,0,1-.554.1Zm-12.029-.549a2.146,2.146,0,0,1-2.11-1.776l-1.185-6.846h.066a1.477,1.477,0,0,1-1.476-1.478v-.577a1.478,1.478,0,0,1,1.478-1.478h3.1l2.71-4.478a1.4,1.4,0,1,1,1.5.863l-2.107,3.615h8.109l-2.108-3.615a1.4,1.4,0,1,1,1.5-.863l2.7,4.478h3.111a1.478,1.478,0,0,1,1.478,1.478v.577a1.466,1.466,0,0,1-.248.818c-.1-.094-.2-.18-.3-.255a2.139,2.139,0,0,0-.714-.374,1.557,1.557,0,0,1-2.359-.994,1.946,1.946,0,0,0-.4-.135l-.2-.06-.412-.011-.11,0-.109,0-.413.011-.2.06a1.983,1.983,0,0,0-.4.136,1.554,1.554,0,0,1-2.357.993,2.134,2.134,0,0,0-.714.374,2.988,2.988,0,0,0-.7.729c-.044.063-.083.125-.118.186-.024.042-.048.083-.069.125a1.842,1.842,0,0,0,.018,1.68c-.021.007-.042.016-.064.023a.456.456,0,0,0-.447-.364h-.934a.458.458,0,0,0-.439.477l.139,3.521.02.5a.6.6,0,0,0,.6.576h.322a.6.6,0,0,0,.6-.576v-.051a1.873,1.873,0,0,0,.349.11,1.8,1.8,0,0,0-.172.387,2.255,2.255,0,0,0-.064.276,1.729,1.729,0,0,0,.364,1.411,4.365,4.365,0,0,0,.51.528Zm.531-7.148a.362.362,0,0,0-.285.3.369.369,0,0,0,0,.129l.818,3.975a.824.824,0,0,0,.807.657H2602a.547.547,0,0,0,.057,0,.46.46,0,0,0,.4-.512l-.319-2.695-.158-1.327a.6.6,0,0,0-.6-.532h-.984A.359.359,0,0,0,2600.335,314.271Zm-1.741-2.857h0a.806.806,0,1,0,.8-.807h0A.8.8,0,0,0,2598.594,311.414Zm16.769,9.47a.582.582,0,0,1-.361-.15c-.163-.141-.318-.29-.474-.439-.4-.38-.795-.762-1.193-1.142-.123-.117-.253-.227-.375-.346a.314.314,0,0,0-.327-.072c-.128.036-.255.08-.386.107a1.972,1.972,0,0,1-1.531-.271,2.262,2.262,0,0,1-.912-1.076,2.058,2.058,0,0,1-.136-.835c0-.116.019-.232.028-.348,0-.05.041-.071.08-.087.011,0,.033.011.046.023.1.1.2.2.3.3.18.176.357.356.542.526a.983.983,0,0,0,.509.25,1,1,0,0,0,.846-.231l.016-.016a1.317,1.317,0,0,0,.347-.448.954.954,0,0,0-.058-.9,1.016,1.016,0,0,0-.183-.238l-.806-.79c-.016-.016-.029-.035-.047-.057a2.284,2.284,0,0,1,.644-.1,1.952,1.952,0,0,1,1.2.4,2.117,2.117,0,0,1,.8,1.089,2.145,2.145,0,0,1,.01,1.263c-.016.058-.03.116-.045.174a.238.238,0,0,0,.031.2.262.262,0,0,0,.034.043c.13.13.26.259.392.386q.783.756,1.569,1.511a.775.775,0,0,1,.218.313.628.628,0,0,1-.069.572,1.111,1.111,0,0,1-.3.293.571.571,0,0,1-.339.088Zm.056-1.094a.364.364,0,0,0-.368.378.373.373,0,0,0,.373.35.361.361,0,0,0,.361-.379.34.34,0,0,0-.361-.349Z" transform="translate(-2594.6 -302.342)" fill="#fff" stroke="rgba(0,0,0,0)" stroke-miterlimit="10" stroke-width="1"/>
</svg>
