<svg xmlns="http://www.w3.org/2000/svg" xmlns:xlink="http://www.w3.org/1999/xlink" id="Layer_1" x="0px" y="0px" viewBox="0 0 335.7 46.6" xml:space="preserve">
<g>
	<g>
		<path fill="#F8003C" d="M1.7,28.1h14.7c0.7,0,1.2-0.4,1.5-0.9c0.1-0.2,0.2-0.5,0.2-0.8v-6.2c0-1-0.8-1.7-1.7-1.7H8H1.7    c-1,0-1.7,0.8-1.7,1.7v6.2C0,27.3,0.8,28.1,1.7,28.1z"/>
		<path fill="#27334F" d="M33.6,14.4c0-1.8,0.4-3.5,1.2-5c0-0.1,0-0.1,0-0.2l-7.4,8.9c-0.9,1.1-1.4,2.3-1.6,3.6    c-0.3,2.1,0.2,4.3,1.6,6.1l3.5,4.2l2.3,2.8l4.9,5.9l2.7,3.3l0,0l1.4,1.7c0.4,0.5,1,0.7,1.6,0.8c0,0,0,0,0,0c0.3,0,0.6-0.1,0.9-0.2    h0c0.3-0.1,0.5-0.3,0.7-0.5l0.2-0.2l3.9-3.8c0.8-0.8,0.9-2.1,0.1-2.9l-1.2-1.5l-4.2-5.1l-5.9-7c-0.5-0.6-0.8-1.4-0.8-2.2    c-0.1-0.1-0.1-0.2-0.2-0.3C35.1,20.8,33.6,17.8,33.6,14.4z"/>
		<path fill="#FFAA00" d="M49.9,6.3c0-0.5-0.2-0.9-0.6-1.3l-4.2-4.3c-0.3-0.3-0.7-0.5-1.1-0.6c0,0,0,0,0,0C43.8,0,43.6,0,43.4,0    c-0.6,0-1.2,0.3-1.6,0.8l-3.7,4.5l0,0l-3.3,3.9c0,0.1,0,0.1,0,0.2c0,0,0,0,0,0c-0.8,1.5-1.2,3.2-1.2,5c0,3.4,1.5,6.4,3.9,8.4    c0.1,0.1,0.1,0.2,0.2,0.3c0-0.8,0.3-1.6,0.8-2.3l10.9-13C49.8,7.4,49.9,6.8,49.9,6.3z"/>
		<linearGradient id="SVGID_1_" gradientUnits="userSpaceOnUse" x1="33.4347" y1="19.6302" x2="39.0536" y2="12.7343">
			<stop offset="0" style="stop-color:#000000"/>
			<stop offset="0.1448" style="stop-color:#303030"/>
			<stop offset="0.3812" style="stop-color:#797979"/>
			<stop offset="0.5934" style="stop-color:#B2B2B2"/>
			<stop offset="0.7737" style="stop-color:#DCDCDC"/>
			<stop offset="0.9151" style="stop-color:#F6F6F6"/>
			<stop offset="1" style="stop-color:#FFFFFF"/>
		</linearGradient>
		<path opacity="0.3" fill="url(#SVGID_1_)" d="M49.9,6.3c0-0.5-0.2-0.9-0.6-1.3l-4.2-4.3c-0.3-0.3-0.7-0.5-1.1-0.6c0,0,0,0,0,0    C43.8,0,43.6,0,43.4,0c-0.6,0-1.2,0.3-1.6,0.8l-3.7,4.5l0,0l-3.3,3.9c0,0.1,0,0.1,0,0.2c0,0,0,0,0,0c-0.8,1.5-1.2,3.2-1.2,5    c0,3.4,1.5,6.4,3.9,8.4c0.1,0.1,0.1,0.2,0.2,0.3c0-0.8,0.3-1.6,0.8-2.3l10.9-13C49.8,7.4,49.9,6.8,49.9,6.3z"/>
		<path fill="#F8003C" d="M13.7,35.7h-12c-0.2,0-0.4,0-0.6,0.1C0.5,36,0,36.7,0,37.4v3.1v3.1c0,1,0.8,1.7,1.7,1.7h0.1h3.6    C6.9,41.2,9.9,37.7,13.7,35.7L13.7,35.7"/>
		<path fill="#F8003C" d="M5.5,45.4H26c1,0,1.7-0.8,1.7-1.7v-0.3v-5.9c0-1-0.8-1.7-1.7-1.7h-1.3H13.8C9.9,37.7,6.9,41.2,5.5,45.4z"/>
		<linearGradient id="SVGID_2_" gradientUnits="userSpaceOnUse" x1="5.4519" y1="40.5244" x2="27.7615" y2="40.5244">
			<stop offset="0" style="stop-color:#000000"/>
			<stop offset="0.1448" style="stop-color:#303030"/>
			<stop offset="0.3812" style="stop-color:#797979"/>
			<stop offset="0.5934" style="stop-color:#B2B2B2"/>
			<stop offset="0.7737" style="stop-color:#DCDCDC"/>
			<stop offset="0.9151" style="stop-color:#F6F6F6"/>
			<stop offset="1" style="stop-color:#FFFFFF"/>
		</linearGradient>
		<path opacity="0.4" fill="url(#SVGID_2_)" d="M5.5,45.4H26c1,0,1.7-0.8,1.7-1.7v-0.3v-5.9c0-1-0.8-1.7-1.7-1.7h-1.3H13.8    C9.9,37.7,6.9,41.2,5.5,45.4z"/>
		<path fill="#0099AC" d="M25.9,1.2h-3.6c-1.5,4.2-4.5,7.6-8.3,9.7h0h12c0.2,0,0.4,0,0.6-0.1c0.7-0.2,1.2-0.9,1.2-1.6V6.1V2.9    C27.8,2,27,1.2,25.9,1.2L25.9,1.2"/>
		<path fill="#0099AC" d="M22.3,1.2H1.7C0.8,1.2,0,2,0,2.9v0.3v5.9c0,1,0.8,1.7,1.7,1.7h1.3H14C17.9,8.8,20.8,5.4,22.3,1.2z"/>
		
			<linearGradient id="SVGID_3_" gradientUnits="userSpaceOnUse" x1="-805.4604" y1="764.8273" x2="-783.1508" y2="764.8273" gradientTransform="matrix(-1 0 0 -1 -783.1508 770.8482)">
			<stop offset="0" style="stop-color:#000000"/>
			<stop offset="0.1448" style="stop-color:#303030"/>
			<stop offset="0.3812" style="stop-color:#797979"/>
			<stop offset="0.5934" style="stop-color:#B2B2B2"/>
			<stop offset="0.7737" style="stop-color:#DCDCDC"/>
			<stop offset="0.9151" style="stop-color:#F6F6F6"/>
			<stop offset="1" style="stop-color:#FFFFFF"/>
		</linearGradient>
		<path opacity="0.4" fill="url(#SVGID_3_)" d="M22.3,1.2H1.7C0.8,1.2,0,2,0,2.9v0.3v5.9c0,1,0.8,1.7,1.7,1.7h1.3H14    C17.9,8.8,20.8,5.4,22.3,1.2z"/>
	</g>
	<g>
		<path fill="none" d="M189.8,19.9c-1.7,0-3.1,0.5-4.3,1.5c-1.1,0.9-1.8,2.2-2,3.7h12.9c-0.3-1.6-1-2.8-2-3.7    C193.1,20.4,191.6,19.9,189.8,19.9z"/>
		<path fill="none" d="M117.4,19.9c-1.7,0-3.1,0.5-4.3,1.5c-1.1,0.9-1.8,2.2-2,3.7h12.9c-0.3-1.6-1-2.8-2-3.7    C120.7,20.4,119.2,19.9,117.4,19.9z"/>
		<polygon fill="#252525" points="73.5,26.2 87.6,26.2 87.6,20.5 73.5,20.5 73.5,11.5 90.6,11.5 90.6,5.7 67,5.7 67,41.4 91.2,41.4     91.2,35.6 73.5,35.6   "/>
		<rect x="94.6" y="5.7" fill="#252525" width="6.1" height="35.8"/>
		<path fill="#252525" d="M123.9,16.3c-1.9-1-4.2-1.5-6.7-1.5c-2.5,0-4.7,0.6-6.7,1.7c-1.9,1.1-3.5,2.7-4.5,4.8    c-1.1,2-1.6,4.4-1.6,7.1c0,2.7,0.6,5,1.7,7c1.1,2,2.7,3.6,4.7,4.7c2,1.1,4.4,1.7,7.2,1.7c3.1,0,5.8-0.9,7.9-2.6    c2.1-1.7,3.4-3.9,3.9-6.6l0.1-0.4h-6.1l-0.1,0.3c-0.3,1.3-1,2.4-2.1,3.1c-1.1,0.7-2.4,1.1-4,1.1c-2,0-3.6-0.6-4.8-1.8    c-1.2-1.2-1.9-2.9-2-5H130l0-0.3c0.1-0.7,0.2-1.4,0.2-2.1c0-2.5-0.6-4.8-1.7-6.6C127.3,18.8,125.8,17.4,123.9,16.3z M111,25.1    c0.3-1.5,0.9-2.7,2-3.7c1.2-1,2.7-1.5,4.3-1.5c1.8,0,3.3,0.5,4.5,1.5c1.1,0.9,1.8,2.1,2,3.7H111z"/>
		<path fill="#252525" d="M163.7,14.8c-2.1,0-4,0.4-5.5,1.3c-1.3,0.7-2.4,1.8-3.3,3c-0.7-1.3-1.8-2.4-3-3.1    c-1.4-0.8-3.1-1.2-4.9-1.2c-3,0-5.4,1.1-7.3,3.2l-0.5-2.9l-5.4,2v24.4h6.1V27.4c0-2.2,0.5-4,1.5-5.3c1-1.3,2.4-1.9,4.1-1.9    c1.7,0,2.9,0.5,3.7,1.6c0.9,1.1,1.3,2.7,1.3,4.9v14.8h6.2V27.2c0-2.2,0.5-3.9,1.5-5.2c1-1.2,2.4-1.8,4.1-1.8    c1.7,0,2.9,0.5,3.7,1.6c0.8,1.1,1.3,2.7,1.3,4.9v14.8h6.2V26.6c0-4.1-0.9-7.1-2.8-9C169,15.7,166.6,14.8,163.7,14.8z"/>
		<path fill="#252525" d="M196.3,16.3c-1.9-1-4.2-1.5-6.7-1.5c-2.5,0-4.7,0.6-6.7,1.7c-1.9,1.1-3.5,2.7-4.5,4.8    c-1.1,2-1.6,4.4-1.6,7.1c0,2.7,0.6,5,1.7,7c1.1,2,2.7,3.6,4.7,4.7c2,1.1,4.4,1.7,7.2,1.7c3.1,0,5.8-0.9,7.9-2.6    c2.1-1.7,3.4-3.9,3.9-6.6l0.1-0.4h-6.1l-0.1,0.3c-0.3,1.3-1,2.4-2.1,3.1c-1.1,0.7-2.4,1.1-4,1.1c-2,0-3.6-0.6-4.8-1.8    c-1.2-1.2-1.9-2.9-2-5h19.2l0-0.3c0.1-0.7,0.2-1.4,0.2-2.1c0-2.5-0.6-4.8-1.7-6.6C199.8,18.8,198.3,17.4,196.3,16.3z M183.4,25.1    c0.3-1.5,0.9-2.7,2-3.7c1.2-1,2.7-1.5,4.3-1.5c1.8,0,3.3,0.5,4.5,1.5c1.1,0.9,1.8,2.1,2,3.7H183.4z"/>
		<path fill="#252525" d="M220.1,14.8c-3.3,0-6,1.1-8,3.2l-0.5-2.9l-5.4,2v24.4h6.1V28.2c0-2.5,0.6-4.5,1.7-5.9    c1.2-1.4,2.7-2.1,4.7-2.1c1.9,0,3.3,0.6,4.3,1.8c1,1.2,1.5,3,1.5,5.3v14.2h6.2V27c0-4.2-1-7.3-3-9.3    C225.8,15.8,223.2,14.8,220.1,14.8z"/>
		<path fill="#252525" d="M243.3,35.4c-0.3-0.3-0.5-1-0.5-1.9v-13h6.2v-5.5h-6.2V7.9l-6.2,2v5.2h-2.5l-2,5.5h4.5v13.5    c0,2.5,0.6,4.3,1.8,5.5c1.2,1.2,3.1,1.8,5.6,1.8h5.6v-5.5h-4.5C244.2,35.9,243.6,35.8,243.3,35.4z"/>
		<path fill="#252525" d="M268.7,26.4c-1.5-0.5-3.4-0.9-5.6-1.1c-1.6-0.2-2.8-0.4-3.5-0.5c-0.7-0.1-1.2-0.4-1.7-0.7    c-0.4-0.3-0.6-0.8-0.6-1.4c0-0.9,0.4-1.6,1.3-2.1c0.9-0.6,2.1-0.8,3.6-0.8c1.5,0,2.7,0.4,3.7,1.1c1,0.7,1.5,1.5,1.6,2.6l0,0.3h6    l0-0.4c-0.2-2.7-1.3-4.8-3.4-6.3c-2.1-1.5-4.8-2.2-8.1-2.2c-2,0-3.8,0.3-5.4,1c-1.6,0.7-2.9,1.7-3.8,2.9c-0.9,1.3-1.4,2.8-1.4,4.4    c0,1.8,0.5,3.2,1.4,4.2c0.9,1,2.2,1.8,3.7,2.3c1.5,0.5,3.3,0.8,5.6,1.1c1.6,0.2,2.8,0.4,3.6,0.6c0.7,0.2,1.3,0.4,1.7,0.8    c0.4,0.4,0.6,0.9,0.6,1.7c0,0.9-0.4,1.6-1.3,2.2c-1,0.6-2.2,0.9-3.8,0.9c-1.7,0-3.2-0.4-4.3-1.2h0c-1.1-0.8-1.6-1.8-1.7-3l0-0.3    h-5.9l0,0.4c0.1,2.8,1.2,5.1,3.4,6.7c2.2,1.6,5,2.4,8.5,2.4c2.1,0,4-0.3,5.6-1c1.7-0.7,3-1.7,4-2.9c1-1.3,1.5-2.8,1.5-4.5    c0-1.9-0.5-3.4-1.4-4.5C271.5,27.7,270.2,26.9,268.7,26.4z"/>
		<polygon fill="#252525" points="308.1,5.7 300.1,5.7 284.6,23.1 284.6,5.7 278.1,5.7 278.1,41.4 284.6,41.4 284.6,32 290.3,25.7     301.1,41.4 308.9,41.4 294.9,20.7   "/>
		<path fill="#F8003C" d="M313.5,4.8c-1,0-1.9,0.3-2.6,1c-0.7,0.7-1.1,1.6-1.1,2.6s0.4,1.9,1.1,2.6c0.7,0.7,1.6,1,2.6,1    s1.9-0.3,2.6-1c0.7-0.7,1.1-1.6,1.1-2.6s-0.4-1.9-1.1-2.6C315.4,5.2,314.5,4.8,313.5,4.8z"/>
		<rect x="310.4" y="15.1" fill="#252525" width="6.2" height="26.4"/>
		<path fill="#252525" d="M331.3,35.9c-0.9,0-1.5-0.2-1.8-0.5c-0.3-0.3-0.5-1-0.5-1.9v-13h6.2v-5.5H329V7.9l-6.2,2v5.2h-2.5l-2,5.5    h4.5v13.5c0,2.5,0.6,4.3,1.8,5.5c1.2,1.2,3.1,1.8,5.6,1.8h5.6v-5.5H331.3z"/>
	</g>
</g>
</svg>