<svg xmlns="http://www.w3.org/2000/svg" xmlns:xlink="http://www.w3.org/1999/xlink"  viewBox="0 0 180 24.961">
  <defs>
    <linearGradient id="linear-gradient" x1="-0.011" y1="0.849" x2="0.335" y2="0.551" gradientUnits="objectBoundingBox">
      <stop offset="0"/>
      <stop offset="0.145" stop-color="#303030"/>
      <stop offset="0.381" stop-color="#787878"/>
      <stop offset="0.593" stop-color="#b2b2b2"/>
      <stop offset="0.774" stop-color="#dcdcdc"/>
      <stop offset="0.915" stop-color="#f5f5f5"/>
      <stop offset="1" stop-color="#fff"/>
    </linearGradient>
    <linearGradient id="linear-gradient-2" x1="0" y1="0.5" x2="1" y2="0.5" xlink:href="#linear-gradient"/>
    <linearGradient id="linear-gradient-3" x1="4.419" y1="125.574" x2="5.419" y2="125.574" xlink:href="#linear-gradient"/>
  </defs>
  <g id="logo" transform="translate(-340.604 -290.514)">
    <g id="Group_490" data-name="Group 490" transform="translate(340.604 290.514)">
      <path id="Path_1847" data-name="Path 1847" d="M341.54,314.136h7.876a.948.948,0,0,0,.936-.936v-3.32a.936.936,0,0,0-.936-.936H341.54a.936.936,0,0,0-.936.936v3.32A.936.936,0,0,0,341.54,314.136Z" transform="translate(-340.604 -299.063)" fill="#f8003c"/>
      <path id="Path_1848" data-name="Path 1848" d="M370.557,302.561a5.893,5.893,0,0,1,.649-2.688c0-.03,0-.059.008-.089l-3.957,4.8a4.09,4.09,0,0,0,0,5.2l1.874,2.266,1.221,1.477,2.612,3.159,1.46,1.766h0l.756.915a1.17,1.17,0,0,0,.836.4h.026a1.214,1.214,0,0,0,.5-.124h0a1.4,1.4,0,0,0,.388-.254l.12-.118,2.075-2.042a1.173,1.173,0,0,0,.078-1.577l-.664-.8-2.26-2.714-3.144-3.778a1.844,1.844,0,0,1-.427-1.159c-.029-.051-.054-.105-.082-.157A5.906,5.906,0,0,1,370.557,302.561Z" transform="translate(-352.535 -294.814)" fill="#27334f"/>
      <path id="Path_1849" data-name="Path 1849" d="M382.925,293.866a1.161,1.161,0,0,0-.321-.694l-2.243-2.3a1.165,1.165,0,0,0-.6-.325h0a1.142,1.142,0,0,0-1.129.388l-2,2.424-.014.017-1.743,2.113c0,.03,0,.06-.008.09h0a5.9,5.9,0,0,0,1.42,7.179c.028.051.053.105.082.157a1.85,1.85,0,0,1,.434-1.225l5.857-6.948A1.16,1.16,0,0,0,382.925,293.866Z" transform="translate(-356.197 -290.514)" fill="#fa0"/>
      <path id="Path_1850" data-name="Path 1850" d="M382.925,293.866a1.161,1.161,0,0,0-.321-.694l-2.243-2.3a1.165,1.165,0,0,0-.6-.325h0a1.142,1.142,0,0,0-1.129.388l-2,2.424-.014.017-1.743,2.113c0,.03,0,.06-.008.09h0a5.9,5.9,0,0,0,1.42,7.179c.028.051.053.105.082.157a1.85,1.85,0,0,1,.434-1.225l5.857-6.948A1.16,1.16,0,0,0,382.925,293.866Z" transform="translate(-356.197 -290.514)" opacity="0.3" fill="url(#linear-gradient)" style="mix-blend-mode: multiply;isolation: isolate"/>
      <path id="Path_1851" data-name="Path 1851" d="M347.964,326.2H341.54a.949.949,0,0,0-.936.936v3.32a.936.936,0,0,0,.936.936h1.987a9.422,9.422,0,0,1,4.457-5.192h-.02" transform="translate(-340.604 -307.066)" fill="#f8003c"/>
      <path id="Path_1852" data-name="Path 1852" d="M346.056,331.388h11.025a.936.936,0,0,0,.936-.936v-3.32a.936.936,0,0,0-.936-.936h-6.568A9.422,9.422,0,0,0,346.056,331.388Z" transform="translate(-343.133 -307.066)" fill="#f8003c"/>
      <path id="Path_1853" data-name="Path 1853" d="M346.056,331.388h11.025a.936.936,0,0,0,.936-.936v-3.32a.936.936,0,0,0-.936-.936h-6.568A9.422,9.422,0,0,0,346.056,331.388Z" transform="translate(-343.133 -307.066)" opacity="0.4" fill="url(#linear-gradient-2)" style="mix-blend-mode: multiply;isolation: isolate"/>
      <path id="Path_1854" data-name="Path 1854" d="M361.006,291.693h-1.948a9.422,9.422,0,0,1-4.457,5.192h6.444a.92.92,0,0,0,.314-.058.934.934,0,0,0,.622-.878v-3.32a.936.936,0,0,0-.936-.936h-.039" transform="translate(-347.097 -291.061)" fill="#0099ac"/>
      <path id="Path_1855" data-name="Path 1855" d="M352.565,291.693H341.54a.936.936,0,0,0-.936.936v3.32a.936.936,0,0,0,.936.936h6.568A9.422,9.422,0,0,0,352.565,291.693Z" transform="translate(-340.604 -291.061)" fill="#0099ac"/>
      <path id="Path_1856" data-name="Path 1856" d="M352.565,291.693H341.54a.936.936,0,0,0-.936.936v3.32a.936.936,0,0,0,.936.936h6.568A9.422,9.422,0,0,0,352.565,291.693Z" transform="translate(-340.604 -291.061)" opacity="0.4" fill="url(#linear-gradient-3)" style="mix-blend-mode: multiply;isolation: isolate"/>
    </g>
    <g id="Group_491" data-name="Group 491" transform="translate(376.52 293.102)">
      <path id="Path_1857" data-name="Path 1857" d="M527.464,310.393a3.5,3.5,0,0,0-2.324.824,3.173,3.173,0,0,0-1.092,1.964h6.908a3.241,3.241,0,0,0-1.089-1.991A3.625,3.625,0,0,0,527.464,310.393Z" transform="translate(-461.614 -302.324)" fill="none"/>
      <path id="Path_1858" data-name="Path 1858" d="M455.015,310.393a3.5,3.5,0,0,0-2.324.824,3.173,3.173,0,0,0-1.092,1.964h6.908a3.244,3.244,0,0,0-1.089-1.991A3.625,3.625,0,0,0,455.015,310.393Z" transform="translate(-428.007 -302.324)" fill="none"/>
      <path id="Path_1859" data-name="Path 1859" d="M411.08,307.184h7.56v-3.056h-7.56v-4.8h9.168v-3.136H407.595V315.36H420.57v-3.136h-9.49Z" transform="translate(-407.595 -295.736)" fill="#252525"/>
      <rect id="Rectangle_393" data-name="Rectangle 393" width="3.297" height="19.168" transform="translate(14.797 0.456)" fill="#252525"/>
      <path id="Path_1860" data-name="Path 1860" d="M455.413,306.121a7.576,7.576,0,0,0-3.593-.828,7.064,7.064,0,0,0-3.572.9,6.258,6.258,0,0,0-2.436,2.547,8.047,8.047,0,0,0-.868,3.807,7.724,7.724,0,0,0,.9,3.77,6.322,6.322,0,0,0,2.546,2.532,7.916,7.916,0,0,0,3.837.9,6.534,6.534,0,0,0,4.241-1.385,5.772,5.772,0,0,0,2.1-3.552l.043-.236H455.31l-.039.151a2.8,2.8,0,0,1-1.126,1.667,3.687,3.687,0,0,1-2.138.595,3.43,3.43,0,0,1-2.564-.985,4.081,4.081,0,0,1-1.066-2.661H458.7l.025-.173a8.028,8.028,0,0,0,.083-1.13,7.093,7.093,0,0,0-.926-3.558A6.2,6.2,0,0,0,455.413,306.121Zm-6.9,4.694a3.174,3.174,0,0,1,1.092-1.964,3.5,3.5,0,0,1,2.324-.824,3.625,3.625,0,0,1,2.4.8,3.244,3.244,0,0,1,1.089,1.991Z" transform="translate(-424.92 -299.958)" fill="#252525"/>
      <path id="Path_1861" data-name="Path 1861" d="M490.438,305.293a5.982,5.982,0,0,0-2.939.682,5.326,5.326,0,0,0-1.784,1.613,4.161,4.161,0,0,0-1.612-1.652,5.34,5.34,0,0,0-2.647-.642,5.07,5.07,0,0,0-3.9,1.7l-.275-1.534-2.889,1.072v13.055h3.3v-7.546a4.442,4.442,0,0,1,.828-2.824,2.624,2.624,0,0,1,2.188-1.023,2.385,2.385,0,0,1,2,.849,4.177,4.177,0,0,1,.693,2.622v7.922h3.325v-7.627a4.273,4.273,0,0,1,.826-2.781,2.694,2.694,0,0,1,2.217-.985,2.333,2.333,0,0,1,1.986.86,4.245,4.245,0,0,1,.682,2.612v7.922h3.3v-7.948c0-2.19-.5-3.81-1.478-4.818A5.112,5.112,0,0,0,490.438,305.293Z" transform="translate(-438.581 -299.958)" fill="#252525"/>
      <path id="Path_1862" data-name="Path 1862" d="M527.862,306.121a7.577,7.577,0,0,0-3.593-.828,7.063,7.063,0,0,0-3.572.9,6.258,6.258,0,0,0-2.436,2.547,8.052,8.052,0,0,0-.868,3.807,7.724,7.724,0,0,0,.9,3.77,6.315,6.315,0,0,0,2.546,2.532,7.912,7.912,0,0,0,3.836.9,6.533,6.533,0,0,0,4.241-1.385,5.773,5.773,0,0,0,2.1-3.552l.042-.236h-3.292l-.039.151a2.8,2.8,0,0,1-1.126,1.667,3.687,3.687,0,0,1-2.138.595,3.431,3.431,0,0,1-2.564-.985,4.081,4.081,0,0,1-1.066-2.661h10.319l.025-.173a8.032,8.032,0,0,0,.083-1.13,7.092,7.092,0,0,0-.926-3.558A6.2,6.2,0,0,0,527.862,306.121Zm-6.9,4.694a3.173,3.173,0,0,1,1.092-1.964,3.5,3.5,0,0,1,2.324-.824,3.625,3.625,0,0,1,2.4.8,3.242,3.242,0,0,1,1.089,1.991Z" transform="translate(-458.526 -299.958)" fill="#252525"/>
      <path id="Path_1863" data-name="Path 1863" d="M554.282,305.293A5.571,5.571,0,0,0,550.009,307l-.277-1.545-2.889,1.072v13.055h3.3v-7.118a4.86,4.86,0,0,1,.933-3.156,3.078,3.078,0,0,1,2.539-1.119,2.75,2.75,0,0,1,2.284.945,4.445,4.445,0,0,1,.786,2.849v7.6h3.324V311.82c0-2.262-.539-3.934-1.6-4.969A5.685,5.685,0,0,0,554.282,305.293Z" transform="translate(-472.187 -299.958)" fill="#252525"/>
      <path id="Path_1864" data-name="Path 1864" d="M578.718,313.181a1.452,1.452,0,0,1-.265-1v-6.957h3.3v-2.949h-3.3v-3.834l-3.324,1.072v2.762h-1.314l-1.072,2.949h2.386v7.252a3.439,3.439,0,0,0,3.954,3.927h2.989v-2.949h-2.4A1.313,1.313,0,0,1,578.718,313.181Z" transform="translate(-484.201 -296.78)" fill="#252525"/>
      <path id="Path_1865" data-name="Path 1865" d="M600.979,311.512a15.272,15.272,0,0,0-3.013-.584c-.864-.106-1.5-.2-1.887-.279a2.1,2.1,0,0,1-.894-.389.913.913,0,0,1-.313-.768,1.281,1.281,0,0,1,.682-1.142,3.645,3.645,0,0,1,1.932-.453,3.286,3.286,0,0,1,1.972.565,1.943,1.943,0,0,1,.857,1.4l.02.178h3.209l-.014-.214a4.3,4.3,0,0,0-1.84-3.395,8.273,8.273,0,0,0-7.247-.638,4.817,4.817,0,0,0-2.04,1.582,3.924,3.924,0,0,0-.748,2.356,3.278,3.278,0,0,0,.762,2.266,4.3,4.3,0,0,0,1.967,1.21,17.281,17.281,0,0,0,3,.584c.863.106,1.509.208,1.922.3a1.981,1.981,0,0,1,.915.448,1.175,1.175,0,0,1,.311.9,1.3,1.3,0,0,1-.721,1.155,3.889,3.889,0,0,1-2.027.467,3.754,3.754,0,0,1-2.28-.644h0a2.114,2.114,0,0,1-.924-1.609l-.014-.186h-3.181l.005.206a4.381,4.381,0,0,0,1.838,3.6,7.609,7.609,0,0,0,4.582,1.285,8.153,8.153,0,0,0,3.023-.537,4.954,4.954,0,0,0,2.149-1.565,3.831,3.831,0,0,0,.792-2.388,3.615,3.615,0,0,0-.772-2.423A4.368,4.368,0,0,0,600.979,311.512Z" transform="translate(-492.848 -299.935)" fill="#252525"/>
      <path id="Path_1866" data-name="Path 1866" d="M634.78,296.192h-4.288l-8.315,9.35v-9.35h-3.485V315.36h3.485v-5.03l3.049-3.424,5.786,8.454h4.211L627.7,304.237Z" transform="translate(-505.516 -295.736)" fill="#252525"/>
      <path id="Path_1867" data-name="Path 1867" d="M652.412,295.342a1.939,1.939,0,0,0-1.4.553,1.981,1.981,0,0,0,0,2.781,2.048,2.048,0,0,0,2.8,0,1.981,1.981,0,0,0,0-2.781A1.937,1.937,0,0,0,652.412,295.342Z" transform="translate(-520.243 -295.342)" fill="#f8003c"/>
      <rect id="Rectangle_394" data-name="Rectangle 394" width="3.297" height="14.128" transform="translate(130.52 5.496)" fill="#252525"/>
      <path id="Path_1868" data-name="Path 1868" d="M665.87,313.455a1.312,1.312,0,0,1-.954-.273,1.45,1.45,0,0,1-.266-1v-6.957h3.3v-2.949h-3.3v-3.834l-3.325,1.072v2.762h-1.314l-1.072,2.949h2.386v7.252a3.439,3.439,0,0,0,3.955,3.927h2.989v-2.949Z" transform="translate(-524.185 -296.78)" fill="#252525"/>
    </g>
  </g>
</svg>
