<svg xmlns="http://www.w3.org/2000/svg" xmlns:xlink="http://www.w3.org/1999/xlink" width="230" height="32.691" viewBox="0 0 230 32.691">
  <defs>
    <linearGradient id="linear-gradient" x1="0.018" y1="0.009" x2="0.558" y2="0.641" gradientUnits="objectBoundingBox">
      <stop offset="0" stop-color="#fff"/>
      <stop offset="1" stop-color="#ffbf00"/>
    </linearGradient>
    <linearGradient id="linear-gradient-2" x1="0.909" y1="0.895" x2="0.169" y2="0.266" gradientUnits="objectBoundingBox">
      <stop offset="0" stop-color="#f8003c"/>
      <stop offset="1" stop-color="#ff8438"/>
    </linearGradient>
    <linearGradient id="linear-gradient-3" x1="0.609" y1="0.008" x2="0.483" y2="0.576" gradientUnits="objectBoundingBox">
      <stop offset="0" stop-color="#00d5c9"/>
      <stop offset="1" stop-color="#fff"/>
    </linearGradient>
    <linearGradient id="linear-gradient-4" x1="0.487" y1="-0.003" x2="0.513" y2="0.999" gradientUnits="objectBoundingBox">
      <stop offset="0" stop-color="#0099ac"/>
      <stop offset="1" stop-color="#00d5c9"/>
    </linearGradient>
  </defs>
  <g id="Group_508" data-name="Group 508" transform="translate(-337.862 -643.627)">
    <g id="Group_502" data-name="Group 502" transform="translate(376.9 650.608)">
      <path id="Path_1913" data-name="Path 1913" d="M428.648,670.628l-3.988-14.089H421.5l-4.121,14.093-3.91-14.019-.027-.1-3.534.03,5.5,18.693h3.863L422.96,662.2l3.77,13.036h3.863l5.447-18.522.05-.173h-3.453Z" transform="translate(-409.91 -656.511)" fill="#252525"/>
      <path id="Path_1914" data-name="Path 1914" d="M472.9,657.322a7.763,7.763,0,0,0-3.5-.759H461.79v18.695h3.387v-6.34H469.4a7.761,7.761,0,0,0,3.5-.76,5.588,5.588,0,0,0,2.359-2.165,6.772,6.772,0,0,0,0-6.505A5.6,5.6,0,0,0,472.9,657.322Zm-7.728,2.221h3.983a3.662,3.662,0,0,1,2.564.859,3.365,3.365,0,0,1-.014,4.663,3.678,3.678,0,0,1-2.577.873h-3.956Z" transform="translate(-433.679 -656.535)" fill="#252525"/>
      <path id="Path_1915" data-name="Path 1915" d="M504.889,675.257h3.387v-7.749H515.7v-2.953h-7.424V659.6h9v-3.035H504.889Z" transform="translate(-453.425 -656.535)" fill="#252525"/>
      <path id="Path_1916" data-name="Path 1916" d="M539.216,671.98a5.3,5.3,0,0,1-.921,3.291,2.976,2.976,0,0,1-2.52,1.18,2.739,2.739,0,0,1-2.3-1,4.893,4.893,0,0,1-.785-3.006v-7.478h-3.2v7.776c0,2.266.524,3.939,1.557,4.973a5.5,5.5,0,0,0,4.051,1.557,5.4,5.4,0,0,0,4.2-1.756l.294,1.593h2.822V664.963h-3.2Z" transform="translate(-464.696 -660.383)" fill="#252525"/>
      <path id="Path_1917" data-name="Path 1917" d="M565.59,664.663a5.543,5.543,0,0,0-4.361,1.8l-.294-1.642-2.8,1.084v13.06h3.2v-7.126a4.977,4.977,0,0,1,.959-3.233,3.215,3.215,0,0,1,2.618-1.156,2.88,2.88,0,0,1,2.36.979,4.556,4.556,0,0,1,.81,2.922v7.613h3.224v-7.776c0-2.267-.538-3.94-1.6-4.974A5.68,5.68,0,0,0,565.59,664.663Z" transform="translate(-477.822 -660.246)" fill="#252525"/>
      <path id="Path_1918" data-name="Path 1918" d="M596.943,662.782a5.08,5.08,0,0,0-1.648-1.261,6.156,6.156,0,0,0-2.715-.569,6.636,6.636,0,0,0-3.428.9,6.341,6.341,0,0,0-2.395,2.546,8.012,8.012,0,0,0-.87,3.788,8.235,8.235,0,0,0,.856,3.842,6.073,6.073,0,0,0,2.383,2.52,6.849,6.849,0,0,0,3.454.872,5.451,5.451,0,0,0,4.443-2.056l.32,1.894h2.8V656.563l-3.2,1.084Zm-3.875,9.9a3.564,3.564,0,0,1-2.824-1.24,5.422,5.422,0,0,1,0-6.489,3.834,3.834,0,0,1,5.647,0,4.87,4.87,0,0,1,1.078,3.285,4.736,4.736,0,0,1-1.078,3.216A3.579,3.579,0,0,1,593.068,672.684Z" transform="translate(-490.536 -656.535)" fill="#252525"/>
      <path id="Path_1919" data-name="Path 1919" d="M621.526,665.537a4.489,4.489,0,0,0-1.4,1.281l-.289-1.855-2.853,1.084v13.059h3.2v-7.1a5.047,5.047,0,0,1,.79-2.917,2.849,2.849,0,0,1,2.516-1.119h1.436v-3.008h-.786A5.174,5.174,0,0,0,621.526,665.537Z" transform="translate(-504.784 -660.383)" fill="#252525"/>
      <path id="Path_1920" data-name="Path 1920" d="M645.187,675.311v-5.473A4.8,4.8,0,0,0,643.622,666a6.585,6.585,0,0,0-4.4-1.333,7.367,7.367,0,0,0-4.332,1.176,4.473,4.473,0,0,0-1.9,3.335l-.016.149h3.136l.02-.112a2.039,2.039,0,0,1,.931-1.388,3.577,3.577,0,0,1,2.024-.532,3.348,3.348,0,0,1,2.163.634,2.085,2.085,0,0,1,.763,1.724v.7h-3.359a7.372,7.372,0,0,0-4.5,1.18,4.03,4.03,0,0,0-1.571,3.4,3.7,3.7,0,0,0,1.462,3.088,6.129,6.129,0,0,0,3.822,1.112,5.29,5.29,0,0,0,4.465-2.122,2.135,2.135,0,0,0,.617,1.354,2.9,2.9,0,0,0,2.044.606h1.68v-2.818h-.7C645.437,676.151,645.187,675.884,645.187,675.311Zm-6.909,1.273a2.858,2.858,0,0,1-1.8-.513,1.593,1.593,0,0,1-.639-1.33,1.659,1.659,0,0,1,.675-1.448,3.413,3.413,0,0,1,2.007-.5h3.495v.35a3.41,3.41,0,0,1-1,2.505A3.807,3.807,0,0,1,638.278,676.584Z" transform="translate(-511.931 -660.246)" fill="#252525"/>
      <rect id="Rectangle_409" data-name="Rectangle 409" width="3.197" height="13.601" transform="translate(136.072 5.122)" fill="#252525"/>
      <path id="Path_1921" data-name="Path 1921" d="M662.362,656.712a1.891,1.891,0,0,0-1.368.54,1.933,1.933,0,0,0,0,2.713,2,2,0,0,0,2.736,0,1.934,1.934,0,0,0,0-2.714A1.888,1.888,0,0,0,662.362,656.712Z" transform="translate(-524.691 -656.603)" fill="#252525"/>
      <path id="Path_1922" data-name="Path 1922" d="M680.441,670.947a15.418,15.418,0,0,0-3.033-.588c-.879-.108-1.523-.2-1.913-.283a2.19,2.19,0,0,1-.931-.407.985.985,0,0,1-.343-.829,1.36,1.36,0,0,1,.722-1.212,3.749,3.749,0,0,1,1.988-.467,3.393,3.393,0,0,1,2.034.584,2.034,2.034,0,0,1,.893,1.464l.014.12h3.11l-.01-.145a4.287,4.287,0,0,0-1.831-3.38,8.293,8.293,0,0,0-7.257-.637,4.8,4.8,0,0,0-2.034,1.575,3.9,3.9,0,0,0-.745,2.342,3.242,3.242,0,0,0,.754,2.244,4.266,4.266,0,0,0,1.957,1.2,17.4,17.4,0,0,0,3.018.588c.878.108,1.534.211,1.95.309a2.083,2.083,0,0,1,.955.469,1.251,1.251,0,0,1,.335.957,1.379,1.379,0,0,1-.76,1.226,4,4,0,0,1-2.085.481,3.864,3.864,0,0,1-2.344-.664,2.2,2.2,0,0,1-.962-1.675l-.009-.125h-3.083l0,.138a4.359,4.359,0,0,0,1.83,3.588,7.624,7.624,0,0,0,4.592,1.286,8.168,8.168,0,0,0,3.03-.538,4.949,4.949,0,0,0,2.144-1.56,3.808,3.808,0,0,0,.787-2.372,3.587,3.587,0,0,0-.764-2.405A4.343,4.343,0,0,0,680.441,670.947Z" transform="translate(-529.453 -660.223)" fill="#252525"/>
      <path id="Path_1923" data-name="Path 1923" d="M698.911,656.712a1.9,1.9,0,0,0-1.369.54,1.935,1.935,0,0,0,0,2.714,2,2,0,0,0,2.736,0,1.936,1.936,0,0,0,0-2.713A1.891,1.891,0,0,0,698.911,656.712Z" transform="translate(-541.437 -656.603)" fill="#252525"/>
      <rect id="Rectangle_410" data-name="Rectangle 410" width="3.197" height="13.601" transform="translate(155.876 5.122)" fill="#252525"/>
      <path id="Path_1924" data-name="Path 1924" d="M715.737,664.663a5.543,5.543,0,0,0-4.361,1.8l-.294-1.642-2.8,1.084v13.06h3.2v-7.126a4.979,4.979,0,0,1,.958-3.233,3.216,3.216,0,0,1,2.618-1.156,2.881,2.881,0,0,1,2.36.979,4.562,4.562,0,0,1,.81,2.922v7.613h3.223v-7.776c0-2.268-.538-3.941-1.6-4.974A5.679,5.679,0,0,0,715.737,664.663Z" transform="translate(-546.613 -660.246)" fill="#252525"/>
      <path id="Path_1925" data-name="Path 1925" d="M747.489,664.826l-.292,1.946A5.234,5.234,0,0,0,745.5,665.3a5.726,5.726,0,0,0-2.774-.639,6.637,6.637,0,0,0-3.429.9,6.352,6.352,0,0,0-2.394,2.531,7.869,7.869,0,0,0-.87,3.749,8.076,8.076,0,0,0,.856,3.816,6.114,6.114,0,0,0,2.383,2.493,6.855,6.855,0,0,0,3.454.871,5.256,5.256,0,0,0,4.389-1.991v1.125c0,2.516-1.259,3.739-3.847,3.739a4.425,4.425,0,0,1-2.446-.614,2.718,2.718,0,0,1-1.189-1.719l-.024-.105h-3.235l.012.147a4.767,4.767,0,0,0,2.006,3.661,7.859,7.859,0,0,0,4.658,1.286c2.444,0,4.28-.555,5.456-1.649a6.044,6.044,0,0,0,1.778-4.637V664.826Zm-4.272,11.461a3.577,3.577,0,0,1-2.824-1.227,5.338,5.338,0,0,1,0-6.433,3.849,3.849,0,0,1,5.648.012,4.835,4.835,0,0,1,1.078,3.258,4.644,4.644,0,0,1-1.077,3.175A3.6,3.6,0,0,1,743.216,676.287Z" transform="translate(-559.327 -660.246)" fill="#252525"/>
    </g>
    <g id="Group_507" data-name="Group 507" transform="translate(337.862 643.627)">
      <g id="Group_503" data-name="Group 503" transform="translate(0 8.439)">
        <path id="Path_1926" data-name="Path 1926" d="M376.843,664.289c-2.7-4.4-6.078-4.777-7.488-4.972a10.138,10.138,0,0,0-7.341,2.418l-.245.215s-.421.421-1.419,1.5c-.284.343-2.457,2.956-3.181,3.955-.666.92-2.144,3.122-2.31,3.367-.127.166-.294.568-.186.665.166.177.392.059.744-.225.264-.216,1.057-1.047,1.233-1.185s.489-.342.6-.186-.068.431-.313.783c-.205.284-1.262,1.527-1.439,1.722s-.656.91-.519,1.106.411.068.793-.216c.323-.235,1.909-1.84,2.036-1.987s.3-.245.352-.205-.02.186-.068.264c-.04.059-.147.264-.627.969-.225.274-1.282,1.977-1.478,2.251s-.3.91-.176.969c.254.147.538-.215.94-.626.244-.244,1.664-2.212,1.869-2.486.2-.255.529-.7.676-.627s-.049.44-.333.969c-.117.205-.9,1.742-1.106,2.183s-.157.911.01.95c.479.078.881-.656,1.057-1s.9-1.654,1.214-2.144c.255-.421.529-.558.666-.5s.088.342.029.564-.5,1.452-.646,1.932-.02.852.147.92c.46.147.617-.107.793-.538s1.233-2.564,1.869-4.062a47.273,47.273,0,0,1,2.858-5.208c.489-.685.763-.656.9-.6s.147.382.039.685c-.029.117-.391.871-.489,1.125s-.147.607-.078.636c.215.059.352-.215.48-.43.088-.147.832-1.635,1.057-2.017.176-.323.5-.636.656-.519s.069.5-.1,1.047c-.147.489-.587,1.39-.715,1.771-.118.314-.186.676-.118.686.186.049.255-.147.558-.646.186-.274.851-1.694,1.106-2.154s.6-.567.7-.47.059.617-.049.91c-.088.206-.528,1.41-.783,2.036-.166.352-.244.92-.157.949.235.039.3-.205.519-.519.137-.206.763-1.537,1.037-1.958s.529-.48.646-.343c.127.167.039.548-.137,1.068-.147.333-1.077,2.388-1.3,2.9-.215.45-.107.724-.029.734a.785.785,0,0,0,.6-.333c.147-.186.636-.851,1.008-1.38.333-.5.587-.518.744-.479s.274.392.088.949a18.907,18.907,0,0,1-3.044,4.826,18.5,18.5,0,0,1-6.372,5.237c-2.519,1.429-6.158,1.4-7.8,1.3-.178-.011-.355-.033-.531-.059,3.175,3.185,7.39,2.723,8.815,2.617a18.943,18.943,0,0,0,10.18-5.061c3.926-3.925,4.229-6.46,4.64-8.173A8.556,8.556,0,0,0,376.843,664.289Z" transform="translate(-345.387 -659.229)" fill="url(#linear-gradient)"/>
        <path id="Path_1927" data-name="Path 1927" d="M345.652,680.471a5.708,5.708,0,0,0,1.64.339c1.647.1,5.285.131,7.8-1.3a18.505,18.505,0,0,0,6.372-5.237,18.907,18.907,0,0,0,3.044-4.826c.186-.557.069-.91-.088-.949s-.411-.02-.744.48c-.372.529-.861,1.194-1.008,1.38a.785.785,0,0,1-.6.333c-.078-.01-.186-.284.029-.734.225-.509,1.155-2.565,1.3-2.9.176-.519.264-.9.137-1.067-.118-.136-.372-.078-.646.343s-.9,1.752-1.037,1.958c-.216.313-.284.558-.519.518-.088-.029-.01-.6.157-.949.255-.626.7-1.83.783-2.036.108-.294.157-.812.049-.91s-.45.02-.7.47-.92,1.88-1.106,2.154c-.3.5-.372.695-.558.646-.068-.01,0-.372.117-.685.127-.381.568-1.282.715-1.771.166-.548.254-.93.1-1.047s-.48.2-.656.518c-.225.382-.969,1.87-1.057,2.017-.127.215-.264.489-.48.43-.069-.029-.02-.381.078-.636s.46-1.008.489-1.125c.108-.3.1-.626-.039-.686s-.411-.088-.9.6a47.27,47.27,0,0,0-2.858,5.208c-.636,1.5-1.7,3.641-1.869,4.062s-.333.685-.793.538c-.167-.068-.284-.45-.147-.92s.587-1.719.646-1.932.108-.505-.029-.564-.411.078-.666.5c-.313.489-1.038,1.8-1.214,2.143s-.578,1.077-1.057,1c-.166-.04-.215-.519-.01-.95s.989-1.977,1.106-2.183c.284-.529.48-.891.333-.969s-.48.372-.676.626c-.205.273-1.625,2.242-1.869,2.486-.4.411-.685.773-.94.626-.127-.059-.02-.695.176-.969s1.253-1.977,1.478-2.251c.48-.7.587-.91.627-.969.049-.079.117-.225.068-.265s-.225.059-.352.206-1.713,1.752-2.036,1.987c-.382.284-.656.411-.793.216s.342-.91.519-1.107,1.234-1.438,1.439-1.722c.245-.352.421-.626.313-.783s-.421.049-.6.186-.969.969-1.233,1.185c-.352.284-.578.4-.744.225-.108-.1.059-.5.186-.665.166-.245,1.645-2.447,2.31-3.367.724-1,2.9-3.612,3.181-3.955,1-1.077,1.419-1.5,1.419-1.5a9.4,9.4,0,0,0-4.9-2.555c-1.733-.186-4.219-.763-8.144,2.349a10.319,10.319,0,0,0-3.318,6.49,12.7,12.7,0,0,0,1.6,7.195A11.694,11.694,0,0,0,345.652,680.471Z" transform="translate(-337.861 -659.202)" fill="url(#linear-gradient-2)"/>
      </g>
      <g id="Group_506" data-name="Group 506" transform="translate(2.288)">
        <circle id="Ellipse_230" data-name="Ellipse 230" cx="5.864" cy="5.864" r="5.864" transform="translate(0 1.599)" fill="#231f20" opacity="0.2" style="mix-blend-mode: multiply;isolation: isolate"/>
        <circle id="Ellipse_231" data-name="Ellipse 231" cx="5.746" cy="5.746" r="5.746" transform="translate(0.119)" fill="url(#linear-gradient-3)"/>
        <circle id="Ellipse_232" data-name="Ellipse 232" cx="4.692" cy="4.692" r="4.692" transform="translate(1.172)" fill="url(#linear-gradient-4)"/>
        <g id="Group_504" data-name="Group 504" transform="translate(4.53 2.045)" opacity="0.3" style="mix-blend-mode: multiply;isolation: isolate">
          <path id="Path_1928" data-name="Path 1928" d="M353.848,651.932a1.364,1.364,0,0,1-1.277.878v.582a.194.194,0,0,1-.193.193h-.386a.194.194,0,0,1-.193-.193v-.58a1.708,1.708,0,0,1-1.045-.362.2.2,0,0,1-.022-.3l.421-.411a.189.189,0,0,1,.236-.025.738.738,0,0,0,.413.127h.8a.356.356,0,0,0,.1-.7l-1.238-.363a1.383,1.383,0,0,1-1.012-1.167,1.324,1.324,0,0,1,1.317-1.445h.03v-.58a.194.194,0,0,1,.193-.193h.386a.194.194,0,0,1,.193.193v.58a1.7,1.7,0,0,1,1.045.362.2.2,0,0,1,.022.3l-.42.411a.189.189,0,0,1-.236.025.735.735,0,0,0-.413-.127h-.8a.356.356,0,0,0-.1.7l1.3.382A1.327,1.327,0,0,1,353.848,651.932Z" transform="translate(-350.445 -647.4)" fill="#231f20"/>
        </g>
        <g id="Group_505" data-name="Group 505" transform="translate(4.125 1.599)">
          <path id="Path_1929" data-name="Path 1929" d="M353.1,651.109a1.365,1.365,0,0,1-1.277.878v.583a.194.194,0,0,1-.193.193h-.386a.194.194,0,0,1-.193-.193v-.58a1.712,1.712,0,0,1-1.045-.363.2.2,0,0,1-.022-.3l.42-.411a.188.188,0,0,1,.236-.024.74.74,0,0,0,.413.127h.8a.356.356,0,0,0,.1-.7l-1.238-.362A1.383,1.383,0,0,1,349.7,648.8a1.324,1.324,0,0,1,1.317-1.445h.03v-.58a.194.194,0,0,1,.193-.193h.386a.194.194,0,0,1,.193.193v.58a1.713,1.713,0,0,1,1.045.362.2.2,0,0,1,.021.3l-.42.411a.188.188,0,0,1-.236.024.74.74,0,0,0-.413-.127h-.8a.356.356,0,0,0-.1.7l1.3.382A1.327,1.327,0,0,1,353.1,651.109Z" transform="translate(-349.698 -646.577)" fill="#fff"/>
        </g>
      </g>
    </g>
  </g>
</svg>
