<svg xmlns="http://www.w3.org/2000/svg" xmlns:xlink="http://www.w3.org/1999/xlink" viewBox="0 0 260 29.113">
  <defs>
    <linearGradient id="linear-gradient" x1="0.072" y1="0.065" x2="0.727" y2="0.612" gradientUnits="objectBoundingBox">
      <stop offset="0" stop-color="#f8003c"/>
      <stop offset="1" stop-color="#ff8438"/>
    </linearGradient>
    <linearGradient id="linear-gradient-2" y1="0.5" x2="1" y2="0.5" gradientUnits="objectBoundingBox">
      <stop offset="0" stop-color="#00d5c9"/>
      <stop offset="0.835" stop-color="#0099ac"/>
    </linearGradient>
  </defs>
  <g id="logo" transform="translate(-340.605 -882.757)">
    <path id="Path_1892" data-name="Path 1892" d="M343.892,900.319a1.031,1.031,0,0,1,1.033.82.981.981,0,0,1-.966,1.151h-1.342a1.016,1.016,0,0,0-1.019.816.981.981,0,0,0,.967,1.145h.169v5.8a2.443,2.443,0,0,0,2.443,2.443h3.269a1.053,1.053,0,0,1,.765.329l4.7,4.969a.416.416,0,0,0,.718-.286v-4.254a.758.758,0,0,1,.758-.758h13.72a2.442,2.442,0,0,0,2.442-2.443V898.346H350.39a2.619,2.619,0,0,1-2.619-2.62v-1.57h-2.594a2.443,2.443,0,0,0-2.443,2.443v1.163a.585.585,0,0,1-.585.585h-.511a1.017,1.017,0,0,0-1.019.811.99.99,0,0,0,.966,1.16Z" transform="translate(0 -6.053)" fill="url(#linear-gradient)"/>
    <g id="Group_499" data-name="Group 499" transform="translate(388.245 889.018)">
      <path id="Path_1893" data-name="Path 1893" d="M458.4,909.594l-3.452-12.664h-2.735L448.645,909.6l-3.384-12.6-.023-.088-3.059.026,4.757,16.65h3.344l3.195-11.753,3.263,11.753h3.344l4.715-16.5.043-.149H461.85Z" transform="translate(-442.179 -896.531)" fill="#252525"/>
      <path id="Path_1894" data-name="Path 1894" d="M503.68,897.615a6.728,6.728,0,0,0-3.031-.657h-6.59v16.651h2.932v-5.957h3.658a6.722,6.722,0,0,0,3.031-.657,4.842,4.842,0,0,0,2.042-1.874,5.865,5.865,0,0,0,0-5.631A4.85,4.85,0,0,0,503.68,897.615Zm-6.69,1.922h3.447a3.171,3.171,0,0,1,2.219.743,2.913,2.913,0,0,1-.012,4.036,3.183,3.183,0,0,1-2.231.755h-3.424Z" transform="translate(-469.726 -896.559)" fill="#252525"/>
      <path id="Path_1895" data-name="Path 1895" d="M547.207,906.6a5.425,5.425,0,0,1-.9,3.409,3.357,3.357,0,0,1-2.781,1.117,3.3,3.3,0,0,1-2.746-1.116,5.482,5.482,0,0,1-.889-3.41v-9.639h-2.932v9.5a7.9,7.9,0,0,0,1.672,5.425,6.262,6.262,0,0,0,4.895,1.869,6.332,6.332,0,0,0,4.93-1.868,7.869,7.869,0,0,0,1.684-5.426v-9.5h-2.931Z" transform="translate(-492.505 -896.559)" fill="#252525"/>
      <rect id="Rectangle_403" data-name="Rectangle 403" width="2.767" height="16.651" transform="translate(60.048 0.399)" fill="#252525"/>
      <path id="Path_1896" data-name="Path 1896" d="M583.924,910.863a1.322,1.322,0,0,1-.249-.915V903.8h1.97l.938-2.463h-2.908v-4.432l-2.767.938v12.359a3.542,3.542,0,0,0,.807,2.543,3.463,3.463,0,0,0,2.57.833h2.556V911.12H584.8A1.2,1.2,0,0,1,583.924,910.863Z" transform="translate(-515.842 -896.532)" fill="#252525"/>
      <path id="Path_1897" data-name="Path 1897" d="M597.072,896.107a1.637,1.637,0,0,0-1.184.468,1.673,1.673,0,0,0,0,2.348,1.732,1.732,0,0,0,2.368,0,1.673,1.673,0,0,0,0-2.348A1.637,1.637,0,0,0,597.072,896.107Z" transform="translate(-523.54 -896.107)" fill="#252525"/>
      <rect id="Rectangle_404" data-name="Rectangle 404" width="2.767" height="12.242" transform="translate(72.148 4.808)" fill="#252525"/>
      <path id="Path_1898" data-name="Path 1898" d="M620.685,906.058a5.179,5.179,0,0,0-2.543.589,4.62,4.62,0,0,0-1.6,1.472,3.612,3.612,0,0,0-1.433-1.507,4.615,4.615,0,0,0-2.286-.554,4.379,4.379,0,0,0-3.446,1.556l-.254-1.415-2.42.938v11.3h2.767V911.9a3.945,3.945,0,0,1,.737-2.507,2.351,2.351,0,0,1,1.96-.917,2.17,2.17,0,0,1,1.8.765,3.709,3.709,0,0,1,.62,2.331v6.872h2.791v-6.614a3.8,3.8,0,0,1,.735-2.47,2.443,2.443,0,0,1,1.985-.883,2.1,2.1,0,0,1,1.784.775,3.771,3.771,0,0,1,.609,2.321v6.872h2.767v-6.9a5.842,5.842,0,0,0-1.276-4.174A4.416,4.416,0,0,0,620.685,906.058Z" transform="translate(-529.54 -901.391)" fill="#252525"/>
      <path id="Path_1899" data-name="Path 1899" d="M660.562,915.275v-4.737a4.156,4.156,0,0,0-1.354-3.325,5.7,5.7,0,0,0-3.805-1.154,6.378,6.378,0,0,0-3.75,1.018,3.874,3.874,0,0,0-1.644,2.887l-.013.129h2.715l.017-.1a1.762,1.762,0,0,1,.806-1.2,3.092,3.092,0,0,1,1.752-.461,2.9,2.9,0,0,1,1.873.548,1.806,1.806,0,0,1,.66,1.492v.609H654.91A6.383,6.383,0,0,0,651.017,912a3.488,3.488,0,0,0-1.36,2.943,3.2,3.2,0,0,0,1.266,2.672,5.3,5.3,0,0,0,3.308.962,4.579,4.579,0,0,0,3.865-1.837,1.851,1.851,0,0,0,.534,1.172,2.514,2.514,0,0,0,1.77.525h1.454V916h-.61C660.778,916,660.562,915.771,660.562,915.275Zm-5.98,1.1a2.474,2.474,0,0,1-1.558-.444,1.38,1.38,0,0,1-.553-1.151,1.436,1.436,0,0,1,.585-1.254,2.954,2.954,0,0,1,1.737-.435h3.026v.3a2.95,2.95,0,0,1-.867,2.169A3.3,3.3,0,0,1,654.582,916.377Z" transform="translate(-552.346 -901.391)" fill="#252525"/>
      <path id="Path_1900" data-name="Path 1900" d="M680.433,910.81a1.323,1.323,0,0,1-.249-.916v-6.145h2.885v-2.462h-2.885v-4.479l-2.791.938v3.541h-1.15l-.938,2.462h2.088v6.4a2.952,2.952,0,0,0,3.4,3.377h1.618l.938-2.462h-2.04A1.2,1.2,0,0,1,680.433,910.81Z" transform="translate(-565.965 -896.479)" fill="#252525"/>
      <path id="Path_1901" data-name="Path 1901" d="M702.429,906.776a6.571,6.571,0,0,0-3.116-.718,6.117,6.117,0,0,0-3.1.778,5.415,5.415,0,0,0-2.109,2.2,6.988,6.988,0,0,0-.752,3.3,6.7,6.7,0,0,0,.776,3.27,5.468,5.468,0,0,0,2.2,2.192,6.862,6.862,0,0,0,3.328.777,5.661,5.661,0,0,0,3.674-1.2,4.994,4.994,0,0,0,1.813-3.073l.024-.138h-2.764l-.023.088a2.507,2.507,0,0,1-1.008,1.492,3.289,3.289,0,0,1-1.9.53,3.058,3.058,0,0,1-2.285-.879,3.645,3.645,0,0,1-.951-2.4v-.023h9.036l.014-.1a6.822,6.822,0,0,0,.072-.98,6.147,6.147,0,0,0-.8-3.083A5.366,5.366,0,0,0,702.429,906.776Zm-6.078,4.114a2.847,2.847,0,0,1,.986-1.822,3.117,3.117,0,0,1,2.07-.735,3.23,3.23,0,0,1,2.141.711,2.915,2.915,0,0,1,.984,1.845Z" transform="translate(-575.55 -901.391)" fill="#252525"/>
      <path id="Path_1902" data-name="Path 1902" d="M747.7,905.257a5.048,5.048,0,0,0,.89-2.952,5.365,5.365,0,0,0-.733-2.816,4.926,4.926,0,0,0-2.053-1.874,6.779,6.779,0,0,0-3.054-.657h-6.59v16.651h2.931v-5.957h3.47l3.119,5.957h3.268l-3.5-6.6A4.778,4.778,0,0,0,747.7,905.257Zm-8.609-5.719h3.447a3.186,3.186,0,0,1,2.231.755,2.883,2.883,0,0,1,0,4.025,3.183,3.183,0,0,1-2.231.755h-3.447Z" transform="translate(-598.276 -896.559)" fill="#252525"/>
      <path id="Path_1903" data-name="Path 1903" d="M773.779,906.776a6.571,6.571,0,0,0-3.115-.718,6.119,6.119,0,0,0-3.1.778,5.411,5.411,0,0,0-2.109,2.2,6.987,6.987,0,0,0-.753,3.3,6.705,6.705,0,0,0,.777,3.27,5.47,5.47,0,0,0,2.2,2.192,6.862,6.862,0,0,0,3.327.777,5.663,5.663,0,0,0,3.674-1.2,4.991,4.991,0,0,0,1.812-3.073l.025-.138h-2.764l-.022.088a2.507,2.507,0,0,1-1.008,1.492,3.288,3.288,0,0,1-1.9.53,3.057,3.057,0,0,1-2.285-.879,3.644,3.644,0,0,1-.952-2.4v-.023h9.037l.014-.1a6.838,6.838,0,0,0,.072-.98,6.141,6.141,0,0,0-.8-3.083A5.361,5.361,0,0,0,773.779,906.776Zm-6.077,4.114a2.846,2.846,0,0,1,.985-1.822,3.118,3.118,0,0,1,2.07-.735,3.232,3.232,0,0,1,2.141.711,2.916,2.916,0,0,1,.984,1.845Z" transform="translate(-613.435 -901.391)" fill="#252525"/>
      <path id="Path_1904" data-name="Path 1904" d="M796.692,915.411l-3.2-8.975-.027-.078H790.5l4.491,12.166.028.076h3.259l4.519-12.242h-2.924Z" transform="translate(-627.13 -901.55)" fill="#252525"/>
      <rect id="Rectangle_405" data-name="Rectangle 405" width="2.767" height="12.008" transform="translate(176.668 5.043)" fill="#252525"/>
      <path id="Path_1905" data-name="Path 1905" d="M819.922,896.707a1.64,1.64,0,0,0-1.185.468,1.675,1.675,0,0,0,0,2.349,1.734,1.734,0,0,0,2.368,0,1.675,1.675,0,0,0,0-2.348A1.636,1.636,0,0,0,819.922,896.707Z" transform="translate(-641.87 -896.426)" fill="#252525"/>
      <path id="Path_1906" data-name="Path 1906" d="M837.678,906.776a6.569,6.569,0,0,0-3.116-.718,6.117,6.117,0,0,0-3.095.778,5.417,5.417,0,0,0-2.109,2.2,6.986,6.986,0,0,0-.752,3.3,6.7,6.7,0,0,0,.776,3.27,5.467,5.467,0,0,0,2.2,2.192,6.866,6.866,0,0,0,3.328.777,5.656,5.656,0,0,0,3.673-1.2,5,5,0,0,0,1.813-3.073l.025-.138h-2.764l-.022.089a2.5,2.5,0,0,1-1.009,1.492,3.278,3.278,0,0,1-1.9.53,3.059,3.059,0,0,1-2.285-.879,3.638,3.638,0,0,1-.951-2.4v-.023h9.036l.014-.1a6.963,6.963,0,0,0,.072-.98,6.142,6.142,0,0,0-.8-3.083A5.361,5.361,0,0,0,837.678,906.776Zm-6.077,4.114a2.843,2.843,0,0,1,.986-1.822,3.118,3.118,0,0,1,2.071-.735,3.229,3.229,0,0,1,2.14.711,2.917,2.917,0,0,1,.985,1.845Z" transform="translate(-647.365 -901.391)" fill="#252525"/>
      <path id="Path_1907" data-name="Path 1907" d="M870.784,906.358l-2.747,8.9-2.542-8.9H863l-2.656,8.9-2.632-8.817-.025-.084h-2.922l3.967,12.184.027.082,2.914-.025,2.54-7.889,2.423,7.807.025.083h2.892l4.065-12.242Z" transform="translate(-661.253 -901.55)" fill="#252525"/>
    </g>
    <rect id="Rectangle_406" data-name="Rectangle 406" width="31.434" height="8.226" rx="2.793" transform="translate(349.08 882.757)" fill="url(#linear-gradient-2)"/>
    <g id="Group_500" data-name="Group 500" transform="translate(351.559 884.664)">
      <path id="Path_1908" data-name="Path 1908" d="M366.143,886.823l.674,1.366,1.507.219-1.091,1.063.257,1.5-1.348-.709-1.348.709.257-1.5-1.091-1.063,1.507-.219Z" transform="translate(-363.961 -886.823)" fill="#fff"/>
      <path id="Path_1909" data-name="Path 1909" d="M377.93,886.823l.674,1.366,1.507.219-1.091,1.063.258,1.5-1.348-.709-1.348.709.257-1.5-1.091-1.063,1.507-.219Z" transform="translate(-370.22 -886.823)" fill="#fff"/>
      <path id="Path_1910" data-name="Path 1910" d="M389.717,886.823l.674,1.366,1.507.219-1.091,1.063.258,1.5-1.348-.709-1.348.709.258-1.5-1.091-1.063,1.507-.219Z" transform="translate(-376.479 -886.823)" fill="#fff"/>
      <path id="Path_1911" data-name="Path 1911" d="M401.5,886.823l.674,1.366,1.507.219-1.091,1.063.258,1.5-1.348-.709-1.348.709.257-1.5-1.091-1.063,1.507-.219Z" transform="translate(-382.737 -886.823)" fill="#fff"/>
      <path id="Path_1912" data-name="Path 1912" d="M413.291,886.823l.674,1.366,1.507.219-1.091,1.063.258,1.5-1.348-.709-1.348.709.258-1.5-1.091-1.063,1.507-.219Z" transform="translate(-388.996 -886.823)" fill="#fff"/>
    </g>
    <g id="Group_501" data-name="Group 501" transform="translate(349.066 895.903)">
      <rect id="Rectangle_407" data-name="Rectangle 407" width="16.664" height="2.01" rx="1.005" transform="translate(0 0)" fill="#fff"/>
      <rect id="Rectangle_408" data-name="Rectangle 408" width="10.783" height="2.01" rx="1.005" transform="translate(0 4.981)" fill="#fff"/>
    </g>
  </g>
</svg>
