<svg xmlns="http://www.w3.org/2000/svg" xmlns:xlink="http://www.w3.org/1999/xlink" width="160" height="29.292" viewBox="0 0 160 29.292">
  <defs>
    <linearGradient id="linear-gradient" x1="0.171" y1="0.051" x2="0.648" y2="0.75" gradientUnits="objectBoundingBox">
      <stop offset="0" stop-color="#f8003c"/>
      <stop offset="1" stop-color="#ff8438"/>
    </linearGradient>
    <linearGradient id="linear-gradient-2" x1="0.603" y1="-0.006" x2="0.445" y2="1.053" gradientUnits="objectBoundingBox">
      <stop offset="0.073" stop-color="#00d5c9"/>
      <stop offset="0.634" stop-color="#0099ac"/>
    </linearGradient>
  </defs>
  <g id="logo" transform="translate(-340.057 -766.793)">
    <g id="Group_497" data-name="Group 497" transform="translate(377.095 771.58)">
      <path id="Path_1878" data-name="Path 1878" d="M427.1,791.091,423.1,776.444h-3.163l-4.125,14.651L411.9,776.517l-.027-.1-3.538.03,5.5,19.257h3.868l3.7-13.593,3.774,13.593h3.867l5.453-19.085.049-.173h-3.457Z" transform="translate(-408.337 -775.983)" fill="#252525"/>
      <path id="Path_1879" data-name="Path 1879" d="M471.344,777.228a7.77,7.77,0,0,0-3.505-.76h-7.622v19.258h3.391v-6.89h4.231a7.777,7.777,0,0,0,3.505-.76,5.6,5.6,0,0,0,2.361-2.168,6.784,6.784,0,0,0,0-6.513A5.6,5.6,0,0,0,471.344,777.228Zm-7.736,2.223h3.987a3.668,3.668,0,0,1,2.566.86,3.371,3.371,0,0,1-.014,4.669,3.685,3.685,0,0,1-2.58.873h-3.96Z" transform="translate(-432.074 -776.006)" fill="#252525"/>
      <path id="Path_1880" data-name="Path 1880" d="M513.837,784.941a15.829,15.829,0,0,0-3.2-.876c-1.2-.214-2.134-.414-2.781-.594a3.591,3.591,0,0,1-1.5-.782,1.76,1.76,0,0,1-.54-1.366,2.207,2.207,0,0,1,.935-1.911,4.293,4.293,0,0,1,2.565-.693,4.248,4.248,0,0,1,2.736.865,3.276,3.276,0,0,1,1.225,2.269l.014.121h3.328l-.007-.142a5.846,5.846,0,0,0-1.027-3.109A6.42,6.42,0,0,0,513,776.59a9.222,9.222,0,0,0-7.262-.055,5.782,5.782,0,0,0-2.443,2.028,5.245,5.245,0,0,0-.878,2.977,4.724,4.724,0,0,0,.855,2.93,5.13,5.13,0,0,0,2.2,1.658,16.251,16.251,0,0,0,3.187.862,27.418,27.418,0,0,1,2.806.62,3.729,3.729,0,0,1,1.532.823,1.859,1.859,0,0,1,.541,1.407,2.24,2.24,0,0,1-1.013,1.964,4.71,4.71,0,0,1-2.73.722,4.779,4.779,0,0,1-3.128-.987,3.62,3.62,0,0,1-1.321-2.6l-.01-.123-3.328-.059,0,.14a6.2,6.2,0,0,0,1.013,3.4,6.616,6.616,0,0,0,2.726,2.312,9.285,9.285,0,0,0,4.018.827,8.677,8.677,0,0,0,3.692-.758,6.13,6.13,0,0,0,2.551-2.122,5.426,5.426,0,0,0,.918-3.087,4.507,4.507,0,0,0-.871-2.878A5.4,5.4,0,0,0,513.837,784.941Z" transform="translate(-451.198 -775.709)" fill="#252525"/>
      <path id="Path_1881" data-name="Path 1881" d="M543.549,786.18a8.241,8.241,0,0,0-7.536,0,6.4,6.4,0,0,0-2.548,2.563,8.407,8.407,0,0,0,0,7.562,6.3,6.3,0,0,0,2.549,2.549,8.353,8.353,0,0,0,7.535,0,6.3,6.3,0,0,0,2.55-2.549,8.412,8.412,0,0,0,0-7.562A6.4,6.4,0,0,0,543.549,786.18Zm-3.768,10.806a3.6,3.6,0,0,1-2.854-1.242,5.385,5.385,0,0,1,0-6.468,3.6,3.6,0,0,1,2.854-1.242,3.638,3.638,0,0,1,2.868,1.242,5.333,5.333,0,0,1,0,6.467A3.638,3.638,0,0,1,539.781,796.986Z" transform="translate(-465.178 -780.033)" fill="#252525"/>
      <path id="Path_1882" data-name="Path 1882" d="M569.118,788.034a3.326,3.326,0,0,1,2.113.677,3.262,3.262,0,0,1,1.146,1.825l.025.1h3.278l-.027-.158a6.13,6.13,0,0,0-2.109-3.811,6.614,6.614,0,0,0-4.345-1.4,7.612,7.612,0,0,0-3.741.9,6.282,6.282,0,0,0-2.508,2.536,7.839,7.839,0,0,0-.884,3.781,8.1,8.1,0,0,0,.87,3.806,6.169,6.169,0,0,0,2.481,2.564,7.469,7.469,0,0,0,3.7.9,6.769,6.769,0,0,0,4.4-1.4,6.119,6.119,0,0,0,2.137-3.866l.027-.158h-3.253l-.023.106a3.206,3.206,0,0,1-1.119,1.863,3.676,3.676,0,0,1-4.9-.551,4.954,4.954,0,0,1-1.04-3.263,4.859,4.859,0,0,1,1.04-3.222A3.4,3.4,0,0,1,569.118,788.034Z" transform="translate(-478.675 -780.033)" fill="#252525"/>
      <g id="Group_496" data-name="Group 496" transform="translate(98.742)">
        <path id="Path_1883" data-name="Path 1883" d="M592.291,779.415a1.894,1.894,0,0,0,1.37-.541,1.935,1.935,0,0,0,0-2.716,2,2,0,0,0-2.739,0,1.936,1.936,0,0,0,0,2.716A1.893,1.893,0,0,0,592.291,779.415Z" transform="translate(-590.366 -775.617)" fill="#252525"/>
        <rect id="Rectangle_401" data-name="Rectangle 401" width="3.2" height="14.159" transform="translate(0.325 5.561)" fill="#252525"/>
      </g>
      <path id="Path_1884" data-name="Path 1884" d="M613.277,795.928v-5.479a4.807,4.807,0,0,0-1.566-3.846,6.592,6.592,0,0,0-4.4-1.335,7.375,7.375,0,0,0-4.337,1.178,4.478,4.478,0,0,0-1.9,3.338l-.015.15H604.2l.02-.112a2.039,2.039,0,0,1,.932-1.39,3.58,3.58,0,0,1,2.026-.533,3.351,3.351,0,0,1,2.166.634,2.088,2.088,0,0,1,.764,1.726v.705H606.74a7.382,7.382,0,0,0-4.5,1.181,4.034,4.034,0,0,0-1.573,3.4,3.7,3.7,0,0,0,1.464,3.091,6.135,6.135,0,0,0,3.825,1.113,5.294,5.294,0,0,0,4.47-2.125,2.137,2.137,0,0,0,.617,1.355,2.905,2.905,0,0,0,2.047.608h1.682v-2.821h-.705C613.527,796.769,613.277,796.5,613.277,795.928ZM606.36,797.2a2.862,2.862,0,0,1-1.8-.513,1.6,1.6,0,0,1-.64-1.331,1.66,1.66,0,0,1,.676-1.45,3.417,3.417,0,0,1,2.009-.5h3.5v.35a3.415,3.415,0,0,1-1,2.508A3.811,3.811,0,0,1,606.36,797.2Z" transform="translate(-496.336 -780.033)" fill="#252525"/>
      <rect id="Rectangle_402" data-name="Rectangle 402" width="3.2" height="19.258" transform="translate(119.761 0.461)" fill="#252525"/>
    </g>
    <g id="Group_498" data-name="Group 498" transform="translate(340.057 766.793)">
      <path id="Path_1885" data-name="Path 1885" d="M382.788,781.592A14.639,14.639,0,0,1,372.742,795.5c3.231-1.214,10.778-10.22,3.572-17.4A8.283,8.283,0,0,0,375,776.991l-.018-.012a10.192,10.192,0,0,0-3.846-1.542h0c-.067-.013-.136-.024-.2-.036a11.412,11.412,0,0,0-1.5-.15c4.576-.012,5-7.1,1.025-8.122h0a14.529,14.529,0,0,1,1.589.344q.295.081.584.174A14.653,14.653,0,0,1,382.788,781.592Z" transform="translate(-353.496 -766.946)" fill="url(#linear-gradient)"/>
      <path id="Path_1886" data-name="Path 1886" d="M359.3,795.348a14.649,14.649,0,1,1-4.6-28.555,14.819,14.819,0,0,1,2.311.181h0c3.978,1.025,3.551,8.109-1.025,8.122h0q-.2-.008-.411-.008c-.274,0-.544.009-.812.028-3.8.263-6.937,2.352-7.958,5.14h0c-1.5,3.6.424,9.7,8.77,9.106.23,0,.457-.006.682-.02C360.128,789.435,361.984,793.115,359.3,795.348Z" transform="translate(-340.057 -766.793)" fill="url(#linear-gradient-2)"/>
      <path id="Path_1887" data-name="Path 1887" d="M364.6,802.346c2.681-2.233.825-5.913-3.046-6-.225.014-.452.02-.682.02-8.346.591-10.275-5.5-8.77-9.106h0c1.093-2.984,4.605-5.168,8.77-5.168a11.562,11.562,0,0,1,1.3.072,11.052,11.052,0,0,1,1.71.324,9.354,9.354,0,0,1,4.3,2.461C375.378,792.126,367.832,801.131,364.6,802.346Z" transform="translate(-345.354 -773.79)" fill="#f2f2f2"/>
      <path id="Path_1888" data-name="Path 1888" d="M364.369,806.917q-.458.153-.931.273c1.857-1.577.429-4.518-3.02-5.05-.226-.015-.452-.039-.68-.068-8.352-.493-9.655-6.48-7.966-9.994-.016.042-.03.083-.043.125s-.023.065-.033.1-.023.074-.034.111l-.03.1c-.008.029-.016.059-.023.089s-.017.066-.025.1a6.256,6.256,0,0,0-.129.7c0,.026-.006.052-.009.079s-.008.075-.011.113-.009.093-.012.139c0,.031,0,.061-.007.091s0,.08-.006.121,0,.094,0,.14c-.073,3.416,2.478,7.32,9.236,6.843.23,0,.457-.006.682-.02C365.194,801,367.051,804.685,364.369,806.917Z" transform="translate(-345.123 -778.362)" opacity="0.2" style="mix-blend-mode: multiply;isolation: isolate"/>
      <path id="Path_1889" data-name="Path 1889" d="M371.132,775.436h0c-.067-.013-.136-.024-.2-.036a11.412,11.412,0,0,0-1.5-.15c4.576-.012,5-7.1,1.025-8.122h0q.619.1,1.221.248a2.585,2.585,0,0,1,.855.383C375.388,769.74,374.516,774.984,371.132,775.436Z" transform="translate(-353.496 -766.946)" opacity="0.2" style="mix-blend-mode: multiply;isolation: isolate"/>
      <circle id="Ellipse_227" data-name="Ellipse 227" cx="0.917" cy="0.917" r="0.917" transform="translate(10.843 15.436)" fill="#0099ac"/>
      <circle id="Ellipse_228" data-name="Ellipse 228" cx="0.917" cy="0.917" r="0.917" transform="translate(15.016 15.436)" fill="#f8003c"/>
      <circle id="Ellipse_229" data-name="Ellipse 229" cx="0.917" cy="0.917" r="0.917" transform="translate(19.189 15.436)" fill="#252525"/>
      <path id="Path_1890" data-name="Path 1890" d="M355.99,775.1h0q-.2-.008-.411-.008c-.275,0-.545.014-.812.028-9.157.493-13.457,6.776-13.862,11.234a14.657,14.657,0,0,1,13.8-19.558,14.819,14.819,0,0,1,2.311.181h0C360.993,768,360.566,775.084,355.99,775.1Z" transform="translate(-340.057 -766.793)" fill="#fff" opacity="0.06" style="mix-blend-mode: screen;isolation: isolate"/>
      <path id="Path_1891" data-name="Path 1891" d="M346.847,795.744a14.65,14.65,0,0,1-.031-24.707C341.059,778.648,342.825,790.746,346.847,795.744Z" transform="translate(-340.057 -768.735)" fill="#fff" opacity="0.06" style="mix-blend-mode: screen;isolation: isolate"/>
    </g>
  </g>
</svg>
