<?xml version="1.0"?>
<svg xmlns="http://www.w3.org/2000/svg" height="512px" viewBox="0 0 512 512" width="512px" class=""><g><path d="m240 48h48v16h-48zm0 0" data-original="#000000" class="active-path" data-old_color="#000000" fill="#FFFBFB"/><path d="m304 48h80v16h-80zm0 0" data-original="#000000" class="active-path" data-old_color="#000000" fill="#FFFBFB"/><path d="m240 80h144v16h-144zm0 0" data-original="#000000" class="active-path" data-old_color="#000000" fill="#FFFBFB"/><path d="m240 112h32v16h-32zm0 0" data-original="#000000" class="active-path" data-old_color="#000000" fill="#FFFBFB"/><path d="m288 112h48v16h-48zm0 0" data-original="#000000" class="active-path" data-old_color="#000000" fill="#FFFBFB"/><path d="m112 96h48v16h-48zm0 0" data-original="#000000" class="active-path" data-old_color="#000000" fill="#FFFBFB"/><path d="m176 96h24v16h-24zm0 0" data-original="#000000" class="active-path" data-old_color="#000000" fill="#FFFBFB"/><path d="m112 128h88v16h-88zm0 0" data-original="#000000" class="active-path" data-old_color="#000000" fill="#FFFBFB"/><path d="m112 160h32v16h-32zm0 0" data-original="#000000" class="active-path" data-old_color="#000000" fill="#FFFBFB"/><path d="m160 160h40v16h-40zm0 0" data-original="#000000" class="active-path" data-old_color="#000000" fill="#FFFBFB"/><path d="m488 272h-224v-8c0-4.417969 3.582031-8 8-8h168c22.082031-.027344 39.972656-17.917969 40-40v-96c-.027344-22.082031-17.917969-39.972656-40-40h-8v-80h-240v48h-128v77.039062l-57.390625 66.960938h57.390625v32h224v-48h13.441406l66.558594 47.542969v-47.542969h64v-80h8c13.253906 0 24 10.746094 24 24v96c0 13.253906-10.746094 24-24 24h-168c-13.253906 0-24 10.746094-24 24v8h-224c-13.253906 0-24 10.746094-24 24v192c0 13.253906 10.746094 24 24 24h464c13.253906 0 24-10.746094 24-24v-192c0-13.253906-10.746094-24-24-24zm-216-64h-192v-32h-38.609375l38.609375-45.039062v-66.960938h112v112h80zm144-48h-64v32.457031l-45.441406-32.457031h-98.558594v-144h208zm80 328c0 4.417969-3.582031 8-8 8h-464c-4.417969 0-8-3.582031-8-8v-192c0-4.417969 3.582031-8 8-8h464c4.417969 0 8 3.582031 8 8zm0 0" data-original="#000000" class="active-path" data-old_color="#000000" fill="#FFFBFB"/><path d="m416 480h64v-112h-64zm16-96h32v80h-32zm0 0" data-original="#000000" class="active-path" data-old_color="#000000" fill="#FFFBFB"/><path d="m376 432h-256c-13.253906 0-24 10.746094-24 24s10.746094 24 24 24h256c13.253906 0 24-10.746094 24-24s-10.746094-24-24-24zm0 32h-256c-4.417969 0-8-3.582031-8-8s3.582031-8 8-8h256c4.417969 0 8 3.582031 8 8s-3.582031 8-8 8zm0 0" data-original="#000000" class="active-path" data-old_color="#000000" fill="#FFFBFB"/><path d="m32 480h48v-48h-48zm16-32h16v16h-16zm0 0" data-original="#000000" class="active-path" data-old_color="#000000" fill="#FFFBFB"/><path d="m32 416h48v-48h-48zm16-32h16v16h-16zm0 0" data-original="#000000" class="active-path" data-old_color="#000000" fill="#FFFBFB"/><path d="m144 368h-48v48h48zm-16 32h-16v-16h16zm0 0" data-original="#000000" class="active-path" data-old_color="#000000" fill="#FFFBFB"/><path d="m208 368h-48v48h48zm-16 32h-16v-16h16zm0 0" data-original="#000000" class="active-path" data-old_color="#000000" fill="#FFFBFB"/><path d="m272 368h-48v48h48zm-16 32h-16v-16h16zm0 0" data-original="#000000" class="active-path" data-old_color="#000000" fill="#FFFBFB"/><path d="m336 368h-48v48h48zm-16 32h-16v-16h16zm0 0" data-original="#000000" class="active-path" data-old_color="#000000" fill="#FFFBFB"/><path d="m352 416h48v-48h-48zm16-32h16v16h-16zm0 0" data-original="#000000" class="active-path" data-old_color="#000000" fill="#FFFBFB"/><path d="m32 352h48v-48h-48zm16-32h16v16h-16zm0 0" data-original="#000000" class="active-path" data-old_color="#000000" fill="#FFFBFB"/><path d="m144 304h-48v48h48zm-16 32h-16v-16h16zm0 0" data-original="#000000" class="active-path" data-old_color="#000000" fill="#FFFBFB"/><path d="m208 304h-48v48h48zm-16 32h-16v-16h16zm0 0" data-original="#000000" class="active-path" data-old_color="#000000" fill="#FFFBFB"/><path d="m272 304h-48v48h48zm-16 32h-16v-16h16zm0 0" data-original="#000000" class="active-path" data-old_color="#000000" fill="#FFFBFB"/><path d="m336 304h-48v48h48zm-16 32h-16v-16h16zm0 0" data-original="#000000" class="active-path" data-old_color="#000000" fill="#FFFBFB"/><path d="m352 352h128v-48h-128zm16-32h96v16h-96zm0 0" data-original="#000000" class="active-path" data-old_color="#000000" fill="#FFFBFB"/></g> </svg>
