<svg xmlns="http://www.w3.org/2000/svg" width="512" height="512" viewBox="0 0 64 64"><path fill="#fff" d="M32 0C14.355 0 0 14.355 0 32s14.355 32 32 32 32-14.355 32-32S49.645 0 32 0zm28 32.004c-7.77-2.025-14.551-2.107-20.402-.996a131.866 131.866 0 0 0-2.625-5.68c6.141-2.469 11.957-6.104 16.438-11.338C57.516 18.863 60 25.145 60 32v.004zm-9.377-20.856c-4.102 4.898-9.635 8.254-15.5 10.549-4.115-7.799-8.133-13.666-10.357-16.715C27.078 4.361 29.496 4 32 4c7.154 0 13.668 2.719 18.623 7.148zM20.797 6.357c1.805 2.428 6.051 8.42 10.463 16.695-10.928 3.404-22.115 3.586-26.715 3.482 1.801-9.061 7.99-16.554 16.252-20.177zM4 32c0-.494.051-.975.074-1.463a82.43 82.43 0 0 0 2.758.045c5.844 0 16.168-.574 26.307-3.873a136.305 136.305 0 0 1 2.475 5.273c-13.445 4.045-21.23 14.258-24.189 18.941C6.832 45.934 4 39.299 4 32zm10.359 21.717c2.188-3.807 9.328-14.383 22.787-18.129 2.717 6.684 5.047 14.113 6.346 21.918A27.809 27.809 0 0 1 32 60c-6.684 0-12.82-2.361-17.641-6.283zm32.85 1.76c-1.342-7.398-3.529-14.406-6.057-20.752 5.309-.842 11.461-.604 18.52 1.334-1.188 8.125-5.856 15.123-12.463 19.418z" data-original="#1D1D1B" class="active-path" data-old_color="#ffffff"/></svg>