<svg xmlns="http://www.w3.org/2000/svg" viewBox="0 0 496 496"><path d="M362.352 0H133.616C61.184 0 0 61.2 0 133.632v228.752C0 434.816 61.184 496 133.616 496h228.736C434.8 496 496 434.816 496 362.384V133.632C496 61.2 434.784 0 362.352 0zM464 362.384C464 416.512 416.496 464 362.352 464H133.616C79.488 464 32 416.512 32 362.384V133.632C32 79.488 79.488 32 133.616 32h228.736C416.512 32 464 79.504 464 133.632v228.752z"/><path d="M403.968 216a159.41 159.41 0 0 0-9.28-29.888c-4.032-9.504-8.976-18.608-14.656-26.992a159.1 159.1 0 0 0-19.392-23.552 163.45 163.45 0 0 0-23.472-19.36c-8.4-5.696-17.504-10.64-27.04-14.688a162.574 162.574 0 0 0-16.144-5.808 158.365 158.365 0 0 0-13.744-3.456c-21.056-4.304-42.96-4.304-63.984 0-10.176 2.08-20.224 5.2-29.92 9.28a157.228 157.228 0 0 0-26.992 14.672 161.974 161.974 0 0 0-23.552 19.408 161.995 161.995 0 0 0-19.344 23.472 156.65 156.65 0 0 0-14.656 27.008c-4.032 9.52-7.168 19.584-9.312 29.952A161.399 161.399 0 0 0 89.28 248c0 10.672 1.072 21.424 3.216 32.064 2.128 10.272 5.248 20.32 9.28 29.84 4 9.44 8.928 18.528 14.672 27.024a162.843 162.843 0 0 0 19.376 23.488 159.692 159.692 0 0 0 23.536 19.392 159.228 159.228 0 0 0 26.992 14.656 159.78 159.78 0 0 0 29.872 9.28c10.432 2.144 21.2 3.232 32.016 3.232 10.8 0 21.584-1.088 32.048-3.248 10.32-2.144 20.368-5.264 29.84-9.28a157.747 157.747 0 0 0 27.056-14.672 162.333 162.333 0 0 0 23.536-19.408c7.248-7.296 13.76-15.2 19.312-23.456a159.852 159.852 0 0 0 14.672-27.024 157.161 157.161 0 0 0 9.264-29.872 159.17 159.17 0 0 0 3.248-32.032c0-10.784-1.104-21.552-3.248-31.984zm-31.376 57.6a125.505 125.505 0 0 1-7.376 23.808c-3.232 7.616-7.168 14.88-11.728 21.6-4.448 6.624-9.664 12.944-15.456 18.768a128.977 128.977 0 0 1-18.8 15.504 127.025 127.025 0 0 1-21.584 11.712 125.777 125.777 0 0 1-23.84 7.408c-16.624 3.424-34.512 3.424-51.12 0-8.24-1.696-16.272-4.176-23.888-7.408a124.908 124.908 0 0 1-21.536-11.696 127.317 127.317 0 0 1-18.784-15.472 129.71 129.71 0 0 1-15.536-18.832 126.2 126.2 0 0 1-11.68-21.552 126.818 126.818 0 0 1-7.408-23.776A129.895 129.895 0 0 1 121.28 248c0-8.576.864-17.184 2.56-25.568 1.712-8.24 4.192-16.256 7.44-23.888a124.148 124.148 0 0 1 11.68-21.536 129.54 129.54 0 0 1 15.488-18.784c5.712-5.696 12.048-10.912 18.864-15.536 6.672-4.528 13.92-8.464 21.488-11.68 7.728-3.248 15.744-5.744 23.856-7.392a128.638 128.638 0 0 1 25.584-2.592c8.544 0 17.168.88 25.6 2.592 3.68.752 7.344 1.68 10.928 2.752a131.082 131.082 0 0 1 12.88 4.64c7.616 3.216 14.88 7.152 21.552 11.68 6.8 4.608 13.136 9.84 18.8 15.504 5.824 5.84 11.04 12.16 15.52 18.832a126.742 126.742 0 0 1 11.696 21.568 125.38 125.38 0 0 1 7.392 23.856 127.208 127.208 0 0 1 2.592 25.536c0 8.608-.88 17.216-2.608 25.616z"/><path d="M325.296 373.584c-.656-2.96-16.272-73.504-41.568-140-21.216-55.888-76.4-124.48-78.736-127.376-5.552-6.864-15.616-7.936-22.496-2.384-6.864 5.552-7.936 15.632-2.384 22.496.544.672 54.32 67.552 73.728 118.64 24.432 64.24 40.064 134.816 40.224 135.52 1.648 7.472 8.272 12.56 15.616 12.56 1.152 0 2.304-.112 3.424-.4 8.624-1.888 14.096-10.416 12.192-19.056z"/><path d="M358.384 133.728c-7.28-5.008-17.248-3.136-22.24 4.112-.352.528-35.984 51.616-81.456 62.976-61.328 15.36-147.888 18.912-148.752 18.944-8.832.336-15.712 7.776-15.36 16.608.336 8.624 7.424 15.376 15.984 15.376.208 0 .416 0 .608-.016 3.68-.144 90.704-3.696 155.28-19.856 57.36-14.352 98.368-73.408 100.08-75.92 4.992-7.28 3.136-17.232-4.144-22.224zM397.712 245.712c-3.072-1.488-76.16-36.384-149.664-.448-61.504 30.048-111.28 91.184-113.36 93.776-5.552 6.864-4.48 16.944 2.4 22.496a15.836 15.836 0 0 0 10.032 3.552c4.672 0 9.296-2.032 12.448-5.968.48-.576 47.312-58.16 102.512-85.12 59.232-28.912 120.992.176 121.616.48 7.968 3.84 17.488.544 21.36-7.376 3.888-7.936.592-17.52-7.344-21.392z"/></svg>