<svg xmlns="http://www.w3.org/2000/svg" viewBox="0 0 48 48"><path d="M40.4 5.5h-4.8A2.602 2.602 0 0 0 33 8.1v4.8c0 1.434 1.166 2.6 2.6 2.6h4.8c1.434 0 2.6-1.166 2.6-2.6V8.1c0-1.434-1.166-2.6-2.6-2.6zm.6 7.4a.6.6 0 0 1-.6.6h-4.8a.6.6 0 0 1-.6-.6V8.1a.6.6 0 0 1 .6-.6h4.8a.6.6 0 0 1 .6.6v4.8z"/><path d="M37.8.5H10.2C4.576.5 0 5.089 0 10.731V37.27C0 42.911 4.576 47.5 10.2 47.5h27.6c5.624 0 10.2-4.589 10.2-10.23V10.731C48 5.089 43.424.5 37.8.5zM46 37.27c0 4.538-3.679 8.23-8.2 8.23H10.2c-4.522 0-8.2-3.692-8.2-8.23V19.5h12.221A13.948 13.948 0 0 0 10 29.5c0 7.72 6.28 14 14 14s14-6.28 14-14c0-3.916-1.62-7.457-4.221-10H46v17.77zM36 29.5c0 6.617-5.383 12-12 12s-12-5.383-12-12 5.383-12 12-12 12 5.383 12 12zm-4.826-12c-2.101-1.261-4.55-2-7.174-2s-5.073.739-7.174 2H2v-6.769C2 6.192 5.679 2.5 10.2 2.5h27.6c4.521 0 8.2 3.692 8.2 8.231V17.5H31.174z"/><path d="M15 29.5c0 4.962 4.037 9 9 9s9-4.038 9-9-4.037-9-9-9-9 4.038-9 9zm16 0c0 3.86-3.141 7-7 7s-7-3.14-7-7 3.141-7 7-7 7 3.14 7 7z"/></svg>