<?xml version="1.0"?>
<svg xmlns="http://www.w3.org/2000/svg" height="512px" viewBox="-1 0 497 497.10905" width="512px" class=""><g><path d="m442.066406 80.925781c4.214844 1.492188 8.648438 2.28125 13.121094 2.335938 20.03125.160156 37.339844-13.96875 41.191406-33.625 3.847656-19.660157-6.847656-39.273438-25.457031-46.679688-18.613281-7.410156-39.863281-.511719-50.574219 16.414063-10.710937 16.929687-7.847656 39.085937 6.8125 52.734375-33.378906 33.152343-62.6875 70.164062-87.3125 110.253906-.089844 0-.179687 0-.269531 0h-82.582031v-99.925781c20.769531-4.238282 34.953125-23.515625 32.824218-44.605469-2.132812-21.089844-19.886718-37.140625-41.082031-37.140625-21.199219 0-38.953125 16.050781-41.082031 37.140625s12.054688 40.367187 32.824219 44.605469v99.925781h-82.582031c-.089844 0-.179688 0-.273438 0-24.621094-40.089844-53.933594-77.101563-87.3125-110.253906 14.410156-13.535157 17.15625-35.398438 6.550781-52.078125-10.609375-16.679688-31.578125-23.457032-49.941406-16.148438s-28.9375 26.644532-25.179687 46.050782c3.753906 19.40625 20.777343 33.402343 40.542968 33.332031 4.472656-.054688 8.90625-.84375 13.121094-2.335938 33.894531 32.804688 63.492188 69.773438 88.089844 110.019531-1.367188 2.421876-2.09375 5.148438-2.113282 7.929688v41.289062h-58.632812c-4.238281-20.769531-23.515625-34.953124-44.605469-32.824218-21.089843 2.132812-37.140625 19.886718-37.140625 41.082031 0 21.199219 16.050782 38.953125 37.140625 41.082031 21.089844 2.128906 40.367188-12.054687 44.605469-32.824218h58.632812v66.066406c.015626 1.335937.191407 2.664062.527344 3.953125-33.550781 25.4375-63.679687 55.097656-89.640625 88.246093-3.257812-.867187-6.613281-1.324218-9.984375-1.363281-20.464844-.226562-38.082031 14.410157-41.601562 34.570313-3.523438 20.164062 8.082031 39.90625 27.414062 46.632812 19.328125 6.722656 40.683594-1.550781 50.4375-19.542968 9.753906-17.996094 5.027344-40.40625-11.160156-52.929688 25.082031-31.453125 54.082031-59.574219 86.296875-83.671875 1.375.390625 2.796875.601563 4.226563.621094h82.582031v75.148437c-20.769531 4.238282-34.953125 23.515625-32.824219 44.605469s19.882812 37.140625 41.082031 37.140625c21.195313 0 38.949219-16.050781 41.082031-37.140625 2.128907-21.089844-12.054687-40.367187-32.824218-44.605469v-75.148437h82.582031c1.429687-.019531 2.851563-.230469 4.226563-.621094 32.214843 24.097656 61.214843 52.21875 86.296874 83.671875-15.8125 12.378906-20.355468 34.378906-10.738281 52.007812 9.621094 17.628907 30.578125 25.714844 49.546875 19.117188s30.378906-25.949219 26.980469-45.742188c-3.402344-19.792968-20.617187-34.222656-40.703125-34.113281-3.371094.039063-6.722656.496094-9.980469 1.363281-25.960937-33.148437-56.089843-62.808593-89.644531-88.246093.335938-1.289063.515625-2.617188.53125-3.953125v-66.066406h58.632812c4.238282 20.769531 23.515626 34.953124 44.605469 32.824218 21.089844-2.128906 37.140625-19.882812 37.140625-41.082031 0-21.195313-16.050781-38.949219-37.140625-41.082031-21.089843-2.128906-40.367187 12.054687-44.605469 32.824218h-58.632812v-41.289062c-.019531-2.78125-.746094-5.507812-2.117188-7.929688 24.597657-40.246093 54.199219-77.214843 88.089844-110.019531zm13.121094-63.730469c13.683594 0 24.777344 11.09375 24.777344 24.777344 0 13.679688-11.09375 24.773438-24.777344 24.773438-13.679688 0-24.773438-11.09375-24.773438-24.773438 0-13.683594 11.09375-24.777344 24.773438-24.777344zm-231.222656 24.777344c0-13.683594 11.089844-24.777344 24.773437-24.777344 13.683594 0 24.773438 11.09375 24.773438 24.777344 0 13.679688-11.089844 24.773438-24.773438 24.773438-13.683593 0-24.773437-11.09375-24.773437-24.773438zm-206.453125 0c0-13.683594 11.09375-24.777344 24.773437-24.777344 13.683594 0 24.773438 11.09375 24.773438 24.777344 0 13.679688-11.089844 24.773438-24.773438 24.773438-13.679687 0-24.773437-11.09375-24.773437-24.773438zm24.773437 231.222656c-13.679687 0-24.773437-11.089843-24.773437-24.773437s11.09375-24.773437 24.773437-24.773437c13.683594 0 24.773438 11.089843 24.773438 24.773437s-11.089844 24.773437-24.773438 24.773437zm0 206.453126c-13.679687 0-24.773437-11.09375-24.773437-24.773438 0-13.683594 11.09375-24.773438 24.773437-24.773438 13.683594 0 24.773438 11.089844 24.773438 24.773438 0 13.679688-11.089844 24.773438-24.773438 24.773438zm231.226563-24.773438c0 13.679688-11.089844 24.773438-24.773438 24.773438-13.683593 0-24.773437-11.09375-24.773437-24.773438 0-13.683594 11.089844-24.773438 24.773437-24.773438 13.683594 0 24.773438 11.089844 24.773438 24.773438zm206.453125 0c0 13.679688-11.09375 24.773438-24.777344 24.773438-13.679688 0-24.773438-11.09375-24.773438-24.773438 0-13.683594 11.09375-24.773438 24.773438-24.773438 13.683594 0 24.777344 11.089844 24.777344 24.773438zm-24.777344-231.226562c13.683594 0 24.777344 11.089843 24.777344 24.773437s-11.09375 24.773437-24.777344 24.773437c-13.679688 0-24.773438-11.089843-24.773438-24.773437s11.09375-24.773437 24.773438-24.773437zm-284.347656 99.097656 59.277344-54.296875 8.074218 6.730469c6.117188 5.070312 14.976563 5.070312 21.089844 0l8.078125-6.730469 59.277344 54.296875zm154.210937-123.871094-76.3125 63.585938-76.3125-63.585938zm-167.152343 9.398438 59.410156 49.503906-59.410156 54.414062zm181.679687 40.148437v63.792969l-59.417969-54.417969 59.417969-49.523437zm0 0" data-original="#000000" class="active-path" data-old_color="#000000" fill="#FFFFFF"/></g> </svg>
