<svg xmlns="http://www.w3.org/2000/svg" width="512" height="512" viewBox="0 0 430.117 430.117"><path d="M307.523 231.062c1.11 2.838 1.614 5.769 1.614 8.681 0 5.862-2.025 11.556-5.423 16.204-3.36 4.593-8.121 8.158-13.722 9.727h.01c-.047.019-.094.019-.117.037-.023 0-.061.019-.079.019a24.626 24.626 0 0 1-7.98 1.316c-6.254 0-12.396-2.254-17.306-6.096-4.872-3.826-8.56-9.324-9.717-15.845h-.01c0-.019 0-.042-.009-.069 0-.019 0-.038-.019-.065h.019a23.713 23.713 0 0 1-.551-5.021c0-5.647 1.923-11.07 5.097-15.551 3.164-4.453 7.626-7.99 12.848-9.811.019 0 .038-.01.038-.01.027 0 .027-.027.051-.027a26.476 26.476 0 0 1 9.157-1.639c5.619 0 11.154 1.704 15.821 4.821 4.611 3.066 8.354 7.561 10.23 13.143.019.037.019.07.037.103 0 .037.019.057.037.084h-.026zm-17.194 69.287c-2.202-1.428-4.751-2.291-7.448-2.291a11.66 11.66 0 0 0-6.445 1.955c-19.004 11.342-41.355 17.558-63.547 17.558-16.65 0-33.199-3.514-48.192-10.879l-.077-.037-.075-.028c-2.261-.924-4.837-2.889-7.647-4.76-1.428-.925-2.919-1.844-4.574-2.521-1.633-.695-3.447-1.181-5.386-1.181-1.605 0-3.292.359-4.957 1.115l-.252.098h.009a12.002 12.002 0 0 0-5.974 4.994c-1.372 2.23-2.046 4.826-2.046 7.411 0 2.334.551 4.667 1.691 6.786a12.163 12.163 0 0 0 4.938 4.938c21.429 14.454 46.662 21.002 71.992 20.979 22.838 0 45.814-5.287 66.27-14.911l.107-.065.103-.056c2.697-1.597 6.282-3.029 9.661-5.115 1.671-1.064 3.304-2.296 4.704-3.897a14.706 14.706 0 0 0 3.16-5.875v-.01c.266-1.026.392-2.025.392-3.024 0-1.899-.467-3.701-1.241-5.32-1.134-2.438-2.991-4.435-5.166-5.864zm-150.454-34.76c.037 0 .086.014.128.037a24.302 24.302 0 0 0 8.345 1.493c6.963 0 13.73-2.852 18.853-7.5 5.115-4.662 8.618-11.257 8.618-18.775 0-.196 0-.392-.009-.625.019-.336.028-.705.028-1.083 0-7.458-3.456-14.08-8.522-18.762-5.085-4.686-11.836-7.551-18.825-7.551-1.867 0-3.769.219-5.628.653-.028 0-.049.009-.077.009h-.028c-9.252 1.937-17.373 8.803-20.37 18.248v.01c0 .019-.009.037-.009.037a24.974 24.974 0 0 0-1.262 7.896c0 5.787 1.913 11.426 5.211 16.064 3.269 4.56 7.894 8.145 13.448 9.819.04.002.059.012.099.03zm290.158-67.495v.038c.066.94.084 1.878.084 2.81 0 10.447-3.351 20.493-8.941 29.016-5.218 7.976-12.414 14.649-20.703 19.177.532 4.158.84 8.349.84 12.526-.01 22.495-7.766 44.607-21.272 62.329v.009h-.028c-24.969 33.216-63.313 52.804-102.031 62.684h-.01l-.027.023a268.397 268.397 0 0 1-63.223 7.574c-31.729 0-63.433-5.722-93.018-17.585l-.009-.028h-.028c-30.672-12.643-59.897-32.739-77.819-62.184-9.642-15.71-14.935-34.141-14.935-52.659 0-4.19.283-8.387.843-12.536a60.094 60.094 0 0 1-20.255-18.687c-5.542-8.266-9.056-17.95-9.5-28.187v-.159c.009-14.337 6.237-27.918 15.915-37.932 9.677-10.011 22.896-16.554 37.075-16.554h.588a66.294 66.294 0 0 1 4.488-.159c7.122 0 14.26 1.153 21.039 3.752l.037.028.038.012c5.787 2.437 11.537 5.377 16.662 9.449 1.661-.871 3.472-1.851 5.504-2.625 31.064-18.395 67.171-25.491 102.358-27.538.306-17.431 2.448-35.68 10.949-51.65 7.08-13.269 19.369-23.599 34-27.179l.061-.03.079-.009c5.573-1.078 11.192-1.575 16.774-1.575 14.869 0 29.561 3.521 43.31 9.017 6.086-9.185 14.776-16.354 24.97-20.375l.098-.056.098-.037c5.983-1.864 12.303-2.954 18.646-2.954 6.692 0 13.437 1.223 19.756 4.046v-.023c.009.023.019.023.019.023.047.016.084.044.116.044 9.059 3.489 16.727 9.937 22.164 17.95 5.442 8.048 8.644 17.688 8.644 27.599 0 1.827-.103 3.657-.317 5.489l-.019.037c0 .028 0 .068-.01.096-1.063 12.809-7.551 24.047-16.736 32.063-9.24 8.048-21.207 12.909-33.49 12.909-1.97 0-3.958-.11-5.937-.374-12.182-.931-23.541-6.826-31.886-15.595-8.373-8.755-13.768-20.453-13.768-33.08 0-.611.056-1.237.074-1.843-11.435-5.092-23.578-9.316-35.646-9.306-1.746 0-3.491.096-5.237.273h-.019c-9.035.871-17.436 6.566-21.506 14.757v.037c-6.179 12.034-7.411 26.101-7.598 40.064 34.639 2.259 69.483 10.571 100.043 28.138h.047l.438.259c.579.343 1.652.931 2.623 1.449 2.101-1.704 4.322-3.456 6.856-4.966 9.264-6.17 20.241-9.238 31.223-9.238 4.872 0 9.749.621 14.481 1.834h.019l.196.058c.07.01.121.033.178.033v.009c11.183 2.845 21.3 9.267 28.917 17.927 7.612 8.674 12.731 19.648 13.73 31.561v.025h-.012zM328.002 84.733c0 .469.01.95.057 1.44v.084c.224 6.018 3.065 11.619 7.383 15.756 4.34 4.14 10.1 6.702 15.942 6.725h.159c.42.033.85.033 1.26.033 5.899.009 11.752-2.532 16.148-6.655 4.405-4.144 7.309-9.78 7.542-15.849l.009-.028v-.037c.038-.464.057-.903.057-1.377 0-6.247-2.922-12.202-7.496-16.612-4.555-4.406-10.688-7.136-16.735-7.12-1.951 0-3.884.266-5.778.854l-.065.005-.056.023c-4.984 1.295-9.656 4.368-13.012 8.449-3.371 4.062-5.415 9.084-5.415 14.309zm-255.69 92.845c-4.63-2.156-9.418-3.696-14.15-3.676-.794 0-1.597.047-2.39.133h-.11l-.11.014c-6.795.187-13.653 3.15-18.801 7.899-5.152 4.732-8.559 11.122-8.821 18.167v.065l-.012.058a21 21 0 0 0-.065 1.683c0 4.345 1.333 8.545 3.593 12.368 1.673 2.847 3.867 5.441 6.348 7.701 7.941-17.388 20.348-32.145 34.518-44.412zm301.754 85.057c0-15.5-5.592-31.069-14.646-43.604-18.053-25.119-46.055-41.502-75.187-50.636l-.205-.072a239.667 239.667 0 0 0-16.933-4.534c-17.025-3.876-34.48-5.806-51.917-5.806-23.414 0-46.827 3.465-69.245 10.379-29.125 9.243-57.221 25.51-75.233 50.71v.019c-9.129 12.587-14.475 28.208-14.475 43.763 0 5.727.716 11.453 2.23 17.025l.019.01c3.278 12.508 9.689 23.671 17.989 33.393 8.295 9.745 18.472 18.058 29.176 24.839 2.371 1.47 4.751 2.87 7.187 4.237 31.094 17.356 66.898 24.964 102.445 24.964 6.012 0 12.06-.214 18.033-.644 35.797-2.959 71.742-13.525 100.8-35.115l.01-.023c9.25-6.837 17.818-15.112 24.595-24.525 6.805-9.418 11.789-19.947 14.002-31.382v-.033l.009-.01a62.283 62.283 0 0 0 1.346-12.955zm28.254-61.685c-.009-3.762-.868-7.507-2.753-11l-.047-.044-.019-.056c-2.521-5.19-6.479-9.11-11.248-11.782-4.77-2.69-10.352-4.056-15.952-4.056-5.063 0-10.1 1.132-14.57 3.379 14.216 12.344 26.687 27.179 34.746 44.636a29.093 29.093 0 0 0 6.464-8.084c2.157-4.023 3.379-8.538 3.379-12.993z" data-original="#000000" class="active-path" data-old_color="#ffffff" fill="#fff"/></svg>