<svg xmlns="http://www.w3.org/2000/svg" viewBox="0 0 496 496"><path d="M213.424 177.136c-15.904 0-28.864 12.784-28.864 28.48s12.96 28.48 28.864 28.48 28.864-12.784 28.864-28.48-12.96-28.48-28.864-28.48zm-3.136 28.48c0-1.936 1.408-3.52 3.136-3.52 1.728 0 3.136 1.568 3.152 3.52 0 3.872-6.288 3.872-6.288 0zM282.592 177.136c-15.92 0-28.88 12.784-28.88 28.48s12.96 28.48 28.88 28.48c15.904 0 28.848-12.784 28.848-28.48s-12.944-28.48-28.848-28.48zm-3.152 28.48c0-1.936 1.424-3.52 3.152-3.52 1.696 0 3.12 1.6 3.136 3.52.016 3.872-6.288 3.824-6.288 0z"/><path d="M378.88 178.976c0-16.128-13.52-29.232-30.128-29.232-7.392 0-14.288 2.688-19.792 7.408-19.584-12.208-45.584-19.984-74.336-21.04l17.152-47.328 42.816 9.952c0 13.104 10.992 23.792 24.544 23.792s24.56-10.704 24.56-23.856c.016-13.184-10.992-23.888-24.544-23.888-10.32 0-19.104 6.208-22.784 14.896l-50.672-11.728L244.656 136c-29.968.544-57.088 8.4-77.408 20.992-5.472-4.592-12.288-7.232-19.6-7.232-16.592 0-30.112 13.104-30.112 29.232 0 9.968 5.328 19.184 13.888 24.528-.512 2.928-.88 5.856-.88 8.896 0 28.656 24.4 53.664 60.336 66.768-19.456 11.68-31.968 29.136-31.968 48.736 0 21.488 14.88 41.344 39.808 53.104l.368-.688c1.072 4.624 2.304 9.024 3.712 13.104h-9.968c-8.704 0-15.744 2.672-20.912 7.984-9.536 9.728-8.864 24.768-8.848 25.392l.256 4.352H331.6l.16-4.432c0-.656.448-16.128-9.184-25.792-4.976-4.992-11.536-7.504-19.552-7.504H292.88c1.664-4.592 3.008-9.584 4.256-14.752l.704 1.264c23.536-11.856 37.6-31.312 37.6-52.048 0-19.104-11.84-36.208-30.496-47.84 0-.304.032-.576.032-.864 36-13.088 60.416-38.112 60.416-66.8 0-2.944-.336-5.808-.8-8.624 8.8-5.328 14.288-14.672 14.288-24.8zm-45.824 30.064c.24 1.44.352 2.56.352 3.36 0 13.408-15.808 28.16-39.36 36.72-12.352 4.496-20.672 16.08-21.04 29.136a37.402 37.402 0 0 0-.048 1.792c0 11.04 5.68 21.296 15.056 27.136 9.664 6.048 15.44 13.776 15.44 20.704 0 6.656-4.992 13.792-13.376 19.584a31.996 31.996 0 0 0-24.048 23.776c-1.136 4.784-2.176 8.368-3.232 11.312a32.126 32.126 0 0 0-1.376 16.592H234.32c.992-5.376.576-10.976-1.264-16.272-.976-2.768-1.872-6-2.8-9.888-2.592-11.072-10.96-19.536-21.584-22.848-11.04-6.144-17.744-14.448-17.744-22.272 0-7.152 6.16-15.12 16.448-21.296a31.987 31.987 0 0 0 15.36-30.496 31.951 31.951 0 0 0-20.896-27.008c-23.504-8.56-39.296-23.312-39.296-36.704 0-.752.128-1.872.384-3.328a32.012 32.012 0 0 0-3.52-21.056c2.56.64 5.184.976 7.808.976a31.95 31.95 0 0 0 16.848-4.8c16.192-10.016 37.904-15.76 61.152-16.192a31.212 31.212 0 0 0 4.096-.32c1.36.24 2.752.368 4.16.432 22.32.816 43.12 6.576 58.592 16.224a31.851 31.851 0 0 0 24.592 3.904 32.085 32.085 0 0 0-3.6 20.832z"/><path d="M365.872 0H130.128C55.936 0 0 55.952 0 130.128V365.84C0 440.048 55.936 496 130.128 496h235.744C440.064 496 496 440.048 496 365.84V130.128C496 55.952 440.064 0 365.872 0zM464 365.84c0 55.952-42.192 98.16-98.128 98.16H130.128C74.192 464 32 421.792 32 365.84V130.128C32 74.192 74.192 32 130.128 32h235.744C421.808 32 464 74.192 464 130.128V365.84z"/></svg>