<svg data-name="Capa 1" xmlns="http://www.w3.org/2000/svg" viewBox="0 0 612 497.12"><path d="M612 58.82a250.68 250.68 0 0 1-72.09 19.77A126.11 126.11 0 0 0 595.1 9.18a253.14 253.14 0 0 1-79.78 30.48 125.64 125.64 0 0 0-213.93 114.46A356.43 356.43 0 0 1 42.64 23 125.69 125.69 0 0 0 81.5 190.53a125.55 125.55 0 0 1-56.87-15.76v1.57a125.67 125.67 0 0 0 100.69 123.1 127.2 127.2 0 0 1-33.08 4.4 120.39 120.39 0 0 1-23.63-2.33 125.61 125.61 0 0 0 117.25 87.19 251.92 251.92 0 0 1-155.92 53.65A266.59 266.59 0 0 1 0 440.63a354.91 354.91 0 0 0 192.44 56.49c231 0 357.19-191.29 357.19-357.19l-.43-16.25A250.69 250.69 0 0 0 612 58.82z" fill="#fff"/></svg>