<svg data-name="Capa 1" xmlns="http://www.w3.org/2000/svg" viewBox="0 0 22.25 22.26"><path d="M11.21 0a11.13 11.13 0 1 0 11 11.14A11.16 11.16 0 0 0 11.21 0zM6.69 20.08a8 8 0 0 1-1.89-1.2 9.88 9.88 0 0 1-3.66-7.12 9.61 9.61 0 0 1 .71-4.4c0-.07 0-.2.14-.19s.08.12.11.19l4.51 12.36a3.37 3.37 0 0 1 .1.34zm7.5.57a10.08 10.08 0 0 1-5.63.15c-.26-.06-.23-.19-.17-.37.69-2 1.36-3.94 2-5.91.25-.72.49-1.44.74-2.15a.51.51 0 0 1 .16-.28c.1.29.2.55.3.81q1.35 3.72 2.72 7.44c.1.18.07.25-.12.31zm1.94-3.59a.4.4 0 0 1-.14-.24q-1.7-5-3.38-10c-.11-.34-.11-.34.25-.37l.77-.08a.41.41 0 0 0 .37-.48.38.38 0 0 0-.44-.36c-.62 0-1.25.08-1.87.1-1.1 0-2.19 0-3.28-.09h-.15a.4.4 0 0 0-.41.37.39.39 0 0 0 .34.43l.86.09a.3.3 0 0 1 .29.19c.47 1.32 1 2.65 1.44 4a.41.41 0 0 1 0 .31L8.74 17c0 .06 0 .14-.1.18s-.09-.14-.12-.22L5.11 6.78c-.11-.33-.11-.33.23-.36s.49 0 .73-.08.46-.21.44-.44-.2-.38-.51-.37c-.8 0-1.6.12-2.41.11h-.78c-.04 0 0-.12.07-.17a9.94 9.94 0 0 1 1.44-1.68 9.81 9.81 0 0 1 5.61-2.6 9.85 9.85 0 0 1 7.74 2.37s.11.06.11.14-.09 0-.13 0a1.78 1.78 0 0 0-1.55 2.2 4.31 4.31 0 0 0 .6 1.39c.23.38.47.76.67 1.16a4.75 4.75 0 0 1 .31 3.47c-.48 1.67-1 3.33-1.49 5a.53.53 0 0 1-.06.14zm.09 2.62a.62.62 0 0 1 .08-.33q1.57-4.53 3.14-9a8.38 8.38 0 0 0 .49-3.71.1.1 0 0 1 .07-.18 10 10 0 0 1 .64 7.81c-.73 2.21-3.08 5.09-4.42 5.41z" fill="#fff"/></svg>