<svg xmlns="http://www.w3.org/2000/svg" viewBox="0 0 508.004 508.004"><path d="M378.76.002H129.18C57.948.002 0 57.966 0 129.218V378.79c0 71.248 57.948 129.212 129.18 129.212h249.576c71.268 0 129.244-57.964 129.248-129.208V129.218C508.004 57.966 450.024.002 378.76.002zm121.244 378.792c0 66.836-54.392 121.212-121.244 121.212H129.18C62.36 500.006 8 445.63 8 378.794V129.218C8 62.378 62.36 8.002 129.18 8.002h249.576c66.852 0 121.244 54.376 121.248 121.216v249.576z"/><path d="M480.192 253.97c-2.212 0-4 1.792-4 4v112.02c0 57.568-48.632 106.204-106.2 106.204H138.008c-57.568 0-106.2-48.636-106.2-106.204V138.01c0-57.568 48.632-106.2 106.2-106.2H369.08c2.212 0 4-1.792 4-4s-1.788-4-4-4H138.008c-61.904 0-114.2 52.296-114.2 114.2v231.98c0 61.908 52.296 114.204 114.2 114.204h231.984c61.904 0 114.2-52.296 114.2-114.204V257.97c0-2.208-1.788-4-4-4z"/><path d="M449.808 58.19c-21.848-21.848-51.276-34.38-80.732-34.38-2.212 0-4 1.792-4 4s1.788 4 4 4c27.352 0 54.716 11.676 75.076 32.036.78.78 1.804 1.172 2.828 1.172s2.048-.392 2.828-1.172a3.996 3.996 0 0 0 0-5.656zM480.192 166.67c-2.212 0-4 1.792-4 4v59.524c0 2.208 1.788 4 4 4 2.212 0 4-1.792 4-4V170.67c0-2.208-1.788-4-4-4zM304.228 385.094l-12.072-33.064c-10.552-28.904-21.024-57.6-31.52-86.308-.708-1.924-2.712-2.82-4.992-2.58a3.988 3.988 0 0 0-3.408 2.68c-11.8 34.348-23.62 68.68-35.504 103.204l-6.3 18.3a3.997 3.997 0 0 0 .236 3.148 3.99 3.99 0 0 0 2.448 2c13.764 3.924 27.588 5.912 41.084 5.916 15.824 0 31.828-2.744 47.572-8.144a3.987 3.987 0 0 0 2.308-2.06 3.99 3.99 0 0 0 .148-3.092zm-84.84.788l4.908-14.26c10.796-31.352 21.536-62.56 32.26-93.76 9.348 25.576 18.684 51.156 28.084 76.908l10.652 29.18c-25.064 7.848-50.244 8.496-75.904 1.932zM196.424 378.126a698045.15 698045.15 0 0 0-62.848-172.192l-3.56-9.752c-.58-1.576-2.376-2.636-4.056-2.636l-.572-.012a4.004 4.004 0 0 0-3.692 2.456c-16.148 38.596-16.296 77.168-.436 114.648 13.564 32.024 36.732 56.552 68.868 72.904.496.252 1.072.368 1.66.368.944 0 1.924-.3 2.668-.804l.472-.308a4.004 4.004 0 0 0 1.496-4.672zm-67.792-70.604c-13.8-32.62-14.768-66.128-2.9-99.752l.332.908c19.872 54.44 39.748 108.888 59.608 163.316-26.236-15.332-45.4-36.984-57.04-64.472z"/><path d="M337.604 201.238c-1.372-2.32-2.752-4.644-4.096-6.984-3.26-5.688-5.2-11.02-5.924-16.288-1.5-11.176 5.956-21.36 16.968-23.184.796-.128 1.584-.22 2.584-.332l2.256-.268a3.99 3.99 0 0 0 3.34-2.832 3.991 3.991 0 0 0-1.26-4.196c-40.42-34.004-85.516-44.968-134.176-32.648-34.368 8.688-62.624 28.964-83.984 60.264a3.994 3.994 0 0 0-.232 4.124 3.996 3.996 0 0 0 3.536 2.132c2.424 0 4.748.02 7.008.04 4.832.04 9.344.08 13.92-.08 5.04-.192 10.08-.516 15.124-.844 3.272-.212 6.548-.424 9.836-.596l.516-.016c1.936 0 1.992.5 2.068 1.176.148 1.372.188 1.74-2.108 2.132-1.108.176-2.188.252-3.416.34-3.82.34-7.6.664-11.976 1.032a4.002 4.002 0 0 0-3.012 1.788 4.008 4.008 0 0 0-.448 3.472l16.1 47.912c11.62 34.564 23.172 68.948 34.736 103.312a3.994 3.994 0 0 0 2.468 2.496 3.973 3.973 0 0 0 3.492-.412c1.072-.692 2.372-1.736 2.784-3.392 9.852-29.436 19.66-58.856 29.384-88.284.976-2.86.036-5.94-.392-7.08-3.148-8.736-6.332-17.464-9.516-26.192-3.432-9.4-6.86-18.8-10.232-28.176-1.752-5.028-5.48-5.768-8.144-5.892-3.264-.136-6.868-.488-11.372-1.116-1.04-.14-1.308-.344-1.2-1.496.132-1.344.648-1.6 1.804-1.628.636 0 1.28.064 1.916.12.684.056 1.364.116 2.052.136 4.08.104 8.168.224 12.252.344 11.012.324 22.4.656 33.62.7h.624c5.3 0 10.632-.388 15.788-.764 2.704-.196 5.408-.392 8.368-.544 1.384 0 1.7.512 1.784 1.456.056.568.132 1.424-1.68 1.752-1.284.248-2.616.356-3.944.46-2.84.268-5.676.512-8.664.772l-3.344.292a4.006 4.006 0 0 0-2.996 1.792 3.99 3.99 0 0 0-.444 3.464c8.196 24.408 16.372 48.708 24.56 73.044a90895.771 90895.771 0 0 1 26.16 77.808 4.01 4.01 0 0 0 3.684 2.728h.108a4 4 0 0 0 3.72-2.524l.464-1.124c.244-.568.364-.9.42-1.108l7.724-25.704c4.448-14.78 8.892-29.564 13.3-44.364 5.82-19.672 3.884-38.652-5.776-56.428-1.976-3.588-4.052-7.092-6.132-10.592zm4.232 64.744c-4.4 14.784-8.848 29.564-13.292 44.336l-4.784 15.856c-7.44-22.16-14.848-44.184-22.252-66.18-7.648-22.732-15.284-45.432-22.936-68.22 2.376-.204 4.672-.408 6.924-.62 1.556-.124 3.184-.272 4.724-.564 5.384-.964 8.676-5.128 8.192-10.356-.484-5.216-4.404-8.716-9.752-8.716l-.672.016c-2.76.144-5.524.348-8.276.548-5.012.364-10.196.744-15.208.744h-.584c-11.124-.044-22.464-.376-33.424-.696-4.096-.12-8.188-.24-12.264-.344-.516-.016-1.044-.064-1.576-.112a31.182 31.182 0 0 0-2.996-.144c-5.188.128-8.872 3.6-9.388 8.86-.5 5.38 2.756 9.476 8.084 10.188 4.744.656 8.592 1.032 12.1 1.18.432.02.68.064.736.048.048.084.128.248.22.524 3.388 9.42 6.824 18.836 10.256 28.248 3.18 8.72 6.364 17.436 9.524 26.212.312.832.36 1.572.316 1.772a25565.039 25565.039 0 0 1-26.396 79.372 303808.486 303808.486 0 0 1-31.296-93.096l-14.48-43.084c2.388-.208 4.648-.404 6.912-.604 1.348-.096 2.656-.196 4.032-.416 6.188-1.052 9.38-5.016 8.752-10.892-.6-5.416-5.044-8.604-10.976-8.284-3.304.176-6.608.388-9.912.6-4.976.32-9.952.64-14.9.832-4.212.144-8.44.116-12.9.08 19.784-26.432 44.352-43.084 74.9-50.808 12.324-3.116 24.504-4.7 36.204-4.7 29.536 0 57.76 10.156 84.012 30.216-13.204 4.052-21.724 17.08-19.816 31.268.868 6.316 3.132 12.596 6.916 19.192a546.145 546.145 0 0 0 4.156 7.084c2.036 3.428 4.072 6.856 5.992 10.348 8.596 15.824 10.324 32.752 5.128 50.312z"/><path d="M412.772 262.95l-.012-17.064c0-4.732-.424-9.612-1.304-14.932-8.988-54.296-38.144-94.612-86.668-119.832-17.78-9.22-37.212-14.412-59.408-15.876a19.247 19.247 0 0 0-1.268-.036l-18.224.028c-4.788 0-9.788.44-15.292 1.352-53.516 8.932-93.488 37.6-118.8 85.208-9.644 18.188-15.06 38.08-16.56 60.772-.064.82-.044 1.624-.016 2.416l.02 17.128c0 4.736.42 9.62 1.292 14.932 8.944 54.152 38.004 94.436 86.38 119.736 17.84 9.28 37.368 14.512 59.732 15.988.36.024.724.032 1.088.032l18.38-.04c4.864 0 9.76-.428 14.944-1.312 53.916-8.88 94.088-37.748 119.404-85.796 9.468-17.968 14.792-37.684 16.264-60.192.076-.836.064-1.672.048-2.512zm-8.02 1.904c-1.408 21.448-6.436 40.116-15.368 57.072-24.424 46.356-61.588 73.056-113.644 81.632-4.752.808-9.208 1.204-13.624 1.204h-16.224l-2.16.04-.592-.016c-21.204-1.4-39.696-6.34-56.524-15.092-46.672-24.412-73.56-61.688-82.188-113.944-.8-4.876-1.188-9.336-1.188-13.636V245.89l-.024-1.168c-.02-.508-.044-1.02 0-1.584 1.424-21.584 6.544-40.42 15.644-57.588 24.424-45.928 61.404-72.444 113.052-81.064 5.06-.836 9.632-1.244 13.98-1.244v-.012h16.22l2-.028c.248 0 .5.004.748.02 21.072 1.388 39.472 6.292 56.248 14.992 46.812 24.332 73.784 61.636 82.46 114.04.804 4.88 1.196 9.34 1.196 13.628l.012 17.224c.012.56.032 1.112-.024 1.748z"/><path d="M381.02 186.094a4 4 0 0 0-7.512 2.176c.748 10.84.416 20.62-1.016 29.892a4 4 0 0 0 3.34 4.564c2.184.328 4.232-1.156 4.568-3.34.64-4.152 1.076-8.392 1.308-12.764 8.244 21.4 10.676 43.708 7.232 66.54-5.8 38.624-24.996 69.776-57.1 92.74l19.404-56.252a3.998 3.998 0 1 0-7.56-2.608l-20.592 59.688c-.62 1.74-1.2 3.492-1.78 5.24l-.416 1.252a3.999 3.999 0 0 0 1.812 4.736l.98.52a4.031 4.031 0 0 0 1.86.456c.74 0 1.48-.204 2.128-.612 39.248-24.696 62.524-59.676 69.176-103.972 4.612-30.6-.712-60.292-15.832-88.256z"/></svg>