<svg xmlns="http://www.w3.org/2000/svg" xmlns:xlink="http://www.w3.org/1999/xlink" viewBox="0 0 190 26.35"><defs><style>.cls-1{isolation:isolate;}.cls-2{fill:#f8003c;}.cls-3{fill:#27334f;}.cls-4{fill:#fa0;}.cls-5{opacity:0.3;fill:url(#linear-gradient);}.cls-5,.cls-6,.cls-8{mix-blend-mode:multiply;}.cls-6,.cls-8{opacity:0.4;}.cls-6{fill:url(#linear-gradient-2);}.cls-7{fill:#0099ac;}.cls-8{fill:url(#linear-gradient-3);}.cls-9{fill:none;}.cls-10{fill:#252525;}</style><linearGradient id="linear-gradient" x1="18.92" y1="11.11" x2="22.1" y2="7.21" gradientUnits="userSpaceOnUse"><stop offset="0"/><stop offset="0.14" stop-color="#303030"/><stop offset="0.38" stop-color="#797979"/><stop offset="0.59" stop-color="#b2b2b2"/><stop offset="0.77" stop-color="#dcdcdc"/><stop offset="0.92" stop-color="#f6f6f6"/><stop offset="1" stop-color="#fff"/></linearGradient><linearGradient id="linear-gradient-2" x1="3.09" y1="22.93" x2="15.71" y2="22.93" xlink:href="#linear-gradient"/><linearGradient id="linear-gradient-3" x1="-37.46" y1="1199.65" x2="-24.83" y2="1199.65" gradientTransform="translate(-24.83 1203.05) rotate(180)" xlink:href="#linear-gradient"/></defs><g class="cls-1"><g id="Layer_2" data-name="Layer 2"><g id="Layer_1-2" data-name="Layer 1"><path class="cls-2" d="M1,15.91H9.3a1,1,0,0,0,.86-.51,1,1,0,0,0,.13-.48v-3.5a1,1,0,0,0-1-1H1a1,1,0,0,0-1,1v3.5A1,1,0,0,0,1,15.91Z"/><path class="cls-3" d="M19,8.18a6.14,6.14,0,0,1,.69-2.84.28.28,0,0,1,0-.09l-4.18,5.06a4.31,4.31,0,0,0,0,5.49l2,2.4,1.29,1.56,2.76,3.33L23.11,25h0l.8,1a1.24,1.24,0,0,0,.88.43h0a1.33,1.33,0,0,0,.52-.13h0a1.62,1.62,0,0,0,.41-.27l.13-.13,2.19-2.15A1.24,1.24,0,0,0,28.15,22l-.7-.84L25.06,18.3l-3.32-4a2,2,0,0,1-.45-1.23l-.08-.16A6.22,6.22,0,0,1,19,8.18Z"/><path class="cls-4" d="M28.21,3.54a1.11,1.11,0,0,0-.34-.73L25.51.37A1.3,1.3,0,0,0,24.88,0h0a1.36,1.36,0,0,0-.29,0,1.22,1.22,0,0,0-.9.44L21.57,3V3L19.72,5.25a.28.28,0,0,0,0,.09h0A6.14,6.14,0,0,0,19,8.18a6.22,6.22,0,0,0,2.19,4.74l.08.16a2,2,0,0,1,.46-1.29l6.18-7.33A1.18,1.18,0,0,0,28.21,3.54Z"/><path class="cls-5" d="M28.21,3.54a1.11,1.11,0,0,0-.34-.73L25.51.37A1.3,1.3,0,0,0,24.88,0h0a1.36,1.36,0,0,0-.29,0,1.22,1.22,0,0,0-.9.44L21.57,3V3L19.72,5.25a.28.28,0,0,0,0,.09h0A6.14,6.14,0,0,0,19,8.18a6.22,6.22,0,0,0,2.19,4.74l.08.16a2,2,0,0,1,.46-1.29l6.18-7.33A1.18,1.18,0,0,0,28.21,3.54Z"/><path class="cls-2" d="M7.77,20.19H1a1.14,1.14,0,0,0-.33.06,1,1,0,0,0-.66.93v3.51a1,1,0,0,0,1,1h2.1a10,10,0,0,1,4.7-5.48h0"/><path class="cls-2" d="M3.09,25.67H14.72a1,1,0,0,0,1-1V21.18a1,1,0,0,0-1-1H7.79A10,10,0,0,0,3.09,25.67Z"/><path class="cls-6" d="M3.09,25.67H14.72a1,1,0,0,0,1-1V21.18a1,1,0,0,0-1-1H7.79A10,10,0,0,0,3.09,25.67Z"/><path class="cls-7" d="M14.68.67h-2A9.94,9.94,0,0,1,7.92,6.15h6.8a1.14,1.14,0,0,0,.33-.06,1,1,0,0,0,.66-.93V1.65a1,1,0,0,0-1-1h0"/><path class="cls-7" d="M12.63.67H1a1,1,0,0,0-1,1V5.16a1,1,0,0,0,1,1H7.92A9.94,9.94,0,0,0,12.63.67Z"/><path class="cls-8" d="M12.63.67H1a1,1,0,0,0-1,1V5.16a1,1,0,0,0,1,1H7.92A9.94,9.94,0,0,0,12.63.67Z"/><path class="cls-9" d="M107.42,11.25a3.67,3.67,0,0,0-2.45.87,3.37,3.37,0,0,0-1.16,2.07h7.3a3.44,3.44,0,0,0-1.15-2.1A3.83,3.83,0,0,0,107.42,11.25Z"/><path class="cls-9" d="M66.42,11.25a3.67,3.67,0,0,0-2.45.87,3.37,3.37,0,0,0-1.16,2.07h7.3A3.44,3.44,0,0,0,69,12.09,3.83,3.83,0,0,0,66.42,11.25Z"/><polygon class="cls-10" points="41.59 14.81 49.57 14.81 49.57 11.59 41.59 11.59 41.59 6.52 51.27 6.52 51.27 3.21 37.91 3.21 37.91 23.45 51.61 23.45 51.61 20.14 41.59 20.14 41.59 14.81"/><rect class="cls-10" x="53.53" y="3.21" width="3.48" height="20.23"/><path class="cls-10" d="M70.1,9.24a8,8,0,0,0-3.79-.88,7.43,7.43,0,0,0-3.77,1A6.62,6.62,0,0,0,60,12a8.6,8.6,0,0,0-.91,4A8.24,8.24,0,0,0,60,20a6.71,6.71,0,0,0,2.69,2.67,8.33,8.33,0,0,0,4.05.95,6.92,6.92,0,0,0,4.48-1.47,6.09,6.09,0,0,0,2.21-3.75l0-.25H70l0,.16a2.91,2.91,0,0,1-1.19,1.76,3.86,3.86,0,0,1-2.26.63,3.61,3.61,0,0,1-2.7-1,4.29,4.29,0,0,1-1.13-2.81H73.56l0-.18a8.15,8.15,0,0,0,.09-1.19,7.51,7.51,0,0,0-1-3.76A6.6,6.6,0,0,0,70.1,9.24Zm-7.29,4.95A3.37,3.37,0,0,1,64,12.12a3.67,3.67,0,0,1,2.45-.87,3.83,3.83,0,0,1,2.54.84,3.44,3.44,0,0,1,1.15,2.1Z"/><path class="cls-10" d="M92.65,8.36a6.4,6.4,0,0,0-3.1.72,5.62,5.62,0,0,0-1.89,1.71A4.41,4.41,0,0,0,86,9a5.62,5.62,0,0,0-2.79-.68,5.38,5.38,0,0,0-4.12,1.79l-.29-1.62L75.71,9.67V23.45h3.48v-8a4.68,4.68,0,0,1,.88-3,2.75,2.75,0,0,1,2.31-1.08,2.5,2.5,0,0,1,2.11.9,4.37,4.37,0,0,1,.73,2.76v8.37h3.51v-8a4.5,4.5,0,0,1,.87-2.94,2.85,2.85,0,0,1,2.34-1,2.47,2.47,0,0,1,2.1.91,4.45,4.45,0,0,1,.72,2.75v8.37h3.48V15.06c0-2.31-.53-4-1.56-5.09A5.39,5.39,0,0,0,92.65,8.36Z"/><path class="cls-10" d="M111.1,9.24a8,8,0,0,0-3.79-.88,7.43,7.43,0,0,0-3.77,1A6.62,6.62,0,0,0,101,12a8.6,8.6,0,0,0-.91,4,8.24,8.24,0,0,0,.94,4,6.71,6.71,0,0,0,2.69,2.67,8.33,8.33,0,0,0,4,.95,6.9,6.9,0,0,0,4.48-1.47,6.09,6.09,0,0,0,2.21-3.75l0-.25H111l0,.16a2.91,2.91,0,0,1-1.19,1.76,3.86,3.86,0,0,1-2.26.63,3.61,3.61,0,0,1-2.7-1,4.29,4.29,0,0,1-1.13-2.81h10.9l0-.18a8.15,8.15,0,0,0,.09-1.19,7.51,7.51,0,0,0-1-3.76A6.6,6.6,0,0,0,111.1,9.24Zm-7.29,4.95A3.37,3.37,0,0,1,105,12.12a3.67,3.67,0,0,1,2.45-.87,3.83,3.83,0,0,1,2.54.84,3.44,3.44,0,0,1,1.15,2.1Z"/><path class="cls-10" d="M124.57,8.36a5.89,5.89,0,0,0-4.51,1.8l-.3-1.63-3.05,1.14V23.45h3.48V15.93a5.16,5.16,0,0,1,1-3.33,3.26,3.26,0,0,1,2.68-1.18,2.92,2.92,0,0,1,2.41,1,4.67,4.67,0,0,1,.83,3v8h3.51v-8.2c0-2.38-.57-4.15-1.69-5.24A6,6,0,0,0,124.57,8.36Z"/><path class="cls-10" d="M137.68,20A1.48,1.48,0,0,1,137.4,19V11.65h3.48V8.53H137.4v-4l-3.51,1.13V8.53H132.5l-1.13,3.12h2.52V19.3a4.3,4.3,0,0,0,1,3.12,4.29,4.29,0,0,0,3.16,1h3.16V20.33h-2.53A1.34,1.34,0,0,1,137.68,20Z"/><path class="cls-10" d="M152.05,15a16.49,16.49,0,0,0-3.18-.61c-.91-.12-1.58-.21-2-.3a2.23,2.23,0,0,1-.95-.41,1,1,0,0,1-.33-.81,1.38,1.38,0,0,1,.72-1.21,4,4,0,0,1,2-.47,3.54,3.54,0,0,1,2.09.59,2.05,2.05,0,0,1,.9,1.48l0,.19h3.39l0-.23a4.52,4.52,0,0,0-1.94-3.58,7.77,7.77,0,0,0-4.58-1.25,7.68,7.68,0,0,0-3.07.58A5,5,0,0,0,143,10.59a4.11,4.11,0,0,0-.79,2.49,3.49,3.49,0,0,0,.8,2.39,4.53,4.53,0,0,0,2.08,1.27,17.81,17.81,0,0,0,3.16.62c.91.11,1.6.22,2,.32a2.26,2.26,0,0,1,1,.47,1.3,1.3,0,0,1,.32,1,1.36,1.36,0,0,1-.76,1.22,4,4,0,0,1-2.14.49,3.9,3.9,0,0,1-2.4-.68h0a2.2,2.2,0,0,1-1-1.69v-.2h-3.36v.22a4.58,4.58,0,0,0,1.94,3.8,8,8,0,0,0,4.83,1.36,8.47,8.47,0,0,0,3.19-.57,5.26,5.26,0,0,0,2.27-1.65,4,4,0,0,0,.84-2.52,3.82,3.82,0,0,0-.82-2.56A4.66,4.66,0,0,0,152.05,15Z"/><polygon class="cls-10" points="174.36 3.21 169.83 3.21 161.05 13.08 161.05 3.21 157.38 3.21 157.38 23.45 161.05 23.45 161.05 18.14 164.27 14.52 170.38 23.45 174.82 23.45 166.88 11.71 174.36 3.21"/><path class="cls-2" d="M177.42,2.73a2.05,2.05,0,0,0-1.48.59,2,2,0,0,0-.6,1.46,2,2,0,0,0,.6,1.47,2.15,2.15,0,0,0,3,0,2,2,0,0,0,.6-1.47,2,2,0,0,0-.6-1.46A2,2,0,0,0,177.42,2.73Z"/><rect class="cls-10" x="175.68" y="8.53" width="3.48" height="14.91"/><path class="cls-10" d="M187.47,20.33a1.34,1.34,0,0,1-1-.29,1.48,1.48,0,0,1-.28-1.05V11.65h3.48V8.53h-3.48v-4l-3.51,1.13V8.53h-1.39l-1.13,3.12h2.52V19.3a4.3,4.3,0,0,0,1,3.12,4.3,4.3,0,0,0,3.16,1H190V20.33Z"/></g></g></g></svg>