<svg xmlns="http://www.w3.org/2000/svg" xmlns:xlink="http://www.w3.org/1999/xlink" viewBox="0 0 240 34.11"><defs><style>.cls-1{isolation:isolate;}.cls-2{fill:#252525;}.cls-3{fill:url(#linear-gradient);}.cls-4{fill:url(#linear-gradient-2);}.cls-5,.cls-9{fill:#231f20;}.cls-5{opacity:0.2;}.cls-5,.cls-8{mix-blend-mode:multiply;}.cls-6{fill:url(#linear-gradient-3);}.cls-7{fill:url(#linear-gradient-4);}.cls-8{opacity:0.3;}.cls-10{fill:#fff;}</style><linearGradient id="linear-gradient" x1="9.73" y1="9.08" x2="23.14" y2="25.05" gradientUnits="userSpaceOnUse"><stop offset="0" stop-color="#fff"/><stop offset="1" stop-color="#ffbf00"/></linearGradient><linearGradient id="linear-gradient-2" x1="25.37" y1="29.03" x2="4.71" y2="14.81" gradientUnits="userSpaceOnUse"><stop offset="0" stop-color="#f8003c"/><stop offset="1" stop-color="#ff8438"/></linearGradient><linearGradient id="linear-gradient-3" x1="9.82" y1="0.1" x2="8.31" y2="6.9" gradientUnits="userSpaceOnUse"><stop offset="0" stop-color="#00d5c9"/><stop offset="1" stop-color="#fff"/></linearGradient><linearGradient id="linear-gradient-4" x1="8.38" y1="-0.03" x2="8.63" y2="9.79" gradientUnits="userSpaceOnUse"><stop offset="0" stop-color="#0099ac"/><stop offset="1" stop-color="#00d5c9"/></linearGradient></defs><g class="cls-1"><g id="Layer_2" data-name="Layer 2"><g id="Layer_1-2" data-name="Layer 1"><polygon class="cls-2" points="60.29 22.02 56.13 7.31 52.83 7.31 48.53 22.02 44.45 7.39 44.42 7.29 40.74 7.32 46.47 26.82 50.5 26.82 54.35 13.22 58.29 26.82 62.32 26.82 68 7.49 68.05 7.31 64.45 7.31 60.29 22.02"/><path class="cls-2" d="M81.67,8.11A8.05,8.05,0,0,0,78,7.31H70.07V26.82H73.6V20.21H78a8.05,8.05,0,0,0,3.66-.8,5.79,5.79,0,0,0,2.46-2.26A6.57,6.57,0,0,0,85,13.76a6.6,6.6,0,0,0-.87-3.39A5.85,5.85,0,0,0,81.67,8.11ZM73.6,10.42h4.16a3.81,3.81,0,0,1,2.67.9,3.14,3.14,0,0,1,1,2.44,3.17,3.17,0,0,1-1,2.43,3.86,3.86,0,0,1-2.69.91H73.6Z"/><polygon class="cls-2" points="94.44 26.82 97.97 26.82 97.97 18.74 105.72 18.74 105.72 15.65 97.97 15.65 97.97 10.48 107.36 10.48 107.36 7.31 94.44 7.31 94.44 26.82"/><path class="cls-2" d="M118.5,19.39a5.57,5.57,0,0,1-1,3.43,3.11,3.11,0,0,1-2.63,1.23A2.86,2.86,0,0,1,112.5,23a5.1,5.1,0,0,1-.82-3.13V12.06h-3.33v8.12c0,2.36.54,4.11,1.62,5.19A5.78,5.78,0,0,0,114.2,27a5.66,5.66,0,0,0,4.38-1.83l.31,1.66h2.94V12.06H118.5Z"/><path class="cls-2" d="M132.32,11.89a5.77,5.77,0,0,0-4.55,1.89l-.31-1.72-2.91,1.13V26.82h3.33V19.39a5.24,5.24,0,0,1,1-3.38,3.36,3.36,0,0,1,2.73-1.2,3,3,0,0,1,2.47,1,4.76,4.76,0,0,1,.84,3v7.94h3.37V18.71c0-2.37-.57-4.11-1.67-5.19A5.94,5.94,0,0,0,132.32,11.89Z"/><path class="cls-2" d="M151.77,13.8a5.24,5.24,0,0,0-1.72-1.31,6.34,6.34,0,0,0-2.83-.6,7,7,0,0,0-3.58.94,6.69,6.69,0,0,0-2.5,2.66,8.4,8.4,0,0,0-.91,4,8.47,8.47,0,0,0,.9,4,6.31,6.31,0,0,0,2.48,2.63,7.12,7.12,0,0,0,3.61.91,5.68,5.68,0,0,0,4.63-2.14l.34,2h2.92V7.31l-3.34,1.14Zm-4,10.34a3.72,3.72,0,0,1-2.95-1.3,5,5,0,0,1-1.12-3.4,5,5,0,0,1,1.12-3.37,4,4,0,0,1,5.89,0,5.08,5.08,0,0,1,1.13,3.43,5,5,0,0,1-1.13,3.36A3.72,3.72,0,0,1,147.73,24.14Z"/><path class="cls-2" d="M162.55,12.66A4.75,4.75,0,0,0,161.1,14l-.31-1.94-3,1.13V26.82h3.33V19.41a5.24,5.24,0,0,1,.83-3,3,3,0,0,1,2.62-1.17h1.5V12.06h-.82A5.5,5.5,0,0,0,162.55,12.66Z"/><path class="cls-2" d="M179.79,23V17.29a5,5,0,0,0-1.64-4,6.82,6.82,0,0,0-4.58-1.4A7.75,7.75,0,0,0,169,13.12a4.68,4.68,0,0,0-2,3.48v.16h3.27l0-.12a2.13,2.13,0,0,1,1-1.45,3.72,3.72,0,0,1,2.11-.55,3.5,3.5,0,0,1,2.26.66,2.15,2.15,0,0,1,.8,1.8v.73H173a7.71,7.71,0,0,0-4.69,1.23,4.21,4.21,0,0,0-1.64,3.55,3.86,3.86,0,0,0,1.52,3.22,6.41,6.41,0,0,0,4,1.16,5.52,5.52,0,0,0,4.66-2.21,2.26,2.26,0,0,0,.64,1.41,3,3,0,0,0,2.14.63h1.75V23.88h-.74C180.05,23.88,179.79,23.6,179.79,23Zm-7.21,1.32a3,3,0,0,1-1.88-.53,1.67,1.67,0,0,1-.67-1.39,1.72,1.72,0,0,1,.71-1.51,3.53,3.53,0,0,1,2.09-.52h3.65v.36a3.56,3.56,0,0,1-1,2.62A4,4,0,0,1,172.58,24.33Z"/><rect class="cls-2" x="182.72" y="12.63" width="3.34" height="14.19"/><path class="cls-2" d="M184.39,7.4A2,2,0,0,0,183,8a1.89,1.89,0,0,0-.58,1.42,1.87,1.87,0,0,0,.58,1.41,2.07,2.07,0,0,0,2.85,0,1.91,1.91,0,0,0,.58-1.41A1.93,1.93,0,0,0,185.82,8,2,2,0,0,0,184.39,7.4Z"/><path class="cls-2" d="M198.29,18.47a16.23,16.23,0,0,0-3.17-.61c-.91-.11-1.59-.21-2-.29a2.28,2.28,0,0,1-1-.43,1,1,0,0,1-.36-.86,1.44,1.44,0,0,1,.75-1.27,4,4,0,0,1,2.08-.49,3.57,3.57,0,0,1,2.12.61,2.15,2.15,0,0,1,.93,1.53l0,.13h3.24v-.16A4.48,4.48,0,0,0,199,13.11a8.69,8.69,0,0,0-7.57-.67,5.07,5.07,0,0,0-2.13,1.65,4.09,4.09,0,0,0-.77,2.44,3.38,3.38,0,0,0,.78,2.34,4.46,4.46,0,0,0,2,1.26,18.59,18.59,0,0,0,3.14.61c.92.11,1.61.22,2,.32a2.29,2.29,0,0,1,1,.49,1.34,1.34,0,0,1,.35,1,1.43,1.43,0,0,1-.8,1.28,4.2,4.2,0,0,1-2.17.5,4,4,0,0,1-2.45-.69,2.29,2.29,0,0,1-1-1.75v-.13h-3.22v.15a4.58,4.58,0,0,0,1.91,3.74A8,8,0,0,0,195,27a8.59,8.59,0,0,0,3.16-.56,5.15,5.15,0,0,0,2.23-1.63,3.93,3.93,0,0,0,.82-2.47,3.72,3.72,0,0,0-.79-2.51A4.58,4.58,0,0,0,198.29,18.47Z"/><path class="cls-2" d="M205.06,7.4a2,2,0,0,0-1.43.56,1.93,1.93,0,0,0-.58,1.42,1.91,1.91,0,0,0,.58,1.41,1.94,1.94,0,0,0,1.43.57,2,2,0,0,0,1.43-.57,1.9,1.9,0,0,0,.57-1.41A1.92,1.92,0,0,0,206.49,8,2,2,0,0,0,205.06,7.4Z"/><rect class="cls-2" x="203.39" y="12.63" width="3.34" height="14.19"/><path class="cls-2" d="M217.21,11.89a5.8,5.8,0,0,0-4.55,1.89l-.3-1.72-2.92,1.13V26.82h3.33V19.39a5.18,5.18,0,0,1,1-3.38,3.33,3.33,0,0,1,2.73-1.2,3,3,0,0,1,2.46,1,4.76,4.76,0,0,1,.84,3v7.94h3.37V18.71c0-2.37-.56-4.12-1.67-5.19A5.93,5.93,0,0,0,217.21,11.89Z"/><path class="cls-2" d="M237.08,12.06l-.31,2A5.52,5.52,0,0,0,235,12.56a6,6,0,0,0-2.9-.67,7,7,0,0,0-3.58.94A6.67,6.67,0,0,0,226,15.47a8.16,8.16,0,0,0-.91,3.92,8.47,8.47,0,0,0,.89,4,6.43,6.43,0,0,0,2.49,2.6,7.16,7.16,0,0,0,3.6.91,5.48,5.48,0,0,0,4.58-2.08V26c0,2.63-1.31,3.91-4,3.91a4.57,4.57,0,0,1-2.55-.65,2.82,2.82,0,0,1-1.25-1.79l0-.11h-3.38l0,.15a5,5,0,0,0,2.09,3.82,8.22,8.22,0,0,0,4.86,1.35c2.55,0,4.47-.58,5.69-1.72A6.3,6.3,0,0,0,240,26.09v-14Zm-4.46,12a3.74,3.74,0,0,1-3-1.28,5,5,0,0,1-1.12-3.35A5,5,0,0,1,229.67,16a4,4,0,0,1,5.9,0,5.08,5.08,0,0,1,1.12,3.4,4.89,4.89,0,0,1-1.12,3.32A3.75,3.75,0,0,1,232.62,24Z"/><path class="cls-3" d="M32.82,14.09C30,9.49,26.48,9.1,25,8.9a10.58,10.58,0,0,0-7.66,2.52l-.25.22s-.44.44-1.49,1.57c-.29.36-2.56,3.08-3.32,4.12s-2.23,3.26-2.41,3.52-.3.59-.19.69.41.06.78-.23,1.1-1.1,1.28-1.24.51-.36.63-.19-.08.45-.33.81-1.32,1.6-1.5,1.8-.69,1-.54,1.16.43.07.82-.23,2-1.92,2.13-2.07.32-.26.37-.22,0,.2-.08.28-.15.28-.65,1c-.23.29-1.34,2.06-1.54,2.35s-.32.95-.19,1,.57-.22,1-.65c.25-.26,1.73-2.31,2-2.6s.55-.73.7-.65,0,.46-.35,1c-.12.22-.94,1.82-1.15,2.28s-.16.95,0,1c.5.08.92-.69,1.1-1s.94-1.73,1.27-2.24.55-.58.69-.52.1.36,0,.59-.52,1.51-.67,2,0,.89.15,1c.48.16.65-.11.83-.56s1.29-2.67,1.95-4.24a49.33,49.33,0,0,1,3-5.43c.51-.72.8-.68.94-.62s.16.4,0,.71c0,.12-.4.91-.51,1.18s-.15.63-.08.66c.23.06.37-.22.5-.45s.87-1.7,1.11-2.1.52-.67.68-.54.07.52-.1,1.09-.61,1.45-.75,1.85-.19.7-.12.71.27-.15.58-.67c.2-.29.89-1.77,1.16-2.25s.62-.59.73-.49.06.64-.05,1-.55,1.47-.82,2.12c-.17.37-.25,1-.16,1,.25,0,.32-.22.54-.55s.8-1.6,1.08-2,.56-.5.68-.36,0,.58-.14,1.12c-.16.34-1.13,2.49-1.36,3s-.12.76,0,.77a.83.83,0,0,0,.62-.35c.15-.19.66-.89,1.05-1.44s.61-.54.78-.5.28.41.09,1a19.51,19.51,0,0,1-3.18,5A19.14,19.14,0,0,1,18,30c-2.62,1.49-6.42,1.46-8.14,1.35a4.87,4.87,0,0,1-.55-.06C12.6,34.62,17,34.13,18.48,34a19.76,19.76,0,0,0,10.63-5.28C33.2,24.65,33.52,22,34,20.21A8.89,8.89,0,0,0,32.82,14.09Z"/><path class="cls-4" d="M8.13,31a5.92,5.92,0,0,0,1.71.35c1.72.11,5.52.14,8.14-1.35a19.14,19.14,0,0,0,6.65-5.47,19.51,19.51,0,0,0,3.18-5c.19-.58.07-.95-.09-1s-.43,0-.78.5-.9,1.25-1.05,1.44a.83.83,0,0,1-.62.35c-.09,0-.2-.3,0-.77s1.2-2.68,1.36-3c.18-.54.27-.94.14-1.12s-.39-.08-.68.36-.94,1.83-1.08,2-.29.59-.54.55c-.09,0,0-.63.16-1,.27-.65.73-1.91.82-2.12s.16-.85.05-1-.47,0-.73.49-1,2-1.16,2.25c-.31.52-.39.72-.58.67s0-.39.12-.71.59-1.34.75-1.85.26-1,.1-1.09-.5.2-.68.54-1,1.95-1.11,2.1-.27.51-.5.45c-.07,0,0-.4.08-.66s.48-1.06.51-1.18c.12-.32.11-.65,0-.71s-.43-.1-.94.62a49.33,49.33,0,0,0-3,5.43c-.66,1.57-1.78,3.8-1.95,4.24s-.35.72-.83.56c-.17-.07-.29-.47-.15-1s.61-1.79.67-2,.12-.53,0-.59-.43.08-.69.52-1.08,1.88-1.27,2.24-.6,1.12-1.1,1c-.17,0-.23-.54,0-1s1-2.06,1.15-2.28c.3-.55.5-.93.35-1s-.5.39-.7.65-1.7,2.34-2,2.6c-.42.43-.72.8-1,.65s0-.72.19-1,1.31-2.06,1.54-2.35c.5-.73.61-1,.65-1s.13-.24.08-.28-.24.07-.37.22-1.79,1.83-2.13,2.07-.68.43-.82.23.35-.95.54-1.16,1.28-1.5,1.5-1.8.44-.65.33-.81-.44.05-.63.19-1,1-1.28,1.24-.61.42-.78.23.06-.52.19-.69,1.72-2.56,2.41-3.52,3-3.76,3.32-4.12c1.05-1.13,1.49-1.57,1.49-1.57A9.81,9.81,0,0,0,12,9c-1.81-.19-4.4-.8-8.5,2.45A10.79,10.79,0,0,0,0,18.2a13.22,13.22,0,0,0,1.66,7.51A12.21,12.21,0,0,0,8.13,31Z"/><circle class="cls-5" cx="8.51" cy="7.79" r="6.12"/><circle class="cls-6" cx="8.51" cy="6" r="6"/><circle class="cls-7" cx="8.51" cy="4.9" r="4.9"/><g class="cls-8"><path class="cls-9" d="M10.67,6.86a1.43,1.43,0,0,1-1.34.92v.61a.2.2,0,0,1-.2.2h-.4a.2.2,0,0,1-.2-.2V7.78A1.7,1.7,0,0,1,7.44,7.4a.21.21,0,0,1,0-.31l.44-.42a.2.2,0,0,1,.25,0,.71.71,0,0,0,.43.13h.83a.37.37,0,0,0,.38-.37A.38.38,0,0,0,9.47,6L8.18,5.67A1.45,1.45,0,0,1,7.12,4.45,1.38,1.38,0,0,1,8.49,2.94h0v-.6a.2.2,0,0,1,.2-.21h.4a.2.2,0,0,1,.2.21v.6a1.78,1.78,0,0,1,1.09.38.21.21,0,0,1,0,.31L10,4.06a.21.21,0,0,1-.25,0A.8.8,0,0,0,9.33,4H8.49a.38.38,0,0,0-.37.37.38.38,0,0,0,.27.36l1.36.4A1.38,1.38,0,0,1,10.67,6.86Z"/></g><path class="cls-10" d="M10.24,6.4a1.41,1.41,0,0,1-1.33.91v.61a.2.2,0,0,1-.2.2h-.4a.2.2,0,0,1-.21-.2v-.6A1.8,1.8,0,0,1,7,6.94a.2.2,0,0,1,0-.31l.44-.43a.18.18,0,0,1,.24,0,.84.84,0,0,0,.44.13h.83a.37.37,0,0,0,.37-.37.38.38,0,0,0-.26-.36L7.75,5.2A1.43,1.43,0,0,1,6.7,4a1.37,1.37,0,0,1,1.37-1.5h0V1.87a.2.2,0,0,1,.21-.2h.4a.2.2,0,0,1,.2.2v.61A1.77,1.77,0,0,1,10,2.85a.21.21,0,0,1,0,.31l-.44.43a.18.18,0,0,1-.24,0,.76.76,0,0,0-.43-.14H8.07a.38.38,0,0,0-.37.38A.36.36,0,0,0,8,4.21l1.36.4A1.38,1.38,0,0,1,10.24,6.4Z"/></g></g></g></svg>