<svg xmlns="http://www.w3.org/2000/svg" xmlns:xlink="http://www.w3.org/1999/xlink" viewBox="0 0 170 31.12"><defs><style>.cls-1{isolation:isolate;}.cls-2{fill:#252525;}.cls-3{fill:url(#linear-gradient);}.cls-4{fill:url(#linear-gradient-2);}.cls-5{fill:#f2f2f2;}.cls-6{opacity:0.2;mix-blend-mode:multiply;}.cls-7{fill:#0099ac;}.cls-8{fill:#f8003c;}.cls-9{fill:#fff;opacity:0.06;mix-blend-mode:screen;}</style><linearGradient id="linear-gradient" x1="19.36" y1="1.72" x2="26.13" y2="22.81" gradientUnits="userSpaceOnUse"><stop offset="0" stop-color="#f8003c"/><stop offset="1" stop-color="#ff8438"/></linearGradient><linearGradient id="linear-gradient-2" x1="13.14" y1="-0.18" x2="9.69" y2="32.79" gradientUnits="userSpaceOnUse"><stop offset="0.07" stop-color="#00d5c9"/><stop offset="0.63" stop-color="#0099ac"/></linearGradient></defs><g class="cls-1"><g id="Layer_2" data-name="Layer 2"><g id="Layer_1-2" data-name="Layer 1"><polygon class="cls-2" points="59.28 21.14 55.04 5.58 51.68 5.58 47.3 21.14 43.14 5.65 43.11 5.55 39.35 5.58 45.2 26.04 49.31 26.04 53.23 11.6 57.24 26.04 61.35 26.04 67.15 5.76 67.2 5.58 63.53 5.58 59.28 21.14"/><path class="cls-2" d="M81.08,6.38a8.35,8.35,0,0,0-3.73-.8h-8.1V26h3.61V18.72h4.49a8.22,8.22,0,0,0,3.73-.81,6,6,0,0,0,2.51-2.3,6.77,6.77,0,0,0,.88-3.46,6.74,6.74,0,0,0-.88-3.46A6,6,0,0,0,81.08,6.38ZM72.86,8.75h4.23a3.88,3.88,0,0,1,2.73.91,3.21,3.21,0,0,1,1,2.49,3.22,3.22,0,0,1-1,2.47,3.9,3.9,0,0,1-2.74.93H72.86Z"/><path class="cls-2" d="M105.91,14.9a17.22,17.22,0,0,0-3.4-.94c-1.28-.22-2.27-.44-3-.63A3.8,3.8,0,0,1,98,12.5a1.88,1.88,0,0,1-.57-1.45,2.37,2.37,0,0,1,1-2,4.58,4.58,0,0,1,2.73-.74A4.52,4.52,0,0,1,104,9.2a3.5,3.5,0,0,1,1.3,2.41v.13h3.54v-.15a6.27,6.27,0,0,0-1.09-3.3A6.9,6.9,0,0,0,105,6,9.8,9.8,0,0,0,97.31,6a6.17,6.17,0,0,0-2.6,2.16,5.56,5.56,0,0,0-.93,3.16,5,5,0,0,0,.91,3.12A5.54,5.54,0,0,0,97,16.16a17.73,17.73,0,0,0,3.39.91,28.77,28.77,0,0,1,3,.66,4,4,0,0,1,1.63.88,2,2,0,0,1,.57,1.49,2.4,2.4,0,0,1-1.07,2.09,5,5,0,0,1-2.9.76,5.14,5.14,0,0,1-3.33-1,3.86,3.86,0,0,1-1.4-2.77V19L93.34,19v.14a6.6,6.6,0,0,0,1.07,3.61,7.08,7.08,0,0,0,2.9,2.46,9.9,9.9,0,0,0,4.27.88,9.16,9.16,0,0,0,3.92-.81A6.49,6.49,0,0,0,108.22,23a5.76,5.76,0,0,0,1-3.28,4.75,4.75,0,0,0-.93-3.06A5.68,5.68,0,0,0,105.91,14.9Z"/><path class="cls-2" d="M122.62,11.62a8.73,8.73,0,0,0-8,0,6.7,6.7,0,0,0-2.71,2.72,8.19,8.19,0,0,0-1,4,8.2,8.2,0,0,0,1,4,6.55,6.55,0,0,0,2.71,2.71,8.81,8.81,0,0,0,8,0,6.61,6.61,0,0,0,2.71-2.71,8.31,8.31,0,0,0,1-4,8.3,8.3,0,0,0-1-4A6.7,6.7,0,0,0,122.62,11.62Zm-4,11.48a3.82,3.82,0,0,1-3-1.32,5.11,5.11,0,0,1-1.15-3.44,5.08,5.08,0,0,1,1.15-3.43,3.79,3.79,0,0,1,3-1.32,3.86,3.86,0,0,1,3,1.32,5,5,0,0,1,1.16,3.43,5.06,5.06,0,0,1-1.16,3.44A3.89,3.89,0,0,1,118.62,23.1Z"/><path class="cls-2" d="M135.45,13.59a3.5,3.5,0,0,1,2.24.72,3.41,3.41,0,0,1,1.22,1.94l0,.1h3.48l0-.16a6.45,6.45,0,0,0-2.24-4.05,7,7,0,0,0-4.61-1.49,8.13,8.13,0,0,0-4,.95,6.65,6.65,0,0,0-2.66,2.7,8.25,8.25,0,0,0-.94,4,8.67,8.67,0,0,0,.92,4.05,6.53,6.53,0,0,0,2.64,2.72,7.86,7.86,0,0,0,3.93,1,7.16,7.16,0,0,0,4.67-1.49,6.46,6.46,0,0,0,2.27-4.11l0-.17H139l0,.12a3.4,3.4,0,0,1-1.19,2,3.9,3.9,0,0,1-5.2-.59,5.24,5.24,0,0,1-1.11-3.47,5.12,5.12,0,0,1,1.11-3.42A3.61,3.61,0,0,1,135.45,13.59Z"/><path class="cls-2" d="M146.31,9.12a2,2,0,0,0,1.46-.57,2,2,0,0,0,.59-1.45,2,2,0,0,0-.59-1.44,2.14,2.14,0,0,0-2.91,0,2,2,0,0,0-.59,1.44,2,2,0,0,0,.59,1.45A2,2,0,0,0,146.31,9.12Z"/><rect class="cls-2" x="144.61" y="10.99" width="3.4" height="15.04"/><path class="cls-2" d="M163.6,22V16.15a5.1,5.1,0,0,0-1.66-4.08,7,7,0,0,0-4.68-1.42,7.82,7.82,0,0,0-4.6,1.25,4.72,4.72,0,0,0-2,3.55l0,.16H154l0-.12A2.12,2.12,0,0,1,155,14a3.76,3.76,0,0,1,2.15-.57,3.54,3.54,0,0,1,2.3.68,2.19,2.19,0,0,1,.81,1.83v.75h-3.57A7.88,7.88,0,0,0,151.87,18a4.3,4.3,0,0,0-1.67,3.62,3.92,3.92,0,0,0,1.56,3.28A6.47,6.47,0,0,0,155.82,26a5.62,5.62,0,0,0,4.75-2.26,2.29,2.29,0,0,0,.66,1.44,3.08,3.08,0,0,0,2.17.64h1.79v-3h-.75C163.87,22.87,163.6,22.58,163.6,22Zm-7.35,1.36a3,3,0,0,1-1.91-.55,1.68,1.68,0,0,1-.68-1.41,1.77,1.77,0,0,1,.72-1.54,3.58,3.58,0,0,1,2.13-.54h3.72v.38a3.66,3.66,0,0,1-1.06,2.66A4.07,4.07,0,0,1,156.25,23.33Z"/><rect class="cls-2" x="166.6" y="5.58" width="3.4" height="20.46"/><path class="cls-3" d="M31.12,15.56A15.56,15.56,0,0,1,20.45,30.34c3.43-1.29,11.45-10.86,3.79-18.49a9,9,0,0,0-1.4-1.18h0A11,11,0,0,0,18.74,9h0l-.22,0a13.81,13.81,0,0,0-1.59-.16c4.86,0,5.31-7.54,1.09-8.63h0a16.43,16.43,0,0,1,1.69.37l.62.18A15.58,15.58,0,0,1,31.12,15.56Z"/><path class="cls-4" d="M20.45,30.34A15.56,15.56,0,1,1,15.56,0,16.56,16.56,0,0,1,18,.19h0c4.22,1.09,3.77,8.62-1.09,8.63h-.44l-.87,0c-4,.28-7.37,2.5-8.45,5.47h0c-1.6,3.82.45,10.3,9.32,9.67l.72,0C21.33,24.06,23.3,28,20.45,30.34Z"/><path class="cls-5" d="M20.45,30.34c2.85-2.37.88-6.28-3.24-6.38l-.72,0c-8.87.63-10.92-5.85-9.32-9.67h0c1.16-3.18,4.89-5.5,9.32-5.5a12.44,12.44,0,0,1,1.37.08,11.72,11.72,0,0,1,1.82.35,9.89,9.89,0,0,1,4.56,2.61C31.9,19.48,23.88,29.05,20.45,30.34Z"/><path class="cls-6" d="M20.45,30.34c-.33.11-.66.2-1,.29,2-1.68.46-4.8-3.21-5.37-.24,0-.48,0-.72-.07-8.88-.52-10.26-6.88-8.47-10.62,0,0,0,.09,0,.14l0,.1,0,.12,0,.11,0,.09,0,.11a6,6,0,0,0-.13.74.28.28,0,0,0,0,.09.49.49,0,0,0,0,.12s0,.1,0,.15v.09a.62.62,0,0,0,0,.13.76.76,0,0,1,0,.15C6.6,20.34,9.31,24.49,16.49,24l.72,0C21.33,24.06,23.3,28,20.45,30.34Z"/><path class="cls-6" d="M18.74,9h0l-.22,0a13.81,13.81,0,0,0-1.59-.16c4.86,0,5.31-7.54,1.09-8.63h0q.66.11,1.29.27a2.66,2.66,0,0,1,.91.4C23.26,3,22.33,8.54,18.74,9Z"/><circle class="cls-7" cx="12.49" cy="17.37" r="0.97"/><circle class="cls-8" cx="16.93" cy="17.37" r="0.97"/><circle class="cls-2" cx="21.36" cy="17.37" r="0.97"/><path class="cls-9" d="M16.93,8.82h-.44l-.87,0C5.9,9.37,1.33,16,.9,20.78A15.56,15.56,0,0,1,15.56,0,16.56,16.56,0,0,1,18,.19h0C22.24,1.28,21.79,8.81,16.93,8.82Z"/><path class="cls-9" d="M7.21,28.7a15.57,15.57,0,0,1,0-26.25C1.06,10.53,2.94,23.39,7.21,28.7Z"/></g></g></g></svg>