<svg xmlns="http://www.w3.org/2000/svg" xmlns:xlink="http://www.w3.org/1999/xlink" viewBox="0 0 290 32.47"><defs><style>.cls-1{fill:url(#linear-gradient);}.cls-2{fill:#252525;}.cls-3{fill:url(#linear-gradient-2);}.cls-4{fill:#fff;}</style><linearGradient id="linear-gradient" x1="2.49" y1="7.68" x2="25.1" y2="22.18" gradientUnits="userSpaceOnUse"><stop offset="0" stop-color="#f8003c"/><stop offset="1" stop-color="#ff8438"/></linearGradient><linearGradient id="linear-gradient-2" x1="9.45" y1="4.59" x2="44.52" y2="4.59" gradientUnits="userSpaceOnUse"><stop offset="0" stop-color="#00d5c9"/><stop offset="0.84" stop-color="#0099ac"/></linearGradient></defs><g id="Layer_2" data-name="Layer 2"><g id="Layer_1-2" data-name="Layer 1"><path class="cls-1" d="M3.67,12.84a1.14,1.14,0,0,1,1.15.91A1.1,1.1,0,0,1,3.74,15H2.25A1.13,1.13,0,0,0,1.11,16a1.09,1.09,0,0,0,1.08,1.27h.19v6.47A2.72,2.72,0,0,0,5.1,26.42H8.75a1.18,1.18,0,0,1,.85.36l5.24,5.55a.46.46,0,0,0,.8-.32V27.26a.85.85,0,0,1,.85-.84h15.3a2.72,2.72,0,0,0,2.72-2.73v-13H10.91A2.93,2.93,0,0,1,8,7.71V6H5.1A2.72,2.72,0,0,0,2.38,8.69V10a.66.66,0,0,1-.66.65H1.15a1.13,1.13,0,0,0-1.13.9,1.1,1.1,0,0,0,1.07,1.3Z"/><polygon class="cls-2" points="71.23 21.55 67.38 7.43 64.33 7.43 60.35 21.56 56.58 7.5 56.55 7.4 53.14 7.43 58.44 26 62.17 26 65.74 12.89 69.38 26 73.11 26 78.36 7.6 78.41 7.43 75.08 7.43 71.23 21.55"/><path class="cls-2" d="M91,8.16a7.57,7.57,0,0,0-3.38-.73H80.28V26h3.27V19.36h4.08A7.44,7.44,0,0,0,91,18.62a5.37,5.37,0,0,0,2.28-2.09,6.06,6.06,0,0,0,.8-3.14,6.11,6.11,0,0,0-.8-3.14A5.43,5.43,0,0,0,91,8.16Zm-7.46,2.15h3.84a3.54,3.54,0,0,1,2.48.83,2.92,2.92,0,0,1,.9,2.25,2.91,2.91,0,0,1-.92,2.25,3.51,3.51,0,0,1-2.48.84H83.55Z"/><path class="cls-2" d="M114.15,18.18a6.07,6.07,0,0,1-1,3.8A3.75,3.75,0,0,1,110,23.23,3.66,3.66,0,0,1,107,22a6.08,6.08,0,0,1-1-3.8V7.43h-3.27V18a8.83,8.83,0,0,0,1.86,6.05A7,7,0,0,0,110,26.16a7,7,0,0,0,5.5-2.09A8.73,8.73,0,0,0,117.42,18V7.43h-3.27Z"/><rect class="cls-2" x="120.11" y="7.43" width="3.09" height="18.57"/><path class="cls-2" d="M129.08,23a1.45,1.45,0,0,1-.28-1V15.09H131l1-2.74H128.8V7.4l-3.09,1V22.23a3.93,3.93,0,0,0,.9,2.84,3.85,3.85,0,0,0,2.87.93h2.85V23.25h-2.28A1.32,1.32,0,0,1,129.08,23Z"/><path class="cls-2" d="M135.15,7a1.83,1.83,0,0,0-1.32.53,1.76,1.76,0,0,0-.53,1.31,1.75,1.75,0,0,0,.53,1.3,1.91,1.91,0,0,0,2.64,0,1.72,1.72,0,0,0,.54-1.3,1.73,1.73,0,0,0-.54-1.31A1.81,1.81,0,0,0,135.15,7Z"/><rect class="cls-2" x="133.61" y="12.35" width="3.09" height="13.65"/><path class="cls-2" d="M154.8,12.19a5.73,5.73,0,0,0-2.84.66,5.17,5.17,0,0,0-1.78,1.64,4,4,0,0,0-1.6-1.68,5.15,5.15,0,0,0-2.55-.62,4.89,4.89,0,0,0-3.84,1.73l-.28-1.57-2.7,1V26h3.08V18.7a4.37,4.37,0,0,1,.83-2.79,2.61,2.61,0,0,1,2.18-1,2.43,2.43,0,0,1,2,.86,4.18,4.18,0,0,1,.69,2.6V26h3.11V18.62a4.25,4.25,0,0,1,.82-2.75,2.74,2.74,0,0,1,2.21-1,2.35,2.35,0,0,1,2,.87,4.19,4.19,0,0,1,.68,2.59V26h3.09V18.31a6.52,6.52,0,0,0-1.42-4.65A4.92,4.92,0,0,0,154.8,12.19Z"/><path class="cls-2" d="M173.84,22.47V17.19a4.64,4.64,0,0,0-1.51-3.71,6.35,6.35,0,0,0-4.25-1.29,7.07,7.07,0,0,0-4.18,1.14,4.31,4.31,0,0,0-1.83,3.22l0,.14h3l0-.11a2,2,0,0,1,.9-1.34,3.45,3.45,0,0,1,1.95-.51,3.19,3.19,0,0,1,2.09.61,2,2,0,0,1,.74,1.66v.68h-3.24a7.18,7.18,0,0,0-4.35,1.14,3.9,3.9,0,0,0-1.51,3.28,3.55,3.55,0,0,0,1.41,3,5.85,5.85,0,0,0,3.69,1.08,5.11,5.11,0,0,0,4.31-2.05,2.08,2.08,0,0,0,.59,1.31,2.85,2.85,0,0,0,2,.58h1.62V23.28h-.68C174.08,23.28,173.84,23,173.84,22.47Zm-6.67,1.23a2.77,2.77,0,0,1-1.74-.5,1.53,1.53,0,0,1-.61-1.28,1.61,1.61,0,0,1,.65-1.4A3.27,3.27,0,0,1,167.4,20h3.38v.34a3.27,3.27,0,0,1-1,2.41A3.66,3.66,0,0,1,167.17,23.7Z"/><path class="cls-2" d="M180.81,23a1.5,1.5,0,0,1-.27-1V15.09h3.21V12.35h-3.21v-5L177.42,8.4v3.95h-1.28l-1,2.74h2.33v7.14a3.89,3.89,0,0,0,.92,2.84,3.88,3.88,0,0,0,2.88.93H183l1-2.75h-2.28A1.35,1.35,0,0,1,180.81,23Z"/><path class="cls-2" d="M194.66,13a7.35,7.35,0,0,0-3.48-.8,6.78,6.78,0,0,0-3.45.87,5.94,5.94,0,0,0-2.35,2.46,7.74,7.74,0,0,0-.84,3.68,7.54,7.54,0,0,0,.86,3.65,6.15,6.15,0,0,0,2.46,2.44,7.59,7.59,0,0,0,3.71.87,6.3,6.3,0,0,0,4.1-1.34,5.59,5.59,0,0,0,2-3.43l0-.15h-3.08l0,.1A2.8,2.8,0,0,1,193.49,23a3.64,3.64,0,0,1-2.13.59,3.4,3.4,0,0,1-2.54-1,4,4,0,0,1-1.07-2.68v0h10.08l0-.12a8,8,0,0,0,.08-1.09,7,7,0,0,0-.89-3.44A6,6,0,0,0,194.66,13Zm-6.78,4.59a3.13,3.13,0,0,1,1.1-2,3.44,3.44,0,0,1,2.31-.82,3.56,3.56,0,0,1,2.38.79,3.24,3.24,0,0,1,1.1,2.06Z"/><path class="cls-2" d="M219.8,16.69a5.64,5.64,0,0,0,1-3.3,5.93,5.93,0,0,0-.82-3.14,5.46,5.46,0,0,0-2.29-2.09,7.6,7.6,0,0,0-3.4-.73h-7.35V26h3.27V19.36h3.87L217.55,26h3.64l-3.9-7.36A5.27,5.27,0,0,0,219.8,16.69Zm-9.6-6.38H214a3.56,3.56,0,0,1,2.49.84,2.88,2.88,0,0,1,.91,2.24,2.9,2.9,0,0,1-.91,2.25,3.56,3.56,0,0,1-2.49.84H210.2Z"/><path class="cls-2" d="M232,13a7.34,7.34,0,0,0-3.47-.8,6.81,6.81,0,0,0-3.46.87,6,6,0,0,0-2.35,2.46,7.74,7.74,0,0,0-.84,3.68,7.46,7.46,0,0,0,.87,3.65,6.08,6.08,0,0,0,2.46,2.44,7.59,7.59,0,0,0,3.71.87,6.3,6.3,0,0,0,4.1-1.34,5.59,5.59,0,0,0,2-3.43l0-.15H232l0,.1A2.81,2.81,0,0,1,230.81,23a3.6,3.6,0,0,1-2.12.59,3.42,3.42,0,0,1-2.55-1,4,4,0,0,1-1.06-2.68v0h10.08l0-.12a8,8,0,0,0,.08-1.09,6.85,6.85,0,0,0-.9-3.44A6,6,0,0,0,232,13Zm-6.78,4.59a3.18,3.18,0,0,1,1.1-2,3.46,3.46,0,0,1,2.31-.82,3.59,3.59,0,0,1,2.39.79,3.29,3.29,0,0,1,1.1,2.06Z"/><polygon class="cls-2" points="242.26 22.44 238.7 12.43 238.67 12.35 235.35 12.35 240.36 25.92 240.4 26 244.03 26 249.07 12.35 245.81 12.35 242.26 22.44"/><rect class="cls-2" x="250.19" y="12.61" width="3.09" height="13.39"/><path class="cls-2" d="M251.73,7.3a1.82,1.82,0,0,0-1.32.52,1.88,1.88,0,0,0,0,2.62,1.82,1.82,0,0,0,1.32.52,1.79,1.79,0,0,0,1.32-.52,1.86,1.86,0,0,0,0-2.62A1.79,1.79,0,0,0,251.73,7.3Z"/><path class="cls-2" d="M265.41,13a7.35,7.35,0,0,0-3.48-.8,6.78,6.78,0,0,0-3.45.87,6,6,0,0,0-2.35,2.46,7.74,7.74,0,0,0-.84,3.68,7.44,7.44,0,0,0,.87,3.65,6.06,6.06,0,0,0,2.45,2.44,7.66,7.66,0,0,0,3.72.87,6.27,6.27,0,0,0,4.09-1.34,5.55,5.55,0,0,0,2-3.43l0-.15h-3.08l0,.1A2.86,2.86,0,0,1,264.24,23a3.6,3.6,0,0,1-2.12.59,3.41,3.41,0,0,1-2.55-1,4,4,0,0,1-1.06-2.68v0h10.08v-.12a6.83,6.83,0,0,0,.08-1.09,6.74,6.74,0,0,0-.89-3.44A6,6,0,0,0,265.41,13Zm-6.78,4.59a3.13,3.13,0,0,1,1.1-2,3.44,3.44,0,0,1,2.31-.82,3.59,3.59,0,0,1,2.39.79,3.29,3.29,0,0,1,1.1,2.06Z"/><polygon class="cls-2" points="286.85 12.35 283.78 22.27 280.94 12.35 278.16 12.35 275.2 22.27 272.26 12.44 272.23 12.35 268.97 12.35 273.4 25.94 273.43 26.03 276.68 26 279.51 17.2 282.21 25.91 282.24 26 285.47 26 290 12.35 286.85 12.35"/><rect class="cls-3" x="9.45" width="35.06" height="9.18" rx="2.79"/><polygon class="cls-4" points="14.65 2.13 15.4 3.65 17.09 3.9 15.87 5.08 16.16 6.76 14.65 5.96 13.15 6.76 13.44 5.08 12.22 3.9 13.9 3.65 14.65 2.13"/><polygon class="cls-4" points="20.82 2.13 21.57 3.65 23.25 3.9 22.04 5.08 22.32 6.76 20.82 5.96 19.32 6.76 19.6 5.08 18.39 3.9 20.07 3.65 20.82 2.13"/><polygon class="cls-4" points="26.98 2.13 27.74 3.65 29.42 3.9 28.2 5.08 28.49 6.76 26.98 5.96 25.48 6.76 25.77 5.08 24.55 3.9 26.23 3.65 26.98 2.13"/><polygon class="cls-4" points="33.15 2.13 33.9 3.65 35.58 3.9 34.37 5.08 34.66 6.76 33.15 5.96 31.65 6.76 31.93 5.08 30.72 3.9 32.4 3.65 33.15 2.13"/><polygon class="cls-4" points="39.32 2.13 40.07 3.65 41.75 3.9 40.53 5.08 40.82 6.76 39.32 5.96 37.81 6.76 38.1 5.08 36.88 3.9 38.56 3.65 39.32 2.13"/><rect class="cls-4" x="9.44" y="14.66" width="18.59" height="2.24" rx="0.77"/><rect class="cls-4" x="9.44" y="20.22" width="12.03" height="2.24" rx="0.77"/></g></g></svg>