<?xml version="1.0" encoding="utf-8"?>
<!-- Generator: Adobe Illustrator 23.0.0, SVG Export Plug-In . SVG Version: 6.00 Build 0)  -->
<svg version="1.1" id="Layer_1" xmlns="http://www.w3.org/2000/svg" xmlns:xlink="http://www.w3.org/1999/xlink" x="0px" y="0px"
	 viewBox="0 0 48 48" style="enable-background:new 0 0 48 48;" xml:space="preserve">
<style type="text/css">
	.st0{fill:#FFFFFF;stroke:#000000;stroke-miterlimit:10;}
	.st1{fill:#FFFFFF;}
</style>
<g>
	<path class="st0" d="M4.5,5.2"/>
	<path class="st1" d="M36.16,36.25c0,0-7.77-1.29-9.61-5.25c0,0-0.84-1.66,0.16-2.66c0,0,2.06-2.66,3.91-1.09
		C30.62,27.24,33.07,27.59,36.16,36.25z"/>
	<path class="st1" d="M4.86,4.78c5.15-5.15,13.97-5.21,23.32,4.13c7.3,7.3,8.26,17.14,3.11,22.29c-5.15,5.15-16.13,4.3-23.43-3
		S-1.64,11.28,4.86,4.78z"/>
	<path class="st1" d="M35.03,46.7c0,0-13.69-2.84-18.86-9.4c0,0-2.24-2.93-1.07-4.6c0,0,2.08-4.48,5.93-1.64
		C21.03,31.05,28.34,36.1,35.03,46.7z"/>
	<path class="st1" d="M47,34.6c0,0-2.39-13.77-8.78-19.15c0,0-2.86-2.33-4.57-1.22c0,0-4.54,1.93-1.83,5.87
		C31.82,20.09,36.63,27.57,47,34.6z"/>
</g>
</svg>
