<svg xmlns="http://www.w3.org/2000/svg" xmlns:xlink="http://www.w3.org/1999/xlink" width="62" height="62" viewBox="0 0 62 62">
  <defs>
    <linearGradient id="linear-gradient" x1="0.5" x2="0.5" y2="1" gradientUnits="objectBoundingBox">
      <stop offset="0" stop-color="#d291ff"/>
      <stop offset="1" stop-color="#951ee5"/>
    </linearGradient>
    <filter id="text_bg" x="0" y="0" width="62" height="62" filterUnits="userSpaceOnUse">
      <feOffset dy="2" input="SourceAlpha"/>
      <feGaussianBlur stdDeviation="3" result="blur"/>
      <feFlood flood-color="#5e049a" flood-opacity="0.302"/>
      <feComposite operator="in" in2="blur"/>
      <feComposite in="SourceGraphic"/>
    </filter>
  </defs>
  <g transform="matrix(1, 0, 0, 1, 0, 0)" filter="url(#text_bg)">
    <rect id="text_bg-2" data-name="text / bg" width="44" height="44" rx="22" transform="translate(9 7)" fill="url(#linear-gradient)"/>
  </g>
  <g id="icon" transform="translate(18 14.954)">
    <path id="Path_1930" data-name="Path 1930" d="M19.8,14.207a2.236,2.236,0,0,0-.668,1.815,2.374,2.374,0,0,0,2.4,2.082h2.115v1.325a4.2,4.2,0,0,1-4.186,4.186H8.211a4,4,0,0,0,.879-1.046,4.365,4.365,0,0,0,.646-2.293A4.45,4.45,0,0,0,2.5,16.8V11.936A4.2,4.2,0,0,1,6.686,7.75h12.78a4.2,4.2,0,0,1,4.186,4.186v1.6H21.4A2.219,2.219,0,0,0,19.8,14.207Z" transform="translate(0.17 0.646)" fill="none" stroke="#fff" stroke-linecap="round" stroke-linejoin="round" stroke-width="2"/>
    <path id="Path_1931" data-name="Path 1931" d="M2.5,13.584V8.5A3.17,3.17,0,0,1,4.548,5.524l8.839-3.34a2.115,2.115,0,0,1,2.861,1.982V8.4" transform="translate(0.17)" fill="none" stroke="#fff" stroke-linecap="round" stroke-linejoin="round" stroke-width="2"/>
    <path id="Path_1932" data-name="Path 1932" d="M23.14,14.086v2.293a1.143,1.143,0,0,1-1.113,1.135H19.844a2.374,2.374,0,0,1-2.4-2.082,2.294,2.294,0,0,1,2.271-2.483h2.316A1.143,1.143,0,0,1,23.14,14.086Z" transform="translate(1.86 1.235)" fill="none" stroke="#fff" stroke-linecap="round" stroke-linejoin="round" stroke-width="2"/>
    <path id="Path_1933" data-name="Path 1933" d="M7,12h7.793" transform="translate(0.679 1.127)" fill="none" stroke="#fff" stroke-linecap="round" stroke-linejoin="round" stroke-width="2"/>
    <path id="Path_1934" data-name="Path 1934" d="M9.906,19.453a4.365,4.365,0,0,1-.646,2.293,4,4,0,0,1-.879,1.046,4.347,4.347,0,0,1-2.928,1.113,4.419,4.419,0,0,1-3.807-2.16A4.365,4.365,0,0,1,1,19.453a4.453,4.453,0,0,1,8.906,0Z" transform="translate(0 1.467)" fill="none" stroke="#fff" stroke-linecap="round" stroke-linejoin="round" stroke-miterlimit="10" stroke-width="2"/>
    <path id="Path_1935" data-name="Path 1935" d="M3.441,19.11l1.1,1.1,2.371-2.193" transform="translate(0.276 1.809)" fill="none" stroke="#fff" stroke-linecap="round" stroke-linejoin="round" stroke-width="2"/>
  </g>
</svg>
