<svg xmlns="http://www.w3.org/2000/svg" xmlns:xlink="http://www.w3.org/1999/xlink" width="62" height="62" viewBox="0 0 62 62">
  <defs>
    <linearGradient id="linear-gradient" x1="0.5" x2="0.5" y2="1" gradientUnits="objectBoundingBox">
      <stop offset="0" stop-color="#a4b0ff"/>
      <stop offset="1" stop-color="#3950e8"/>
    </linearGradient>
    <filter id="text_bg" x="0" y="0" width="62" height="62" filterUnits="userSpaceOnUse">
      <feOffset dy="2" input="SourceAlpha"/>
      <feGaussianBlur stdDeviation="3" result="blur"/>
      <feFlood flood-color="#041791" flood-opacity="0.302"/>
      <feComposite operator="in" in2="blur"/>
      <feComposite in="SourceGraphic"/>
    </filter>
  </defs>
  <g transform="matrix(1, 0, 0, 1, 0, 0)" filter="url(#text_bg)">
    <rect id="text_bg-2" data-name="text / bg" width="44" height="44" rx="22" transform="translate(9 7)" fill="url(#linear-gradient)"/>
  </g>
  <g id="icon" transform="translate(17.5 15)">
    <path id="Path_1951" data-name="Path 1951" d="M6.5,23.235V15" transform="translate(0.529 2.294)" fill="none" stroke="#fff" stroke-linecap="round" stroke-linejoin="round" stroke-miterlimit="10" stroke-width="2"/>
    <path id="Path_1952" data-name="Path 1952" d="M6.5,5.529V2" transform="translate(0.529 0)" fill="none" stroke="#fff" stroke-linecap="round" stroke-linejoin="round" stroke-miterlimit="10" stroke-width="2"/>
    <path id="Path_1953" data-name="Path 1953" d="M17.5,22.529V19" transform="translate(2.471 3)" fill="none" stroke="#fff" stroke-linecap="round" stroke-linejoin="round" stroke-miterlimit="10" stroke-width="2"/>
    <path id="Path_1954" data-name="Path 1954" d="M17.5,10.235V2" transform="translate(2.471 0)" fill="none" stroke="#fff" stroke-linecap="round" stroke-linejoin="round" stroke-miterlimit="10" stroke-width="2"/>
    <path id="Path_1955" data-name="Path 1955" d="M10.559,7.353v7.059a2.106,2.106,0,0,1-2.353,2.353H5.853A2.106,2.106,0,0,1,3.5,14.412V7.353A2.106,2.106,0,0,1,5.853,5H8.206A2.106,2.106,0,0,1,10.559,7.353Z" transform="translate(0 0.529)" fill="none" stroke="#fff" stroke-linecap="round" stroke-linejoin="round" stroke-miterlimit="10" stroke-width="2"/>
    <path id="Path_1956" data-name="Path 1956" d="M21.559,11.353v7.059a2.106,2.106,0,0,1-2.353,2.353H16.853A2.106,2.106,0,0,1,14.5,18.412V11.353A2.106,2.106,0,0,1,16.853,9h2.353A2.106,2.106,0,0,1,21.559,11.353Z" transform="translate(1.941 1.235)" fill="none" stroke="#fff" stroke-linecap="round" stroke-linejoin="round" stroke-miterlimit="10" stroke-width="2"/>
  </g>
</svg>
