<svg xmlns="http://www.w3.org/2000/svg" xmlns:xlink="http://www.w3.org/1999/xlink" width="62" height="62" viewBox="0 0 62 62">
  <defs>
    <linearGradient id="linear-gradient" x1="0.5" x2="0.5" y2="1" gradientUnits="objectBoundingBox">
      <stop offset="0" stop-color="#ff91bd"/>
      <stop offset="1" stop-color="#ee1a6e"/>
    </linearGradient>
    <filter id="text_bg" x="0" y="0" width="62" height="62" filterUnits="userSpaceOnUse">
      <feOffset dy="2" input="SourceAlpha"/>
      <feGaussianBlur stdDeviation="3" result="blur"/>
      <feFlood flood-color="#b7024c" flood-opacity="0.302"/>
      <feComposite operator="in" in2="blur"/>
      <feComposite in="SourceGraphic"/>
    </filter>
  </defs>
  <g transform="matrix(1, 0, 0, 1, 0, 0)" filter="url(#text_bg)">
    <rect id="text_bg-2" data-name="text / bg" width="44" height="44" rx="22" transform="translate(9 7)" fill="url(#linear-gradient)"/>
  </g>
  <g id="icon" transform="translate(17.678 16)">
    <path id="Path_1946" data-name="Path 1946" d="M3.01,11.22v5.116c0,5.116,2.051,7.168,7.168,7.168H16.32c5.116,0,7.168-2.051,7.168-7.168V11.22" transform="translate(0.096 1.286)" fill="none" stroke="#fff" stroke-linecap="round" stroke-linejoin="round" stroke-width="2"/>
    <path id="Path_1947" data-name="Path 1947" d="M12.421,13.4a3.379,3.379,0,0,0,3.419-3.783L15.087,2H9.766L9,9.612A3.379,3.379,0,0,0,12.421,13.4Z" transform="translate(0.93)" fill="none" stroke="#fff" stroke-linecap="round" stroke-linejoin="round" stroke-width="2"/>
    <path id="Path_1948" data-name="Path 1948" d="M18.87,13.4a3.711,3.711,0,0,0,3.76-4.159L22.311,6.1C21.9,3.14,20.761,2,17.776,2H14.3l.8,7.988A3.883,3.883,0,0,0,18.87,13.4Z" transform="translate(1.671)" fill="none" stroke="#fff" stroke-linecap="round" stroke-linejoin="round" stroke-width="2"/>
    <path id="Path_1949" data-name="Path 1949" d="M6.1,13.4a3.863,3.863,0,0,0,3.76-3.407l.251-2.518L10.661,2H7.186C4.2,2,3.06,3.14,2.65,6.1L2.343,9.236A3.711,3.711,0,0,0,6.1,13.4Z" transform="translate(0)" fill="none" stroke="#fff" stroke-linecap="round" stroke-linejoin="round" stroke-width="2"/>
    <path id="Path_1950" data-name="Path 1950" d="M12.349,17A2.515,2.515,0,0,0,9.5,19.849V22.7h5.7V19.849A2.515,2.515,0,0,0,12.349,17Z" transform="translate(1.002 2.093)" fill="none" stroke="#fff" stroke-linecap="round" stroke-linejoin="round" stroke-width="2"/>
  </g>
</svg>
