<svg id="man" xmlns="http://www.w3.org/2000/svg" width="140" height="178.818" viewBox="0 0 140 178.818">
  <path id="Path_1603" data-name="Path 1603" d="M190.312,750.262a6.542,6.542,0,1,0,6.542-6.543A6.537,6.537,0,0,0,190.312,750.262Zm6.542-7.162a7.162,7.162,0,1,1-7.161,7.162A7.166,7.166,0,0,1,196.854,743.1Z" transform="translate(-81.506 -593.173)" fill="#f4ccc7"/>
  <path id="Path_1604" data-name="Path 1604" d="M618.914,227.835c.282-1.054-5.692-3.553-7.264-3.974s-2.932-.444-3.354,1.129.768,2.233,2.34,2.654C609.936,227.644,618.575,229.1,618.914,227.835Z" transform="translate(-606.012 -209.727)" fill="#f48032"/>
  <path id="Path_1605" data-name="Path 1605" d="M587.7,180c.9-.619-2.029-6.395-2.953-7.735s-1.945-2.239-3.285-1.316-.864,2.2.06,3.538C581.327,174.49,586.676,180.711,587.7,180Z" transform="translate(-567.739 -170.574)" fill="#f48032"/>
  <path id="Path_1606" data-name="Path 1606" d="M620.8,286.01c1.54-.527,7.331-3.425,6.977-4.457s-6.705.224-8.245.751-2.682,1.267-2.155,2.807,1.883,1.426,3.423.9Z" transform="translate(-617.248 -252.2)" fill="#f48032"/>
  <path id="Path_1607" data-name="Path 1607" d="M449.558,805.447c-1.229.621-1.622,3.337-1.061,7.334-.93-1.006-2.627-2.543-3.817-1.851-1.148.667-1.406,3.234-.7,6.982h14.682c-2.6-7.226-6.239-12.608-8.528-12.6A1.276,1.276,0,0,0,449.558,805.447Z" transform="translate(-402.665 -639.095)" fill="#43ad67"/>
  <path id="Path_1608" data-name="Path 1608" d="M382.757,782.953h18.39c2.093-4.762.314-6.325-4.036-3.9,5.959-10.092,3.916-14.816-3.77-7.809,1.536-7.354,1.072-13.01-1.09-13.281a1.19,1.19,0,0,0-.183-.01h0C388.138,757.951,382.413,773.579,382.757,782.953Z" transform="translate(-330.068 -604.135)" fill="#56bb6a"/>
  <path id="Path_1609" data-name="Path 1609" d="M416.395,799.082a14.558,14.558,0,0,0-2.117,3.878l-.636,1.99a20.8,20.8,0,0,1,.746-5.277,7.794,7.794,0,0,1,2.6-4.006C416.7,797.625,416.426,799.082,416.395,799.082Z" transform="translate(-353.121 -631.974)"/>
  <path id="Path_1610" data-name="Path 1610" d="M469.8,308.8c-1.443,1.242-2.128,6.426-1.8,7.611.339,1.226,4.216,4.084,5.913,5.4.135-.113,1.516,3.069,4.089,7.693l5.082-4.939c-7-7.566-6.151-6.629-6.211-6.711-.026,0-.291-2-.679-4a41.7,41.7,0,0,1-.277-4.769c-.044-.928-1.224-.522-1.6.674a14.206,14.206,0,0,1-.74,1.918s-1.706-2.054-2.091-2.509c-1.031-1.219-1.656-.3-1.685-.366Z" transform="translate(-433.438 -272.405)" fill="#f9b098"/>
  <path id="Path_1611" data-name="Path 1611" d="M392.793,334.2c.011-.062.019-.124.025-.186.663-6.077-7.082-9.892-12.276-3.364-2.913,3.661-9.416,14.174-9.416,14.174l-4.81-5.2a3.316,3.316,0,0,1-.378,1.878,14.076,14.076,0,0,1-3.794,4.9c1.233,1.809,2.446,3.523,3.482,4.869.991,1.287,3.341,4.238,7.1,1.755,1.05-.693,3.087-2.452,4.778-3.9l13.758-12.182a4.9,4.9,0,0,0,1.53-2.745Z" transform="translate(-315.509 -286.215)" fill="#ef9f34"/>
  <path id="Path_1612" data-name="Path 1612" d="M464.134,374.68s-1.673,3.7.041,3.9,4.581-2.992,5.824-5.713-.78-3.128-.78-3.128C469.22,369.712,469.4,369.559,464.134,374.68Z" transform="translate(-419.571 -317.579)" fill="#fff"/>
  <path id="Path_1613" data-name="Path 1613" d="M438.58,388.069l1.141,2.987s.159.278.474-.223-.214-5-.214-5l-1.4,2.239Z" transform="translate(-382.962 -329.461)"/>
  <path id="Path_1614" data-name="Path 1614" d="M473.994,369.755l-6.081,3.162,1,1.777C473.936,369.811,474.021,369.755,473.994,369.755Z" transform="translate(-424.345 -317.596)"/>
  <path id="Path_1615" data-name="Path 1615" d="M487.443,344.128l-1.062,1.994s0,.281.518.08,1.921-.551,1.921-.551l-1.377-1.524Z" transform="translate(-444.005 -298.68)"/>
  <path id="Path_1616" data-name="Path 1616" d="M505.127,320.171a6.373,6.373,0,0,0,.158,3.057c.518,1.1-.106,4.128-1.019,4.582s-1.339.153-1.354.02,1.284-2.505,1.163-3.921a19.512,19.512,0,0,0-.739-3.535C503.161,319.761,505.153,320.171,505.127,320.171Z" transform="translate(-464.985 -280.897)"/>
  <path id="Path_1617" data-name="Path 1617" d="M199.425,332.377c-4.615-7.12-12.843-3.811-12.538,2.347h0a4.907,4.907,0,0,0,1.257,2.881s18.707,25.438,19.967,27.228A14.081,14.081,0,0,1,214.03,363a3.315,3.315,0,0,1,1.891.305l-3.177-6.33C211.136,353.933,201.258,335.222,199.425,332.377Z" transform="translate(-92.675 -287.036)" fill="#ef9f34"/>
  <path id="Path_1618" data-name="Path 1618" d="M144.995,485.813a.658.658,0,0,0-.2-.552c-.5-.491-2.709-2.7-3.073-3.011s-2.546-3.37-2.546-3.37.751-.068,1.755-.2,1.975-1.267,1.243-1.434a41.841,41.841,0,0,1-4.487-.788c-.974-.376-3.858-1.053-3.858-1.053l-4.822-7.77-6.111,3.589a68.787,68.787,0,0,0,7.392,7.083c.752,1.442,2.448,4.564,3.419,5.306.512,1.335,1.113,3.048,1.46,3.748.97,1.956,1.992,1.267,1.886.564-.04-.261-.186-1.133-.347-2.091.468.9.92,1.758,1.206,2.189,1.209,1.824,2.134,1.007,1.941.326-.074-.263-.342-1.159-.635-2.132.824.777,1.652,1.56,2.111,1.909,1.745,1.331,2.345.244,1.94-.329-.219-.313-1.135-1.581-1.986-2.753.6.331,1.206.669,1.668.9,1.289.644,1.9.361,2.021-.052a.376.376,0,0,0,.021-.081Z" transform="translate(-5.002 -389.847)" fill="#f9b098"/>
  <path id="Path_1619" data-name="Path 1619" d="M145.156,511.449c-.44-.821,1.553-.445,2.8-.194a8.779,8.779,0,0,0,3.584-.688c.256,3.294-4.549,4.305-6.384.882Z" transform="translate(-17.362 -421.534)"/>
  <path id="Path_1620" data-name="Path 1620" d="M146.614,532.71l-1.641-2.088a2.324,2.324,0,0,0,1.641,2.088Z" transform="translate(-12.394 -436.337)"/>
  <path id="Path_1621" data-name="Path 1621" d="M155.174,532.42l-.392-1.674s-.688.733.392,1.674Z" transform="translate(-23.466 -436.428)"/>
  <path id="Path_1622" data-name="Path 1622" d="M138.838,529.272l-1.63-1.718s-.775,1.081,1.63,1.718Z" transform="translate(-2.554 -434.072)"/>
  <path id="Path_1623" data-name="Path 1623" d="M167.762,491.511l.925,1.519-2.743,1.349s-.5.261-.371-.313a6.692,6.692,0,0,1,2.19-2.555Z" transform="translate(-39.855 -407.468)"/>
  <path id="Path_1624" data-name="Path 1624" d="M190.072,467.643l-4.847,4.989-1.264-1.4C187.666,469.056,190.1,467.643,190.072,467.643Z" transform="translate(-66.063 -389.85)"/>
  <path id="Path_1625" data-name="Path 1625" d="M193.972,462.443l-6.11,3.59s-4.356-.3-3.94-1.971,4.41-3.238,7.394-3.447C194.276,460.407,194,462.443,193.972,462.443Z" transform="translate(-69.963 -384.651)" fill="#fff"/>
  <path id="Path_1626" data-name="Path 1626" d="M339.227,751.655h5.589s2.24-15.006,2.245-20.4-7.519-5-8.671,0C338.365,731.258,338.371,730.773,339.227,751.655Z" transform="translate(-263.49 -581.555)" fill="#f9b098"/>
  <path id="Path_1627" data-name="Path 1627" d="M338.384,731.254a22.349,22.349,0,0,0,8.583,2.209c.056-.835.088-1.587.088-2.209C347.055,725.865,339.537,726.249,338.384,731.254Z" transform="translate(-263.484 -581.551)"/>
  <path id="Path_1628" data-name="Path 1628" d="M342.21,781.186l.383,10.2h5.589s.644-4.863,1.243-10.2Z" transform="translate(-266.856 -621.286)" fill="#ef9f34"/>
  <path id="Path_1629" data-name="Path 1629" d="M204.953,752.362h5.59s-3.279-14.857-5.4-20.248-9.494-5-8.671,0C196.441,732.113,196.393,731.936,204.953,752.362Z" transform="translate(-89.791 -582.187)" fill="#f9b098"/>
  <path id="Path_1630" data-name="Path 1630" d="M214.108,732.111s5.153,2.177,9.455,2.209c-.274-.835-.539-1.587-.784-2.209C220.655,726.723,213.284,727.108,214.108,732.111Z" transform="translate(-107.431 -582.185)"/>
  <path id="Path_1631" data-name="Path 1631" d="M196.4,781.471l4.263,10.2h5.59s-.941-4.863-2.45-10.2Z" transform="translate(-85.505 -621.496)" fill="#ef9f34"/>
  <path id="Path_1632" data-name="Path 1632" d="M237.17,461.185c3.089,2.059,10.79,10.135,9.356,27.648a193.647,193.647,0,0,0,2.641,19.227c4.026,11.335,4.762,17.985,4.986,22.049,3.094,3.225.443,4.983.105,4.9h-8.671a2.908,2.908,0,0,1-2.072-4.687c-2.024-4.781-5.365-10.484-7.53-15.146a44,44,0,0,1-2.523-8.926l-3.843-15.79-2.509,17.855a109.95,109.95,0,0,1-3.484,22.989c2,3.225-.923,3.787-1.234,3.7h-8.671c-.2.033-2.067-1.25-.343-3.968-.6-7.044-1.757-21.214-1.588-23.577.3-4.186,3.493-46.28,3.493-46.28Z" transform="translate(-138.91 -385.083)" fill="#8a4299"/>
  <path id="Path_1633" data-name="Path 1633" d="M258,504.648l.609.108c-.118.653-5.7,31.769-6.044,32.986-.282.981-.707,9.206-.758,10.188h-.62c.553-10.6.68-9.726,1.131-12.078C253.243,531.023,258.025,504.648,258,504.648Zm15.041-25.959c.117.17.233.342.35.521a24.663,24.663,0,0,1-4.39,1.4,7.782,7.782,0,0,0,6.43,2.415c.086.2.171.4.255.607a11.165,11.165,0,0,1-2.589-.139l4.976,17.365a4.948,4.948,0,0,0-.027,1.37l-.313-.312-5.321-18.572a7.3,7.3,0,0,1-4.078-2.59c-7.088,1.443-14.916.664-22.011-.79.011-.145.037-.5.048-.627,8.3,1.706,18.893,2.681,26.672-.647Z" transform="translate(-170.389 -398.003)" fill="#a96eae"/>
  <path id="Path_1634" data-name="Path 1634" d="M312.653,520.872s-1.529.674-1.529,3.215.224,16.743,2.018,20.556c.533,1.132.991,1.982,1.375,2.625l1.792-12.752C312.524,520.391,312.68,520.872,312.653,520.872Z" transform="translate(-225.599 -429.139)"/>
  <path id="Path_1635" data-name="Path 1635" d="M351.554,809.15a49.259,49.259,0,0,1-6,1.669l.046,1.2h5.589C351.6,808.915,351.528,809.15,351.554,809.15Z" transform="translate(-269.859 -641.924)"/>
  <path id="Path_1636" data-name="Path 1636" d="M343.449,817.469c-1.655-.444-1.172-3.006-1.172-3.006,5.606-.649,4.871.817,4.871,3.673A28.326,28.326,0,0,1,343.449,817.469Z" transform="translate(-264.611 -645.735)" fill="#fff"/>
  <path id="Path_1637" data-name="Path 1637" d="M359.273,823.592c1.243-2.152.685-4.01-1.006-6.418-3.169-.289-4.366-.861-4.871-3.673h-1.409s-1.878-1.722-2.857,1.268-8.042,3.517-10.784,5.074c-3.1,1.759-3.094,3.748-.767,3.748Z" transform="translate(-275.73 -644.774)" fill="#8a4299"/>
  <path id="Path_1638" data-name="Path 1638" d="M357.158,837.618a4.961,4.961,0,0,1-3.462,1H336.2c-.647,1.063-.115,1.894,1.389,1.894h21.693a4.514,4.514,0,0,0,.1-4.58A11.47,11.47,0,0,0,357.158,837.618Z" transform="translate(-275.735 -661.699)"/>
  <path id="Path_1639" data-name="Path 1639" d="M367.421,817.7a2.47,2.47,0,0,1,2.358,1.982,1.91,1.91,0,0,1-1.044,2.024c-1.146.333-2.464-2.184-2.928-3.3a2.492,2.492,0,0,1,1.614-.709Zm-5.837-.052a4.643,4.643,0,0,0,.432,2.591,2.106,2.106,0,0,0,.508-.231,4.184,4.184,0,0,1-.406-2.193,1.254,1.254,0,0,1,.792-.78c1.378-.572,2.268,1.38,2.275,1.4a13.007,13.007,0,0,0,1.366,2.483c.575.78,1.409,1.6,2.342,1.326a2.451,2.451,0,0,0,1.438-2.651,2.94,2.94,0,0,0-4.784-1.732C364.584,815.935,362.1,815.983,361.584,817.644Z" transform="translate(-292.85 -647.283)" fill="#a86dae"/>
  <path id="Path_1640" data-name="Path 1640" d="M385.116,825.035a.28.28,0,0,0,.054.557c.42-.038.778.234.778.807a.28.28,0,0,0,.559,0,1.4,1.4,0,0,0-.426-1.057A1.267,1.267,0,0,0,385.116,825.035Z" transform="translate(-315.106 -653.646)" fill="#a86dae"/>
  <path id="Path_1641" data-name="Path 1641" d="M392.159,829.076a.278.278,0,0,0-.251.305c-.026,0,.062.274.3.252.418-.042.777.232.777.8a.28.28,0,1,0,.559,0,1.475,1.475,0,0,0-.426-1.056A1.262,1.262,0,0,0,392.159,829.076Z" transform="translate(-323.993 -656.628)" fill="#a86dae"/>
  <path id="Path_1642" data-name="Path 1642" d="M203.137,796.689h-5.59l-1.144-2.736c1.694-.8,3.785-4.036,4.77-5.684C201.148,788.27,202.289,792.309,203.137,796.689Z" transform="translate(-82.385 -626.515)"/>
  <path id="Path_1643" data-name="Path 1643" d="M192.066,798.288c-1.39.62-2.491-1.418-2.491-1.418,3.5-3.584,3.818-2.161,5.415-.191A26,26,0,0,1,192.066,798.288Z" transform="translate(-72.45 -631.236)" fill="#fff"/>
  <path id="Path_1644" data-name="Path 1644" d="M194.958,802.351c-2.347,1.574-3.493,1.849-5.415.191l-2.759,2.237s-2.968-1.013-1.971,1.6c.456,1.194-.12,2.93-.962,4.708a28.483,28.483,0,0,0-2.923,1.31c-2.752,1.564-2.749,3.329-.681,3.329l7.1-.373,10.437-8.2c-.347-2.181-1.513-4.3-2.829-4.8Z" transform="translate(-72.418 -636.908)" fill="#8a4299"/>
  <path id="Path_1645" data-name="Path 1645" d="M208.3,812.009a2.469,2.469,0,0,1,3.052.413,1.911,1.911,0,0,1,.2,2.268c-.782.9-3.248-.524-4.237-1.218a2.489,2.489,0,0,1,.985-1.463Zm-4.121,1.082a1.8,1.8,0,0,0-.839,2,4.646,4.646,0,0,0,1.752,1.958,1.366,1.366,0,0,0,.233-.505,3.841,3.841,0,0,1-1.444-1.6,1.253,1.253,0,0,1,.252-1.083c.858-1.221,2.655-.047,2.669-.038,1.344.942,4.074,2.491,5.171,1.234a2.45,2.45,0,0,0-.2-3.009,2.939,2.939,0,0,0-4.968,1.1,2.486,2.486,0,0,0-2.622-.055Z" transform="translate(-93.442 -643.366)" fill="#a86dae"/>
  <path id="Path_1646" data-name="Path 1646" d="M196.522,807.814a7.309,7.309,0,0,0-.906,2.209,2.57,2.57,0,0,1-1.287,2.043l-7.411,6.012h-7.907c-.575.943-.1,1.681,1.234,1.681h5.76a3.568,3.568,0,0,0,2.183-.561l9.6-8.009a8.823,8.823,0,0,0-1.264-3.374Z" transform="translate(-72.417 -640.941)"/>
  <path id="Path_1647" data-name="Path 1647" d="M224.666,826.728a.282.282,0,0,0-.049.392.279.279,0,0,0,.392.05.707.707,0,0,1,1.088.264.28.28,0,0,0,.473-.3h0a1.262,1.262,0,0,0-1.9-.406Z" transform="translate(-113.234 -654.697)" fill="#a86dae"/>
  <path id="Path_1648" data-name="Path 1648" d="M229.334,833.37a.283.283,0,0,0,.392.049.708.708,0,0,1,1.087.266.278.278,0,0,0,.386.085h0a.28.28,0,0,0,.087-.386,1.46,1.46,0,0,0-.925-.664,1.263,1.263,0,0,0-.978.258A.279.279,0,0,0,229.334,833.37Z" transform="translate(-119.186 -659.311)" fill="#a86dae"/>
  <path id="Path_1649" data-name="Path 1649" d="M330.084,717.3s-.385-.329.6-1.056a15.294,15.294,0,0,0,2.436-3.077l-1.047,4.133Z" transform="translate(-247.354 -571.082)"/>
  <path id="Path_1650" data-name="Path 1650" d="M242.313,711.8h4.7s.221-.742-1.326-1.129-5.595-3.626-5.595-3.626C242.358,711.9,242.339,711.8,242.313,711.8Z" transform="translate(-137.708 -566.559)"/>
  <path id="Path_1651" data-name="Path 1651" d="M354.972,234.166c-7.51,13.981,6.5,11.311,6.5,11.311s-1.374-19.715-5.18-20.561C356.267,224.916,356.844,230.682,354.972,234.166Z" transform="translate(-281.666 -210.686)" fill="#c84f49"/>
  <path id="Path_1652" data-name="Path 1652" d="M268.947,453.881c-.111.006-2.693,4.034-.862,4.287,10.234,1.416,15.32,1.814,25.319,0,1.708-.31-2.2-4.9-2.308-4.895Z" transform="translate(-191.682 -379.244)" fill="#fff"/>
  <path id="Path_1653" data-name="Path 1653" d="M278.714,310.814l16.566,6.078s-6.508,17.833-5.891,26.159c.854,4.2,3.495,6.053,1.835,7.14-9.5,1.181-13.252,1.965-23.79,0-2.081-4.933-1.089-5.38-1.575-8.612,0,0-5.986-23.033-6.323-24.687,1.737-1.137,9.694-5.784,9.694-5.784C274.414,310.948,278.747,310.814,278.714,310.814Z" transform="translate(-191.06 -274.09)" fill="#f48032"/>
  <path id="Path_1654" data-name="Path 1654" d="M308.908,310.807l-9.484.294s-2.991,1.751-5.721,3.373c3.588,5.713,6.879,8.37,8.495,8.615s10.076-3.7,14.328-9.487C308.394,310.619,308.934,310.807,308.908,310.807Z" transform="translate(-221.254 -274.083)" fill="#f9b098"/>
  <path id="Path_1655" data-name="Path 1655" d="M283.881,427.975a24.48,24.48,0,0,0,5.08.734,13.007,13.007,0,0,1-.642-2.156c-.022-.295-.033-.6-.038-.922-2.542-.078-6.243-.424-8.7-1.693A7.275,7.275,0,0,0,283.881,427.975Z" transform="translate(-189.991 -357.59)"/>
  <path id="Path_1656" data-name="Path 1656" d="M258.531,329.448c1.24,8.3.082,10.689,4.194,11.063a40.959,40.959,0,0,0,4.808.224c1.691-.059,5.259.224,3.378-4.3.8-4.4,2.335-11.881,3.158-14.012,1.126-2.915,1.827-6.278.561-8s-15.479-5.985-17.675-6.954C256.929,307.469,257.326,321.38,258.531,329.448Z" transform="translate(-170.411 -271.621)" fill="#ef9f34"/>
  <path id="Path_1657" data-name="Path 1657" d="M336.188,265.7l.3,10.726c0,8.023-8.633,7.989-8.633,1.383l1.57-7.512C335.961,265.849,336.218,265.7,336.188,265.7Z" transform="translate(-250.157 -240.787)" fill="#f9b098"/>
  <path id="Path_1658" data-name="Path 1658" d="M335.416,275.133l-.69,3.3a6.844,6.844,0,0,0,4.764-1.175c2.579-2.018.16-5.007.16-5.007v0C339.622,272.256,335.448,275.133,335.416,275.133Z" transform="translate(-256.15 -245.627)"/>
  <path id="Path_1659" data-name="Path 1659" d="M329.678,231.211s.77,4.2,3.909,4.2c2.224,0,5.737-4.167,5.774-6.335s0-5.653,0-9.043-11-4.952-10.561.449C328.775,220.486,328.777,220.195,329.678,231.211Z" transform="translate(-253.294 -204.807)" fill="#f9b098"/>
  <path id="Path_1660" data-name="Path 1660" d="M360.92,250.043c-.509,0-.159,1.334.858,1.271s1.6-3.511.795-2.7C362.547,248.614,361.449,250.043,360.92,250.043Z" transform="translate(-285.222 -228.087)"/>
  <path id="Path_1661" data-name="Path 1661" d="M324.989,217.332s1.271,6.5,4.261,8.335,4.672.3,4.672.3l-2.018,1.682s-4.56-.186-6.391-5.793-.261-7.1-.261-7.1l-.262,2.579Z" transform="translate(-246.747 -203.184)" fill="#c84f49"/>
  <path id="Path_1662" data-name="Path 1662" d="M356.08,330.977c.725,12.6,1.214,19.251,1.026,24.331,0,0-3.666-18.389-3.439-21.864C353.914,329.664,355.427,330.977,356.08,330.977Z" transform="translate(-277.575 -288.81)"/>
  <path id="Path_1663" data-name="Path 1663" d="M352.409,316.951c-.329.582,2.85,15.76,4.487,21.8.3,1.1-.675,1.766-.223,2.724,1.3,2.75,6.24,1.9,7.127,1.585s.7-1.744.326-3.594-3.257-21.46-2.976-22.94a34.639,34.639,0,0,1,1.553-4.591C362.676,311.938,352.791,316.275,352.409,316.951Z" transform="translate(-284.532 -274.919)" fill="#ef9f34"/>
  <path id="Path_1664" data-name="Path 1664" d="M313.495,305.73c-2.937.188-1.768-2.426-2.152-3.046a4.029,4.029,0,0,0-3.534.261c-1.611,1.084.082,2.243-.334,2.953s-1.558,3.363,4.034,5.681,11.025,0,12.55-2.242a5.32,5.32,0,0,0,.22-5.532c-.534-.972-4.721-.86-4.721-.86l.174.771A13.837,13.837,0,0,1,313.495,305.73Z" transform="translate(-233.187 -267.868)" fill="#fff"/>
  <path id="Path_1665" data-name="Path 1665" d="M331.238,318.089c-.442,1.982-2.33,1.665-4,1.269-.858-.2-1.151.159-1.234.561a12.329,12.329,0,0,0,7.234.005c.753-3-3.109-6.69-3.147-6.8C330.069,313.121,331.692,316.057,331.238,318.089Z" transform="translate(-246.527 -275.792)" fill="#ccdef2"/>
  <path id="Path_1666" data-name="Path 1666" d="M300.9,307.354s2.818.075,3.6,4.821-.561,8.447.081,10.315.619,1.57.619,1.57a9.289,9.289,0,0,0,3.911.486,5.932,5.932,0,0,0,3.217-1.271s-1.476-1.009-1.523-3.812.258-7.363-1.353-10.689-4.695-4.336-6.65-3.663a13.867,13.867,0,0,0-3.952,2.489,11.857,11.857,0,0,0,2.054-.246Z" transform="translate(-218.399 -269.735)" fill="#fff"/>
  <path id="Path_1667" data-name="Path 1667" d="M305.645,203.362a12.271,12.271,0,0,0-1.91.1s.1.161.251.392c-1.365-.323-2.908.037-4.548,1.626,0,0-2.177-2.4-3.868-1.394S296.944,209,296.944,209l.88,1.448c0-.816.265-2.564,2.027-1.554,1.51.866,2.965,8.76,7.9,7.081a9.69,9.69,0,0,1-.277,3.256c-.785,2.355-2.953,7.174-.636,9.9s8.746,1.569,10.128-1.607-3.065-7.622-2.8-10.836,1.57-7.662-1.681-10.876C309.806,203.174,305.531,203.36,305.645,203.362Z" transform="translate(-222.316 -194.774)" fill="#c84f49"/>
  <path id="Path_1668" data-name="Path 1668" d="M329.856,210.48s-1.757-5.494-5.345-6.167a6.03,6.03,0,0,0-4.784,1.009s1.485-2.39,5.372-2.166,8.083,6.433,4.756,7.324Z" transform="translate(-242.606 -194.613)"/>
  <path id="Path_1669" data-name="Path 1669" d="M364.862,313.679c.178.591-.143.5-.336,1.371a4,4,0,0,0,.749.439c1.159.5,3.23.29,1.06-.767a4.8,4.8,0,0,1-1.472-1.043Z" transform="translate(-290.558 -276.204)"/>
  <path id="Path_1670" data-name="Path 1670" d="M312.865,388.067a.322.322,0,0,1-.324.407.524.524,0,0,1-.49-.407.322.322,0,0,1,.324-.407A.524.524,0,0,1,312.865,388.067Z" transform="translate(-222.404 -330.812)"/>
  <path id="Path_1671" data-name="Path 1671" d="M311.681,403.81a.322.322,0,0,1-.324.407.523.523,0,0,1-.49-.407.323.323,0,0,1,.324-.407A.524.524,0,0,1,311.681,403.81Z" transform="translate(-220.911 -342.432)"/>
  <path id="Path_1672" data-name="Path 1672" d="M309.969,420.159a.322.322,0,0,1-.324.406.524.524,0,0,1-.49-.406.322.322,0,0,1,.324-.407A.524.524,0,0,1,309.969,420.159Z" transform="translate(-218.75 -354.5)"/>
  <path id="Path_1673" data-name="Path 1673" d="M501.378,275.292a2.027,2.027,0,0,0-2.2,1.844l-.315,3.548a2.027,2.027,0,0,0,1.845,2.2l3.548.315a2.027,2.027,0,0,0,2.2-1.844l.315-3.548a2.027,2.027,0,0,0-1.845-2.2C504.9,275.606,501.145,275.271,501.378,275.292Z" transform="translate(-465.229 -247.864)" fill="#ef9f34"/>
  <path id="Path_1674" data-name="Path 1674" d="M499.063,309.272a1.364,1.364,0,0,1-1.753.815l-.534-.195a1.4,1.4,0,0,1-.815-1.753l4.262-14.512c2.728-.649,3.281.486,4.019,1.468C504.216,295.1,499.052,309.3,499.063,309.272Z" transform="translate(-461.918 -261.262)" fill="#f48032"/>
  <path id="Path_1675" data-name="Path 1675" d="M497.775,293.59a3.573,3.573,0,0,1,1.613,1.506l-.784,2.145-2.71-3.72A3.408,3.408,0,0,1,497.775,293.59Z" transform="translate(-457.064 -261.263)"/>
  <path id="Path_1676" data-name="Path 1676" d="M564.571,235.387a2.657,2.657,0,1,0-1.823,4.991l3.523,1.287a2.657,2.657,0,1,0,1.823-4.991C568.068,236.674,564.545,235.378,564.571,235.387Z" transform="translate(-544.566 -218.294)" fill="#ef9f34"/>
  <path id="Path_1677" data-name="Path 1677" d="M522.218,222.051c.19,5.3-2.049,7.542-3.63,9.969l-20.6-2.532a1.159,1.159,0,0,1-.731-1.574l6.221-17.03c.219-.6.869-1.227,1.574-.732C505.051,210.126,523.389,222.863,522.218,222.051Z" transform="translate(-480.284 -199.656)" fill="#ffdddb"/>
  <path id="Path_1678" data-name="Path 1678" d="M467.882,256.1c-1.4,3.841-1.687,4.619-3.64,9.965l5.19,1.9a5.3,5.3,0,1,0,3.64-9.965C473.046,257.993,467.856,256.087,467.882,256.1Z" transform="translate(-425.948 -233.701)" fill="#c84f49"/>
  <path id="Path_1679" data-name="Path 1679" d="M564.315,210.016c.175.06.081.01,1.895,1.267l-3.458,18.848-5.239-.644a1.158,1.158,0,0,1-.731-1.574L563,210.882c.191-.524.713-1.07,1.313-.867Z" transform="translate(-539.809 -199.655)"/>
  <path id="Path_1680" data-name="Path 1680" d="M562.156,204.513a2.032,2.032,0,0,0-2.606,1.211l-6.971,19.084a2.032,2.032,0,0,0,1.211,2.606h0A2.031,2.031,0,0,0,556.4,226.2l6.971-19.084a2.032,2.032,0,0,0-1.211-2.606Z" transform="translate(-535.978 -195.534)" fill="#c84f49"/>
</svg>
